<ttFont>
    <TTGlyph name="A" xMin="6" yMin="0" xMax="829" yMax="1374">
      <contour>
        <pt x="639" y="0" on="1"/>
        <pt x="625" y="96" on="0"/>
        <pt x="595" y="284" on="0"/>
        <pt x="580" y="378" on="1"/>
        <pt x="255" y="378" on="1"/>
        <pt x="239" y="284" on="0"/>
        <pt x="210" y="96" on="0"/>
        <pt x="196" y="0" on="1"/>
        <pt x="6" y="0" on="1"/>
        <pt x="38" y="121" on="0"/>
        <pt x="100" y="378" on="0"/>
        <pt x="156" y="633" on="0"/>
        <pt x="207" y="880" on="0"/>
        <pt x="250" y="1105" on="0"/>
        <pt x="286" y="1299" on="0"/>
        <pt x="299" y="1374" on="1"/>
        <pt x="536" y="1374" on="1"/>
        <pt x="549" y="1299" on="0"/>
        <pt x="585" y="1105" on="0"/>
        <pt x="628" y="880" on="0"/>
        <pt x="679" y="633" on="0"/>
        <pt x="735" y="378" on="0"/>
        <pt x="797" y="121" on="0"/>
        <pt x="829" y="0" on="1"/>
      </contour>
      <contour>
        <pt x="410" y="1172" on="1"/>
        <pt x="369" y="1002" on="0"/>
        <pt x="303" y="666" on="0"/>
        <pt x="274" y="495" on="1"/>
        <pt x="560" y="495" on="1"/>
        <pt x="531" y="666" on="0"/>
        <pt x="464" y="1002" on="0"/>
        <pt x="424" y="1172" on="1"/>
      </contour>
    </TTGlyph>
    <TTGlyph name="AE" xMin="6" yMin="0" xMax="1077" yMax="1374">
      <contour>
        <pt x="1071" y="1257" on="1"/>
        <pt x="673" y="1257" on="1"/>
        <pt x="667" y="1142" on="0"/>
        <pt x="662" y="913" on="0"/>
        <pt x="661" y="805" on="1"/>
        <pt x="1042" y="805" on="1"/>
        <pt x="1042" y="688" on="1"/>
        <pt x="661" y="688" on="1"/>
        <pt x="661" y="559" on="0"/>
        <pt x="665" y="264" on="0"/>
        <pt x="672" y="117" on="1"/>
        <pt x="1077" y="117" on="1"/>
        <pt x="1077" y="0" on="1"/>
        <pt x="491" y="0" on="1"/>
        <pt x="497" y="92" on="0"/>
        <pt x="504" y="283" on="0"/>
        <pt x="506" y="378" on="1"/>
        <pt x="255" y="378" on="1"/>
        <pt x="239" y="280" on="0"/>
        <pt x="210" y="91" on="0"/>
        <pt x="196" y="0" on="1"/>
        <pt x="6" y="0" on="1"/>
        <pt x="38" y="121" on="0"/>
        <pt x="100" y="378" on="0"/>
        <pt x="156" y="633" on="0"/>
        <pt x="207" y="880" on="0"/>
        <pt x="250" y="1105" on="0"/>
        <pt x="286" y="1299" on="0"/>
        <pt x="299" y="1374" on="1"/>
        <pt x="1071" y="1374" on="1"/>
      </contour>
      <contour>
        <pt x="510" y="688" on="1"/>
        <pt x="510" y="816" on="0"/>
        <pt x="505" y="1110" on="0"/>
        <pt x="498" y="1256" on="1"/>
        <pt x="428" y="1256" on="1"/>
        <pt x="386" y="1079" on="0"/>
        <pt x="309" y="692" on="0"/>
        <pt x="275" y="495" on="1"/>
        <pt x="509" y="495" on="1"/>
        <pt x="510" y="546" on="0"/>
        <pt x="510" y="642" on="0"/>
      </contour>
    </TTGlyph>
    <TTGlyph name="AEacute" xMin="6" yMin="0" xMax="1077" yMax="1777">
      <component glyphName="AE" x="0" y="0" flags="0x204"/>
      <component glyphName="acute" x="357" y="362" flags="0x4"/>
    </TTGlyph>
    <TTGlyph name="Aacute" xMin="6" yMin="0" xMax="829" yMax="1777">
      <component glyphName="A" x="0" y="0" flags="0x204"/>
      <component glyphName="acute" x="126" y="362" flags="0x4"/>
    </TTGlyph>
    <TTGlyph name="Abreve" xMin="6" yMin="0" xMax="829" yMax="1733">
      <component glyphName="A" x="0" y="0" flags="0x204"/>
      <component glyphName="breve" x="147" y="362" flags="0x4"/>
    </TTGlyph>
    <TTGlyph name="Acircumflex" xMin="6" yMin="0" xMax="829" yMax="1777">
      <component glyphName="A" x="0" y="0" flags="0x204"/>
      <component glyphName="circumflex" x="147" y="362" flags="0x4"/>
    </TTGlyph>
    <TTGlyph name="Adieresis" xMin="6" yMin="0" xMax="829" yMax="1683">
      <component glyphName="A" x="0" y="0" flags="0x204"/>
      <component glyphName="dieresis" x="146" y="362" flags="0x4"/>
    </TTGlyph>
    <TTGlyph name="Agrave" xMin="6" yMin="0" xMax="829" yMax="1777">
      <component glyphName="A" x="0" y="0" flags="0x204"/>
      <component glyphName="grave" x="122" y="362" flags="0x4"/>
    </TTGlyph>
    <TTGlyph name="Amacron" xMin="6" yMin="0" xMax="829" yMax="1649">
      <component glyphName="A" x="0" y="0" flags="0x204"/>
      <component glyphName="macron" x="147" y="363" flags="0x4"/>
    </TTGlyph>
    <TTGlyph name="Aogonek" xMin="6" yMin="-340" xMax="829" yMax="1374">
      <contour>
        <pt x="639" y="0" on="1"/>
        <pt x="625" y="96" on="0"/>
        <pt x="595" y="284" on="0"/>
        <pt x="580" y="378" on="1"/>
        <pt x="255" y="378" on="1"/>
        <pt x="239" y="284" on="0"/>
        <pt x="210" y="96" on="0"/>
        <pt x="196" y="0" on="1"/>
        <pt x="6" y="0" on="1"/>
        <pt x="38" y="121" on="0"/>
        <pt x="100" y="378" on="0"/>
        <pt x="156" y="633" on="0"/>
        <pt x="207" y="880" on="0"/>
        <pt x="250" y="1105" on="0"/>
        <pt x="286" y="1299" on="0"/>
        <pt x="299" y="1374" on="1"/>
        <pt x="536" y="1374" on="1"/>
        <pt x="549" y="1299" on="0"/>
        <pt x="585" y="1105" on="0"/>
        <pt x="628" y="880" on="0"/>
        <pt x="679" y="633" on="0"/>
        <pt x="735" y="378" on="0"/>
        <pt x="797" y="121" on="0"/>
        <pt x="829" y="0" on="1"/>
        <pt x="785" y="-20" on="0"/>
        <pt x="723" y="-62" on="0"/>
        <pt x="685" y="-107" on="0"/>
        <pt x="668" y="-153" on="0"/>
        <pt x="668" y="-176" on="1"/>
        <pt x="668" y="-213" on="0"/>
        <pt x="710" y="-251" on="0"/>
        <pt x="742" y="-251" on="1"/>
        <pt x="768" y="-251" on="0"/>
        <pt x="815" y="-230" on="0"/>
        <pt x="829" y="-212" on="1"/>
        <pt x="829" y="-322" on="1"/>
        <pt x="809" y="-330" on="0"/>
        <pt x="761" y="-340" on="0"/>
        <pt x="727" y="-340" on="1"/>
        <pt x="698" y="-340" on="0"/>
        <pt x="641" y="-324" on="0"/>
        <pt x="596" y="-289" on="0"/>
        <pt x="569" y="-233" on="0"/>
        <pt x="569" y="-193" on="1"/>
        <pt x="569" y="-144" on="0"/>
        <pt x="631" y="-40" on="0"/>
        <pt x="685" y="0" on="1"/>
      </contour>
      <contour>
        <pt x="410" y="1172" on="1"/>
        <pt x="369" y="1002" on="0"/>
        <pt x="303" y="666" on="0"/>
        <pt x="274" y="495" on="1"/>
        <pt x="560" y="495" on="1"/>
        <pt x="531" y="666" on="0"/>
        <pt x="464" y="1002" on="0"/>
        <pt x="424" y="1172" on="1"/>
      </contour>
    </TTGlyph>
    <TTGlyph name="Aring" xMin="6" yMin="0" xMax="829" yMax="1820">
      <component glyphName="A" x="0" y="0" flags="0x204"/>
      <component glyphName="ring" x="147" y="362" flags="0x4"/>
    </TTGlyph>
    <TTGlyph name="Atilde" xMin="6" yMin="0" xMax="829" yMax="1732">
      <component glyphName="A" x="0" y="0" flags="0x204"/>
      <component glyphName="tilde" x="146" y="362" flags="0x4"/>
    </TTGlyph>
    <TTGlyph name="B" xMin="100" yMin="0" xMax="809" yMax="1374">
      <contour>
        <pt x="408" y="1374" on="1"/>
        <pt x="488" y="1374" on="0"/>
        <pt x="619" y="1335" on="0"/>
        <pt x="713" y="1254" on="0"/>
        <pt x="764" y="1126" on="0"/>
        <pt x="764" y="1038" on="1"/>
        <pt x="764" y="967" on="0"/>
        <pt x="734" y="861" on="0"/>
        <pt x="683" y="787" on="0"/>
        <pt x="617" y="742" on="0"/>
        <pt x="580" y="733" on="1"/>
        <pt x="624" y="725" on="0"/>
        <pt x="707" y="676" on="0"/>
        <pt x="771" y="589" on="0"/>
        <pt x="809" y="463" on="0"/>
        <pt x="809" y="379" on="1"/>
        <pt x="809" y="291" on="0"/>
        <pt x="770" y="151" on="0"/>
        <pt x="685" y="53" on="0"/>
        <pt x="550" y="0" on="0"/>
        <pt x="453" y="0" on="1"/>
        <pt x="100" y="0" on="1"/>
        <pt x="106" y="85" on="0"/>
        <pt x="113" y="264" on="0"/>
        <pt x="117" y="441" on="0"/>
        <pt x="119" y="611" on="0"/>
        <pt x="119" y="688" on="1"/>
        <pt x="119" y="765" on="0"/>
        <pt x="117" y="935" on="0"/>
        <pt x="113" y="1111" on="0"/>
        <pt x="106" y="1289" on="0"/>
        <pt x="100" y="1374" on="1"/>
      </contour>
      <contour>
        <pt x="270" y="670" on="1"/>
        <pt x="270" y="543" on="0"/>
        <pt x="275" y="258" on="0"/>
        <pt x="281" y="115" on="1"/>
        <pt x="444" y="115" on="1"/>
        <pt x="489" y="115" on="0"/>
        <pt x="561" y="144" on="0"/>
        <pt x="611" y="212" on="0"/>
        <pt x="637" y="321" on="0"/>
        <pt x="637" y="401" on="1"/>
        <pt x="637" y="479" on="0"/>
        <pt x="608" y="582" on="0"/>
        <pt x="555" y="644" on="0"/>
        <pt x="481" y="670" on="0"/>
        <pt x="436" y="670" on="1"/>
      </contour>
      <contour>
        <pt x="282" y="1260" on="1"/>
        <pt x="276" y="1139" on="0"/>
        <pt x="271" y="896" on="0"/>
        <pt x="270" y="784" on="1"/>
        <pt x="420" y="784" on="1"/>
        <pt x="469" y="784" on="0"/>
        <pt x="536" y="810" on="0"/>
        <pt x="576" y="865" on="0"/>
        <pt x="594" y="951" on="0"/>
        <pt x="594" y="1010" on="1"/>
        <pt x="594" y="1067" on="0"/>
        <pt x="578" y="1160" on="0"/>
        <pt x="538" y="1225" on="0"/>
        <pt x="471" y="1260" on="0"/>
        <pt x="420" y="1260" on="1"/>
      </contour>
    </TTGlyph>
    <TTGlyph name="C" xMin="68" yMin="-23" xMax="803" yMax="1395">
      <contour>
        <pt x="242" y="686" on="1"/>
        <pt x="242" y="542" on="0"/>
        <pt x="288" y="321" on="0"/>
        <pt x="373" y="171" on="0"/>
        <pt x="492" y="94" on="0"/>
        <pt x="565" y="94" on="1"/>
        <pt x="609" y="94" on="0"/>
        <pt x="677" y="116" on="0"/>
        <pt x="732" y="149" on="0"/>
        <pt x="780" y="190" on="0"/>
        <pt x="803" y="209" on="1"/>
        <pt x="803" y="8" on="1"/>
        <pt x="747" y="-6" on="0"/>
        <pt x="634" y="-23" on="0"/>
        <pt x="565" y="-23" on="1"/>
        <pt x="458" y="-23" on="0"/>
        <pt x="276" y="63" on="0"/>
        <pt x="143" y="238" on="0"/>
        <pt x="68" y="505" on="0"/>
        <pt x="68" y="686" on="1"/>
        <pt x="68" y="867" on="0"/>
        <pt x="147" y="1134" on="0"/>
        <pt x="282" y="1309" on="0"/>
        <pt x="463" y="1395" on="0"/>
        <pt x="565" y="1395" on="1"/>
        <pt x="634" y="1395" on="0"/>
        <pt x="747" y="1378" on="0"/>
        <pt x="803" y="1364" on="1"/>
        <pt x="803" y="1163" on="1"/>
        <pt x="780" y="1182" on="0"/>
        <pt x="732" y="1223" on="0"/>
        <pt x="677" y="1256" on="0"/>
        <pt x="609" y="1278" on="0"/>
        <pt x="565" y="1278" on="1"/>
        <pt x="492" y="1278" on="0"/>
        <pt x="373" y="1201" on="0"/>
        <pt x="288" y="1051" on="0"/>
        <pt x="242" y="830" on="0"/>
      </contour>
    </TTGlyph>
    <TTGlyph name="Cacute" xMin="68" yMin="-23" xMax="804" yMax="1777">
      <component glyphName="C" x="0" y="0" flags="0x204"/>
      <component glyphName="acute" x="261" y="362" flags="0x4"/>
    </TTGlyph>
    <TTGlyph name="Ccaron" xMin="68" yMin="-23" xMax="803" yMax="1777">
      <component glyphName="C" x="0" y="0" flags="0x204"/>
      <component glyphName="caron" x="282" y="362" flags="0x4"/>
    </TTGlyph>
    <TTGlyph name="Ccedilla" xMin="68" yMin="-360" xMax="803" yMax="1395">
      <component glyphName="C" x="0" y="0" flags="0x204"/>
      <component glyphName="cedilla" x="263" y="0" flags="0x4"/>
    </TTGlyph>
    <TTGlyph name="Ccircumflex" xMin="68" yMin="-23" xMax="803" yMax="1777">
      <component glyphName="C" x="0" y="0" flags="0x204"/>
      <component glyphName="circumflex" x="282" y="362" flags="0x4"/>
    </TTGlyph>
    <TTGlyph name="Cdotaccent" xMin="68" yMin="-23" xMax="803" yMax="1692">
      <component glyphName="C" x="0" y="0" flags="0x204"/>
      <component glyphName="dotaccent" x="282" y="362" flags="0x4"/>
    </TTGlyph>
    <TTGlyph name="D" xMin="100" yMin="0" xMax="896" yMax="1374">
      <contour>
        <pt x="413" y="1374" on="1"/>
        <pt x="520" y="1374" on="0"/>
        <pt x="698" y="1308" on="0"/>
        <pt x="825" y="1149" on="0"/>
        <pt x="896" y="885" on="0"/>
        <pt x="896" y="688" on="1"/>
        <pt x="896" y="490" on="0"/>
        <pt x="825" y="225" on="0"/>
        <pt x="697" y="66" on="0"/>
        <pt x="519" y="0" on="0"/>
        <pt x="411" y="0" on="1"/>
        <pt x="100" y="0" on="1"/>
        <pt x="106" y="85" on="0"/>
        <pt x="113" y="264" on="0"/>
        <pt x="117" y="441" on="0"/>
        <pt x="119" y="611" on="0"/>
        <pt x="119" y="688" on="1"/>
        <pt x="119" y="765" on="0"/>
        <pt x="117" y="935" on="0"/>
        <pt x="113" y="1111" on="0"/>
        <pt x="106" y="1289" on="0"/>
        <pt x="100" y="1374" on="1"/>
      </contour>
      <contour>
        <pt x="282" y="1260" on="1"/>
        <pt x="275" y="1112" on="0"/>
        <pt x="270" y="817" on="0"/>
        <pt x="270" y="688" on="1"/>
        <pt x="270" y="559" on="0"/>
        <pt x="274" y="262" on="0"/>
        <pt x="281" y="115" on="1"/>
        <pt x="415" y="115" on="1"/>
        <pt x="458" y="115" on="0"/>
        <pt x="537" y="134" on="0"/>
        <pt x="604" y="182" on="0"/>
        <pt x="660" y="265" on="0"/>
        <pt x="699" y="392" on="0"/>
        <pt x="720" y="569" on="0"/>
        <pt x="720" y="688" on="1"/>
        <pt x="720" y="807" on="0"/>
        <pt x="699" y="984" on="0"/>
        <pt x="660" y="1111" on="0"/>
        <pt x="604" y="1193" on="0"/>
        <pt x="537" y="1241" on="0"/>
        <pt x="458" y="1260" on="0"/>
        <pt x="415" y="1260" on="1"/>
      </contour>
    </TTGlyph>
    <TTGlyph name="Dcaron" xMin="100" yMin="0" xMax="896" yMax="1777">
      <component glyphName="D" x="0" y="0" flags="0x204"/>
      <component glyphName="caron" x="154" y="362" flags="0x4"/>
    </TTGlyph>
    <TTGlyph name="Dcroat" xMin="0" yMin="0" xMax="896" yMax="1374">
      <component glyphName="Eth" x="0" y="0" flags="0x204"/>
    </TTGlyph>
    <TTGlyph name="E" xMin="100" yMin="0" xMax="686" yMax="1374">
      <contour>
        <pt x="680" y="1374" on="1"/>
        <pt x="680" y="1257" on="1"/>
        <pt x="282" y="1257" on="1"/>
        <pt x="276" y="1142" on="0"/>
        <pt x="271" y="913" on="0"/>
        <pt x="270" y="805" on="1"/>
        <pt x="651" y="805" on="1"/>
        <pt x="651" y="688" on="1"/>
        <pt x="270" y="688" on="1"/>
        <pt x="270" y="559" on="0"/>
        <pt x="274" y="264" on="0"/>
        <pt x="281" y="117" on="1"/>
        <pt x="686" y="117" on="1"/>
        <pt x="686" y="0" on="1"/>
        <pt x="100" y="0" on="1"/>
        <pt x="106" y="85" on="0"/>
        <pt x="113" y="264" on="0"/>
        <pt x="117" y="441" on="0"/>
        <pt x="119" y="611" on="0"/>
        <pt x="119" y="688" on="1"/>
        <pt x="119" y="765" on="0"/>
        <pt x="117" y="935" on="0"/>
        <pt x="113" y="1111" on="0"/>
        <pt x="106" y="1289" on="0"/>
        <pt x="100" y="1374" on="1"/>
      </contour>
    </TTGlyph>
    <TTGlyph name="Eacute" xMin="100" yMin="0" xMax="686" yMax="1777">
      <component glyphName="E" x="0" y="0" flags="0x204"/>
      <component glyphName="acute" x="100" y="362" flags="0x4"/>
    </TTGlyph>
    <TTGlyph name="Ebreve" xMin="100" yMin="0" xMax="686" yMax="1733">
      <component glyphName="E" x="0" y="0" flags="0x204"/>
      <component glyphName="breve" x="121" y="362" flags="0x4"/>
    </TTGlyph>
    <TTGlyph name="Ecaron" xMin="100" yMin="0" xMax="686" yMax="1777">
      <component glyphName="E" x="0" y="0" flags="0x204"/>
      <component glyphName="caron" x="121" y="362" flags="0x4"/>
    </TTGlyph>
    <TTGlyph name="Ecircumflex" xMin="100" yMin="0" xMax="686" yMax="1777">
      <component glyphName="E" x="0" y="0" flags="0x204"/>
      <component glyphName="circumflex" x="121" y="362" flags="0x4"/>
    </TTGlyph>
    <TTGlyph name="Edieresis" xMin="100" yMin="0" xMax="686" yMax="1683">
      <component glyphName="E" x="0" y="0" flags="0x204"/>
      <component glyphName="dieresis" x="120" y="362" flags="0x4"/>
    </TTGlyph>
    <TTGlyph name="Edotaccent" xMin="100" yMin="0" xMax="686" yMax="1692">
      <component glyphName="E" x="0" y="0" flags="0x204"/>
      <component glyphName="dotaccent" x="121" y="362" flags="0x4"/>
    </TTGlyph>
    <TTGlyph name="Egrave" xMin="100" yMin="0" xMax="686" yMax="1777">
      <component glyphName="E" x="0" y="0" flags="0x204"/>
      <component glyphName="grave" x="96" y="362" flags="0x4"/>
    </TTGlyph>
    <TTGlyph name="Emacron" xMin="100" yMin="0" xMax="686" yMax="1649">
      <component glyphName="E" x="0" y="0" flags="0x204"/>
      <component glyphName="macron" x="121" y="363" flags="0x4"/>
    </TTGlyph>
    <TTGlyph name="Eng" xMin="100" yMin="-26" xMax="851" yMax="1374">
      <contour>
        <pt x="442" y="121" on="1"/>
        <pt x="452" y="118" on="0"/>
        <pt x="508" y="102" on="0"/>
        <pt x="551" y="102" on="1"/>
        <pt x="586" y="102" on="0"/>
        <pt x="629" y="128" on="0"/>
        <pt x="643" y="163" on="1"/>
        <pt x="597" y="287" on="0"/>
        <pt x="503" y="506" on="0"/>
        <pt x="409" y="711" on="0"/>
        <pt x="317" y="911" on="0"/>
        <pt x="274" y="1016" on="1"/>
        <pt x="267" y="1016" on="1"/>
        <pt x="265" y="929" on="0"/>
        <pt x="266" y="764" on="0"/>
        <pt x="266" y="688" on="1"/>
        <pt x="266" y="611" on="0"/>
        <pt x="268" y="441" on="0"/>
        <pt x="272" y="264" on="0"/>
        <pt x="278" y="85" on="0"/>
        <pt x="283" y="0" on="1"/>
        <pt x="100" y="0" on="1"/>
        <pt x="106" y="85" on="0"/>
        <pt x="113" y="264" on="0"/>
        <pt x="117" y="441" on="0"/>
        <pt x="119" y="611" on="0"/>
        <pt x="119" y="688" on="1"/>
        <pt x="119" y="765" on="0"/>
        <pt x="117" y="935" on="0"/>
        <pt x="113" y="1111" on="0"/>
        <pt x="106" y="1289" on="0"/>
        <pt x="100" y="1374" on="1"/>
        <pt x="287" y="1374" on="1"/>
        <pt x="335" y="1234" on="0"/>
        <pt x="435" y="984" on="0"/>
        <pt x="535" y="751" on="0"/>
        <pt x="633" y="530" on="0"/>
        <pt x="680" y="419" on="1"/>
        <pt x="682" y="480" on="0"/>
        <pt x="681" y="635" on="0"/>
        <pt x="681" y="730" on="1"/>
        <pt x="681" y="882" on="0"/>
        <pt x="674" y="1210" on="0"/>
        <pt x="663" y="1374" on="1"/>
        <pt x="851" y="1374" on="1"/>
        <pt x="846" y="1292" on="0"/>
        <pt x="840" y="1134" on="0"/>
        <pt x="835" y="990" on="0"/>
        <pt x="833" y="865" on="0"/>
        <pt x="833" y="815" on="1"/>
        <pt x="833" y="759" on="0"/>
        <pt x="834" y="639" on="0"/>
        <pt x="834" y="531" on="0"/>
        <pt x="835" y="446" on="0"/>
        <pt x="835" y="425" on="1"/>
        <pt x="835" y="318" on="0"/>
        <pt x="810" y="150" on="0"/>
        <pt x="743" y="34" on="0"/>
        <pt x="626" y="-26" on="0"/>
        <pt x="535" y="-26" on="1"/>
        <pt x="506" y="-26" on="0"/>
        <pt x="451" y="-18" on="0"/>
        <pt x="442" y="-16" on="1"/>
      </contour>
    </TTGlyph>
    <TTGlyph name="Eogonek" xMin="100" yMin="-340" xMax="686" yMax="1374">
      <contour>
        <pt x="680" y="1374" on="1"/>
        <pt x="680" y="1257" on="1"/>
        <pt x="282" y="1257" on="1"/>
        <pt x="276" y="1142" on="0"/>
        <pt x="271" y="913" on="0"/>
        <pt x="270" y="805" on="1"/>
        <pt x="651" y="805" on="1"/>
        <pt x="651" y="688" on="1"/>
        <pt x="270" y="688" on="1"/>
        <pt x="270" y="559" on="0"/>
        <pt x="274" y="264" on="0"/>
        <pt x="281" y="117" on="1"/>
        <pt x="686" y="117" on="1"/>
        <pt x="686" y="0" on="1"/>
        <pt x="600" y="-33" on="0"/>
        <pt x="525" y="-130" on="0"/>
        <pt x="525" y="-176" on="1"/>
        <pt x="525" y="-213" on="0"/>
        <pt x="567" y="-251" on="0"/>
        <pt x="599" y="-251" on="1"/>
        <pt x="625" y="-251" on="0"/>
        <pt x="672" y="-230" on="0"/>
        <pt x="686" y="-212" on="1"/>
        <pt x="686" y="-322" on="1"/>
        <pt x="666" y="-330" on="0"/>
        <pt x="618" y="-340" on="0"/>
        <pt x="584" y="-340" on="1"/>
        <pt x="555" y="-340" on="0"/>
        <pt x="498" y="-324" on="0"/>
        <pt x="453" y="-289" on="0"/>
        <pt x="426" y="-233" on="0"/>
        <pt x="426" y="-193" on="1"/>
        <pt x="426" y="-169" on="0"/>
        <pt x="441" y="-117" on="0"/>
        <pt x="471" y="-66" on="0"/>
        <pt x="514" y="-19" on="0"/>
        <pt x="542" y="0" on="1"/>
        <pt x="100" y="0" on="1"/>
        <pt x="106" y="85" on="0"/>
        <pt x="113" y="264" on="0"/>
        <pt x="117" y="441" on="0"/>
        <pt x="119" y="611" on="0"/>
        <pt x="119" y="688" on="1"/>
        <pt x="119" y="765" on="0"/>
        <pt x="117" y="935" on="0"/>
        <pt x="113" y="1111" on="0"/>
        <pt x="106" y="1289" on="0"/>
        <pt x="100" y="1374" on="1"/>
      </contour>
    </TTGlyph>
    <TTGlyph name="Eth" xMin="0" yMin="0" xMax="896" yMax="1374">
      <contour>
        <pt x="100" y="0" on="1"/>
        <pt x="105" y="79" on="0"/>
        <pt x="112" y="243" on="0"/>
        <pt x="117" y="407" on="0"/>
        <pt x="119" y="566" on="0"/>
        <pt x="119" y="640" on="1"/>
        <pt x="0" y="640" on="1"/>
        <pt x="0" y="763" on="1"/>
        <pt x="119" y="763" on="1"/>
        <pt x="119" y="834" on="0"/>
        <pt x="116" y="987" on="0"/>
        <pt x="112" y="1143" on="0"/>
        <pt x="105" y="1299" on="0"/>
        <pt x="100" y="1374" on="1"/>
        <pt x="413" y="1374" on="1"/>
        <pt x="520" y="1374" on="0"/>
        <pt x="698" y="1308" on="0"/>
        <pt x="825" y="1149" on="0"/>
        <pt x="896" y="885" on="0"/>
        <pt x="896" y="688" on="1"/>
        <pt x="896" y="490" on="0"/>
        <pt x="825" y="225" on="0"/>
        <pt x="697" y="66" on="0"/>
        <pt x="519" y="0" on="0"/>
        <pt x="411" y="0" on="1"/>
      </contour>
      <contour>
        <pt x="270" y="640" on="1"/>
        <pt x="270" y="519" on="0"/>
        <pt x="275" y="249" on="0"/>
        <pt x="281" y="115" on="1"/>
        <pt x="415" y="115" on="1"/>
        <pt x="458" y="115" on="0"/>
        <pt x="537" y="134" on="0"/>
        <pt x="604" y="182" on="0"/>
        <pt x="660" y="265" on="0"/>
        <pt x="699" y="392" on="0"/>
        <pt x="720" y="569" on="0"/>
        <pt x="720" y="688" on="1"/>
        <pt x="720" y="807" on="0"/>
        <pt x="699" y="984" on="0"/>
        <pt x="660" y="1111" on="0"/>
        <pt x="604" y="1193" on="0"/>
        <pt x="537" y="1241" on="0"/>
        <pt x="458" y="1260" on="0"/>
        <pt x="415" y="1260" on="1"/>
        <pt x="282" y="1260" on="1"/>
        <pt x="276" y="1133" on="0"/>
        <pt x="271" y="879" on="0"/>
        <pt x="270" y="763" on="1"/>
        <pt x="447" y="763" on="1"/>
        <pt x="447" y="640" on="1"/>
      </contour>
    </TTGlyph>
    <TTGlyph name="Euro" xMin="30" yMin="-23" xMax="782" yMax="1395">
      <contour>
        <pt x="313" y="641" on="1"/>
        <pt x="526" y="641" on="1"/>
        <pt x="505" y="539" on="1"/>
        <pt x="319" y="539" on="1"/>
        <pt x="328" y="431" on="0"/>
        <pt x="373" y="264" on="0"/>
        <pt x="439" y="152" on="0"/>
        <pt x="524" y="94" on="0"/>
        <pt x="574" y="94" on="1"/>
        <pt x="612" y="94" on="0"/>
        <pt x="672" y="116" on="0"/>
        <pt x="720" y="149" on="0"/>
        <pt x="762" y="190" on="0"/>
        <pt x="782" y="209" on="1"/>
        <pt x="782" y="8" on="1"/>
        <pt x="733" y="-6" on="0"/>
        <pt x="634" y="-23" on="0"/>
        <pt x="574" y="-23" on="1"/>
        <pt x="490" y="-23" on="0"/>
        <pt x="346" y="45" on="0"/>
        <pt x="235" y="184" on="0"/>
        <pt x="162" y="396" on="0"/>
        <pt x="149" y="539" on="1"/>
        <pt x="30" y="539" on="1"/>
        <pt x="53" y="641" on="1"/>
        <pt x="144" y="641" on="1"/>
        <pt x="143" y="652" on="0"/>
        <pt x="143" y="674" on="0"/>
        <pt x="143" y="686" on="1"/>
        <pt x="143" y="704" on="0"/>
        <pt x="143" y="740" on="0"/>
        <pt x="144" y="758" on="1"/>
        <pt x="30" y="758" on="1"/>
        <pt x="53" y="860" on="1"/>
        <pt x="152" y="860" on="1"/>
        <pt x="167" y="996" on="0"/>
        <pt x="245" y="1197" on="0"/>
        <pt x="356" y="1330" on="0"/>
        <pt x="496" y="1395" on="0"/>
        <pt x="574" y="1395" on="1"/>
        <pt x="634" y="1395" on="0"/>
        <pt x="733" y="1378" on="0"/>
        <pt x="782" y="1364" on="1"/>
        <pt x="782" y="1163" on="1"/>
        <pt x="762" y="1182" on="0"/>
        <pt x="720" y="1223" on="0"/>
        <pt x="672" y="1256" on="0"/>
        <pt x="612" y="1278" on="0"/>
        <pt x="574" y="1278" on="1"/>
        <pt x="478" y="1278" on="0"/>
        <pt x="343" y="1065" on="0"/>
        <pt x="321" y="860" on="1"/>
        <pt x="579" y="860" on="1"/>
        <pt x="557" y="758" on="1"/>
        <pt x="314" y="758" on="1"/>
        <pt x="313" y="740" on="0"/>
        <pt x="313" y="705" on="0"/>
        <pt x="313" y="686" on="1"/>
      </contour>
    </TTGlyph>
    <TTGlyph name="F" xMin="100" yMin="0" xMax="659" yMax="1374">
      <contour>
        <pt x="659" y="1374" on="1"/>
        <pt x="659" y="1257" on="1"/>
        <pt x="282" y="1257" on="1"/>
        <pt x="276" y="1139" on="0"/>
        <pt x="271" y="901" on="0"/>
        <pt x="270" y="791" on="1"/>
        <pt x="631" y="791" on="1"/>
        <pt x="631" y="674" on="1"/>
        <pt x="270" y="674" on="1"/>
        <pt x="270" y="598" on="0"/>
        <pt x="272" y="431" on="0"/>
        <pt x="276" y="258" on="0"/>
        <pt x="282" y="83" on="0"/>
        <pt x="287" y="0" on="1"/>
        <pt x="100" y="0" on="1"/>
        <pt x="106" y="85" on="0"/>
        <pt x="113" y="264" on="0"/>
        <pt x="117" y="441" on="0"/>
        <pt x="119" y="611" on="0"/>
        <pt x="119" y="688" on="1"/>
        <pt x="119" y="765" on="0"/>
        <pt x="117" y="935" on="0"/>
        <pt x="113" y="1111" on="0"/>
        <pt x="106" y="1289" on="0"/>
        <pt x="100" y="1374" on="1"/>
      </contour>
    </TTGlyph>
    <TTGlyph name="G" xMin="68" yMin="-23" xMax="858" yMax="1395">
      <contour>
        <pt x="494" y="676" on="1"/>
        <pt x="858" y="676" on="1"/>
        <pt x="854" y="594" on="0"/>
        <pt x="851" y="436" on="0"/>
        <pt x="851" y="364" on="1"/>
        <pt x="851" y="292" on="0"/>
        <pt x="852" y="173" on="0"/>
        <pt x="854" y="130" on="1"/>
        <pt x="856" y="79" on="0"/>
        <pt x="858" y="39" on="1"/>
        <pt x="807" y="13" on="0"/>
        <pt x="661" y="-23" on="0"/>
        <pt x="557" y="-23" on="1"/>
        <pt x="453" y="-23" on="0"/>
        <pt x="275" y="63" on="0"/>
        <pt x="143" y="238" on="0"/>
        <pt x="68" y="505" on="0"/>
        <pt x="68" y="686" on="1"/>
        <pt x="68" y="867" on="0"/>
        <pt x="147" y="1134" on="0"/>
        <pt x="283" y="1309" on="0"/>
        <pt x="464" y="1395" on="0"/>
        <pt x="566" y="1395" on="1"/>
        <pt x="608" y="1395" on="0"/>
        <pt x="676" y="1388" on="0"/>
        <pt x="735" y="1376" on="0"/>
        <pt x="787" y="1358" on="0"/>
        <pt x="812" y="1348" on="1"/>
        <pt x="812" y="1146" on="1"/>
        <pt x="747" y="1219" on="0"/>
        <pt x="632" y="1278" on="0"/>
        <pt x="565" y="1278" on="1"/>
        <pt x="488" y="1278" on="0"/>
        <pt x="368" y="1193" on="0"/>
        <pt x="285" y="1037" on="0"/>
        <pt x="242" y="820" on="0"/>
        <pt x="242" y="688" on="1"/>
        <pt x="242" y="560" on="0"/>
        <pt x="282" y="343" on="0"/>
        <pt x="362" y="184" on="0"/>
        <pt x="483" y="94" on="0"/>
        <pt x="564" y="94" on="1"/>
        <pt x="599" y="94" on="0"/>
        <pt x="652" y="105" on="0"/>
        <pt x="678" y="119" on="1"/>
        <pt x="679" y="141" on="0"/>
        <pt x="680" y="170" on="1"/>
        <pt x="681" y="195" on="0"/>
        <pt x="683" y="266" on="0"/>
        <pt x="683" y="313" on="1"/>
        <pt x="683" y="364" on="0"/>
        <pt x="680" y="488" on="0"/>
        <pt x="676" y="560" on="1"/>
        <pt x="494" y="560" on="1"/>
      </contour>
    </TTGlyph>
    <TTGlyph name="Gbreve" xMin="68" yMin="-23" xMax="858" yMax="1733">
      <component glyphName="G" x="0" y="0" flags="0x204"/>
      <component glyphName="breve" x="295" y="362" flags="0x4"/>
    </TTGlyph>
    <TTGlyph name="Gcircumflex" xMin="68" yMin="-23" xMax="858" yMax="1777">
      <component glyphName="G" x="0" y="0" flags="0x204"/>
      <component glyphName="circumflex" x="295" y="362" flags="0x4"/>
    </TTGlyph>
    <TTGlyph name="Gcommaaccent" xMin="68" yMin="-397" xMax="858" yMax="1395">
      <component glyphName="G" x="0" y="0" flags="0x204"/>
      <component glyphName="commaaccent" x="282" y="0" flags="0x4"/>
    </TTGlyph>
    <TTGlyph name="Gdotaccent" xMin="68" yMin="-23" xMax="858" yMax="1692">
      <component glyphName="G" x="0" y="0" flags="0x204"/>
      <component glyphName="dotaccent" x="295" y="362" flags="0x4"/>
    </TTGlyph>
    <TTGlyph name="H" xMin="100" yMin="0" xMax="852" yMax="1374">
      <contour>
        <pt x="852" y="1374" on="1"/>
        <pt x="847" y="1289" on="0"/>
        <pt x="840" y="1111" on="0"/>
        <pt x="836" y="935" on="0"/>
        <pt x="834" y="765" on="0"/>
        <pt x="834" y="688" on="1"/>
        <pt x="834" y="611" on="0"/>
        <pt x="836" y="441" on="0"/>
        <pt x="839" y="264" on="0"/>
        <pt x="845" y="85" on="0"/>
        <pt x="850" y="0" on="1"/>
        <pt x="664" y="0" on="1"/>
        <pt x="669" y="85" on="0"/>
        <pt x="676" y="264" on="0"/>
        <pt x="680" y="441" on="0"/>
        <pt x="682" y="611" on="0"/>
        <pt x="682" y="688" on="1"/>
        <pt x="270" y="688" on="1"/>
        <pt x="270" y="611" on="0"/>
        <pt x="272" y="441" on="0"/>
        <pt x="276" y="264" on="0"/>
        <pt x="282" y="85" on="0"/>
        <pt x="287" y="0" on="1"/>
        <pt x="100" y="0" on="1"/>
        <pt x="106" y="85" on="0"/>
        <pt x="113" y="264" on="0"/>
        <pt x="117" y="441" on="0"/>
        <pt x="119" y="611" on="0"/>
        <pt x="119" y="688" on="1"/>
        <pt x="119" y="765" on="0"/>
        <pt x="117" y="935" on="0"/>
        <pt x="113" y="1111" on="0"/>
        <pt x="106" y="1289" on="0"/>
        <pt x="100" y="1374" on="1"/>
        <pt x="289" y="1374" on="1"/>
        <pt x="279" y="1234" on="0"/>
        <pt x="272" y="941" on="0"/>
        <pt x="270" y="805" on="1"/>
        <pt x="681" y="805" on="1"/>
        <pt x="680" y="941" on="0"/>
        <pt x="672" y="1234" on="0"/>
        <pt x="664" y="1374" on="1"/>
      </contour>
    </TTGlyph>
    <TTGlyph name="Hbar" xMin="12" yMin="0" xMax="941" yMax="1374">
      <contour>
        <pt x="836" y="958" on="1"/>
        <pt x="835" y="886" on="0"/>
        <pt x="834" y="751" on="0"/>
        <pt x="834" y="688" on="1"/>
        <pt x="834" y="611" on="0"/>
        <pt x="836" y="441" on="0"/>
        <pt x="839" y="264" on="0"/>
        <pt x="845" y="85" on="0"/>
        <pt x="850" y="0" on="1"/>
        <pt x="664" y="0" on="1"/>
        <pt x="669" y="85" on="0"/>
        <pt x="676" y="264" on="0"/>
        <pt x="680" y="441" on="0"/>
        <pt x="682" y="611" on="0"/>
        <pt x="682" y="688" on="1"/>
        <pt x="270" y="688" on="1"/>
        <pt x="270" y="611" on="0"/>
        <pt x="272" y="441" on="0"/>
        <pt x="276" y="264" on="0"/>
        <pt x="282" y="85" on="0"/>
        <pt x="287" y="0" on="1"/>
        <pt x="100" y="0" on="1"/>
        <pt x="106" y="85" on="0"/>
        <pt x="113" y="264" on="0"/>
        <pt x="117" y="441" on="0"/>
        <pt x="119" y="611" on="0"/>
        <pt x="119" y="688" on="1"/>
        <pt x="119" y="815" on="0"/>
        <pt x="116" y="958" on="1"/>
        <pt x="12" y="958" on="1"/>
        <pt x="12" y="1075" on="1"/>
        <pt x="113" y="1075" on="1"/>
        <pt x="111" y="1150" on="0"/>
        <pt x="105" y="1301" on="0"/>
        <pt x="100" y="1374" on="1"/>
        <pt x="289" y="1374" on="1"/>
        <pt x="284" y="1301" on="0"/>
        <pt x="277" y="1150" on="0"/>
        <pt x="275" y="1075" on="1"/>
        <pt x="677" y="1075" on="1"/>
        <pt x="675" y="1150" on="0"/>
        <pt x="668" y="1301" on="0"/>
        <pt x="664" y="1374" on="1"/>
        <pt x="852" y="1374" on="1"/>
        <pt x="847" y="1301" on="0"/>
        <pt x="841" y="1150" on="0"/>
        <pt x="839" y="1075" on="1"/>
        <pt x="941" y="1075" on="1"/>
        <pt x="941" y="958" on="1"/>
      </contour>
      <contour>
        <pt x="679" y="958" on="1"/>
        <pt x="272" y="958" on="1"/>
        <pt x="271" y="919" on="0"/>
        <pt x="270" y="842" on="0"/>
        <pt x="270" y="805" on="1"/>
        <pt x="681" y="805" on="1"/>
      </contour>
    </TTGlyph>
    <TTGlyph name="Hcircumflex" xMin="100" yMin="0" xMax="852" yMax="1777">
      <component glyphName="H" x="0" y="0" flags="0x204"/>
      <component glyphName="circumflex" x="208" y="362" flags="0x4"/>
    </TTGlyph>
    <TTGlyph name="I" xMin="106" yMin="0" xMax="295" yMax="1374">
      <contour>
        <pt x="295" y="1374" on="1"/>
        <pt x="289" y="1289" on="0"/>
        <pt x="282" y="1111" on="0"/>
        <pt x="278" y="935" on="0"/>
        <pt x="276" y="765" on="0"/>
        <pt x="276" y="688" on="1"/>
        <pt x="276" y="611" on="0"/>
        <pt x="278" y="441" on="0"/>
        <pt x="282" y="264" on="0"/>
        <pt x="288" y="85" on="0"/>
        <pt x="293" y="0" on="1"/>
        <pt x="106" y="0" on="1"/>
        <pt x="112" y="85" on="0"/>
        <pt x="119" y="264" on="0"/>
        <pt x="123" y="441" on="0"/>
        <pt x="125" y="611" on="0"/>
        <pt x="125" y="688" on="1"/>
        <pt x="125" y="765" on="0"/>
        <pt x="123" y="935" on="0"/>
        <pt x="119" y="1111" on="0"/>
        <pt x="112" y="1289" on="0"/>
        <pt x="106" y="1374" on="1"/>
      </contour>
    </TTGlyph>
    <TTGlyph name="IJ" xMin="106" yMin="-26" xMax="880" yMax="1374">
      <component glyphName="I" x="0" y="0" flags="0x4"/>
      <component glyphName="J" x="401" y="0" flags="0x4"/>
    </TTGlyph>
    <TTGlyph name="Iacute" xMin="106" yMin="0" xMax="455" yMax="1777">
      <component glyphName="I" x="0" y="0" flags="0x204"/>
      <component glyphName="acute" x="-88" y="362" flags="0x4"/>
    </TTGlyph>
    <TTGlyph name="Ibreve" xMin="4" yMin="0" xMax="401" yMax="1733">
      <component glyphName="I" x="0" y="0" flags="0x204"/>
      <component glyphName="breve" x="-67" y="362" flags="0x4"/>
    </TTGlyph>
    <TTGlyph name="Icircumflex" xMin="5" yMin="0" xMax="402" yMax="1777">
      <component glyphName="I" x="0" y="0" flags="0x204"/>
      <component glyphName="circumflex" x="-67" y="362" flags="0x4"/>
    </TTGlyph>
    <TTGlyph name="Idieresis" xMin="3" yMin="0" xMax="402" yMax="1683">
      <component glyphName="I" x="0" y="0" flags="0x204"/>
      <component glyphName="dieresis" x="-68" y="362" flags="0x4"/>
    </TTGlyph>
    <TTGlyph name="Idotaccent" xMin="106" yMin="0" xMax="295" yMax="1692">
      <component glyphName="I" x="0" y="0" flags="0x204"/>
      <component glyphName="dotaccent" x="-67" y="362" flags="0x4"/>
    </TTGlyph>
    <TTGlyph name="Igrave" xMin="-53" yMin="0" xMax="295" yMax="1777">
      <component glyphName="I" x="0" y="0" flags="0x204"/>
      <component glyphName="grave" x="-92" y="362" flags="0x4"/>
    </TTGlyph>
    <TTGlyph name="Imacron" xMin="33" yMin="0" xMax="374" yMax="1649">
      <component glyphName="I" x="0" y="0" flags="0x204"/>
      <component glyphName="macron" x="-67" y="363" flags="0x4"/>
    </TTGlyph>
    <TTGlyph name="Iogonek" xMin="65" yMin="-340" xMax="325" yMax="1374">
      <contour>
        <pt x="295" y="1374" on="1"/>
        <pt x="289" y="1289" on="0"/>
        <pt x="282" y="1111" on="0"/>
        <pt x="278" y="935" on="0"/>
        <pt x="276" y="765" on="0"/>
        <pt x="276" y="688" on="1"/>
        <pt x="276" y="611" on="0"/>
        <pt x="278" y="441" on="0"/>
        <pt x="282" y="264" on="0"/>
        <pt x="288" y="85" on="0"/>
        <pt x="293" y="0" on="1"/>
        <pt x="246" y="0" on="1"/>
        <pt x="231" y="-20" on="0"/>
        <pt x="202" y="-62" on="0"/>
        <pt x="179" y="-107" on="0"/>
        <pt x="164" y="-153" on="0"/>
        <pt x="164" y="-176" on="1"/>
        <pt x="164" y="-213" on="0"/>
        <pt x="206" y="-251" on="0"/>
        <pt x="238" y="-251" on="1"/>
        <pt x="264" y="-251" on="0"/>
        <pt x="311" y="-230" on="0"/>
        <pt x="325" y="-212" on="1"/>
        <pt x="325" y="-322" on="1"/>
        <pt x="305" y="-330" on="0"/>
        <pt x="257" y="-340" on="0"/>
        <pt x="223" y="-340" on="1"/>
        <pt x="194" y="-340" on="0"/>
        <pt x="137" y="-324" on="0"/>
        <pt x="92" y="-289" on="0"/>
        <pt x="65" y="-233" on="0"/>
        <pt x="65" y="-193" on="1"/>
        <pt x="65" y="-144" on="0"/>
        <pt x="121" y="-44" on="0"/>
        <pt x="161" y="0" on="1"/>
        <pt x="106" y="0" on="1"/>
        <pt x="112" y="85" on="0"/>
        <pt x="119" y="264" on="0"/>
        <pt x="123" y="441" on="0"/>
        <pt x="125" y="611" on="0"/>
        <pt x="125" y="688" on="1"/>
        <pt x="125" y="765" on="0"/>
        <pt x="123" y="935" on="0"/>
        <pt x="119" y="1111" on="0"/>
        <pt x="112" y="1289" on="0"/>
        <pt x="106" y="1374" on="1"/>
      </contour>
    </TTGlyph>
    <TTGlyph name="Itilde" xMin="3" yMin="0" xMax="402" yMax="1732">
      <component glyphName="I" x="0" y="0" flags="0x204"/>
      <component glyphName="tilde" x="-68" y="362" flags="0x4"/>
    </TTGlyph>
    <TTGlyph name="J" xMin="20" yMin="-26" xMax="479" yMax="1374">
      <contour>
        <pt x="20" y="121" on="1"/>
        <pt x="30" y="118" on="0"/>
        <pt x="86" y="102" on="0"/>
        <pt x="129" y="102" on="1"/>
        <pt x="160" y="102" on="0"/>
        <pt x="216" y="120" on="0"/>
        <pt x="260" y="168" on="0"/>
        <pt x="292" y="252" on="0"/>
        <pt x="300" y="318" on="1"/>
        <pt x="308" y="382" on="0"/>
        <pt x="309" y="590" on="0"/>
        <pt x="309" y="730" on="1"/>
        <pt x="309" y="882" on="0"/>
        <pt x="302" y="1210" on="0"/>
        <pt x="291" y="1374" on="1"/>
        <pt x="479" y="1374" on="1"/>
        <pt x="474" y="1292" on="0"/>
        <pt x="468" y="1134" on="0"/>
        <pt x="463" y="990" on="0"/>
        <pt x="461" y="865" on="0"/>
        <pt x="461" y="815" on="1"/>
        <pt x="461" y="759" on="0"/>
        <pt x="462" y="639" on="0"/>
        <pt x="464" y="531" on="0"/>
        <pt x="465" y="446" on="0"/>
        <pt x="465" y="425" on="1"/>
        <pt x="465" y="318" on="0"/>
        <pt x="423" y="150" on="0"/>
        <pt x="337" y="34" on="0"/>
        <pt x="204" y="-26" on="0"/>
        <pt x="113" y="-26" on="1"/>
        <pt x="84" y="-26" on="0"/>
        <pt x="29" y="-18" on="0"/>
        <pt x="20" y="-16" on="1"/>
      </contour>
    </TTGlyph>
    <TTGlyph name="Jcircumflex" xMin="20" yMin="-26" xMax="586" yMax="1777">
      <component glyphName="J" x="0" y="0" flags="0x204"/>
      <component glyphName="circumflex" x="117" y="362" flags="0x4"/>
    </TTGlyph>
    <TTGlyph name="K" xMin="100" yMin="0" xMax="854" yMax="1374">
      <contour>
        <pt x="289" y="1374" on="1"/>
        <pt x="280" y="1235" on="0"/>
        <pt x="272" y="945" on="0"/>
        <pt x="270" y="810" on="1"/>
        <pt x="306" y="863" on="0"/>
        <pt x="384" y="991" on="0"/>
        <pt x="467" y="1135" on="0"/>
        <pt x="551" y="1292" on="0"/>
        <pt x="592" y="1374" on="1"/>
        <pt x="800" y="1374" on="1"/>
        <pt x="756" y="1314" on="0"/>
        <pt x="654" y="1168" on="0"/>
        <pt x="550" y="1014" on="0"/>
        <pt x="448" y="858" on="0"/>
        <pt x="403" y="789" on="1"/>
        <pt x="445" y="691" on="0"/>
        <pt x="541" y="492" on="0"/>
        <pt x="652" y="294" on="0"/>
        <pt x="780" y="97" on="0"/>
        <pt x="854" y="0" on="1"/>
        <pt x="643" y="0" on="1"/>
        <pt x="618" y="38" on="0"/>
        <pt x="560" y="139" on="0"/>
        <pt x="499" y="254" on="0"/>
        <pt x="437" y="378" on="0"/>
        <pt x="378" y="499" on="0"/>
        <pt x="326" y="612" on="0"/>
        <pt x="305" y="659" on="1"/>
        <pt x="270" y="600" on="1"/>
        <pt x="270" y="531" on="0"/>
        <pt x="273" y="380" on="0"/>
        <pt x="277" y="224" on="0"/>
        <pt x="283" y="70" on="0"/>
        <pt x="287" y="0" on="1"/>
        <pt x="100" y="0" on="1"/>
        <pt x="106" y="85" on="0"/>
        <pt x="113" y="264" on="0"/>
        <pt x="117" y="441" on="0"/>
        <pt x="119" y="611" on="0"/>
        <pt x="119" y="688" on="1"/>
        <pt x="119" y="765" on="0"/>
        <pt x="117" y="935" on="0"/>
        <pt x="113" y="1111" on="0"/>
        <pt x="106" y="1289" on="0"/>
        <pt x="100" y="1374" on="1"/>
      </contour>
    </TTGlyph>
    <TTGlyph name="Kcommaaccent" xMin="100" yMin="-397" xMax="854" yMax="1374">
      <component glyphName="K" x="0" y="0" flags="0x204"/>
      <component glyphName="commaaccent" x="176" y="0" flags="0x4"/>
    </TTGlyph>
    <TTGlyph name="L" xMin="100" yMin="0" xMax="686" yMax="1374">
      <contour>
        <pt x="289" y="1374" on="1"/>
        <pt x="283" y="1289" on="0"/>
        <pt x="276" y="1111" on="0"/>
        <pt x="272" y="935" on="0"/>
        <pt x="270" y="765" on="0"/>
        <pt x="270" y="688" on="1"/>
        <pt x="270" y="559" on="0"/>
        <pt x="274" y="264" on="0"/>
        <pt x="281" y="117" on="1"/>
        <pt x="686" y="117" on="1"/>
        <pt x="686" y="0" on="1"/>
        <pt x="100" y="0" on="1"/>
        <pt x="106" y="85" on="0"/>
        <pt x="113" y="264" on="0"/>
        <pt x="117" y="441" on="0"/>
        <pt x="119" y="611" on="0"/>
        <pt x="119" y="688" on="1"/>
        <pt x="119" y="765" on="0"/>
        <pt x="117" y="935" on="0"/>
        <pt x="113" y="1111" on="0"/>
        <pt x="106" y="1289" on="0"/>
        <pt x="100" y="1374" on="1"/>
      </contour>
    </TTGlyph>
    <TTGlyph name="Lacute" xMin="100" yMin="0" xMax="686" yMax="1777">
      <component glyphName="L" x="0" y="0" flags="0x204"/>
      <component glyphName="acute" x="-96" y="362" flags="0x4"/>
    </TTGlyph>
    <TTGlyph name="Lcaron" xMin="100" yMin="0" xMax="686" yMax="1399">
      <component glyphName="L" x="0" y="0" flags="0x204"/>
      <component glyphName="quoteright" x="405" y="0" flags="0x4"/>
    </TTGlyph>
    <TTGlyph name="Lcommaaccent" xMin="100" yMin="-397" xMax="686" yMax="1374">
      <component glyphName="L" x="0" y="0" flags="0x204"/>
      <component glyphName="commaaccent" x="107" y="0" flags="0x4"/>
    </TTGlyph>
    <TTGlyph name="Ldot" xMin="100" yMin="0" xMax="686" yMax="1374">
      <component glyphName="L" x="0" y="0" flags="0x204"/>
      <component glyphName="periodcentered" x="388" y="0" flags="0x4"/>
    </TTGlyph>
    <TTGlyph name="Lslash" xMin="-21" yMin="0" xMax="686" yMax="1374">
      <contour>
        <pt x="289" y="1374" on="1"/>
        <pt x="279" y="1224" on="0"/>
        <pt x="271" y="910" on="0"/>
        <pt x="270" y="767" on="1"/>
        <pt x="420" y="827" on="1"/>
        <pt x="463" y="721" on="1"/>
        <pt x="270" y="644" on="1"/>
        <pt x="270" y="522" on="0"/>
        <pt x="274" y="252" on="0"/>
        <pt x="281" y="117" on="1"/>
        <pt x="686" y="117" on="1"/>
        <pt x="686" y="0" on="1"/>
        <pt x="100" y="0" on="1"/>
        <pt x="109" y="143" on="0"/>
        <pt x="117" y="445" on="0"/>
        <pt x="119" y="583" on="1"/>
        <pt x="22" y="545" on="1"/>
        <pt x="-21" y="651" on="1"/>
        <pt x="119" y="707" on="1"/>
        <pt x="119" y="782" on="0"/>
        <pt x="117" y="948" on="0"/>
        <pt x="112" y="1119" on="0"/>
        <pt x="105" y="1291" on="0"/>
        <pt x="100" y="1374" on="1"/>
      </contour>
    </TTGlyph>
    <TTGlyph name="M" xMin="100" yMin="0" xMax="1089" yMax="1374">
      <contour>
        <pt x="524" y="0" on="1"/>
        <pt x="500" y="124" on="0"/>
        <pt x="447" y="396" on="0"/>
        <pt x="386" y="676" on="0"/>
        <pt x="317" y="956" on="0"/>
        <pt x="278" y="1088" on="1"/>
        <pt x="268" y="1088" on="1"/>
        <pt x="266" y="1045" on="0"/>
        <pt x="265" y="937" on="0"/>
        <pt x="265" y="828" on="0"/>
        <pt x="266" y="726" on="0"/>
        <pt x="266" y="688" on="1"/>
        <pt x="266" y="611" on="0"/>
        <pt x="268" y="441" on="0"/>
        <pt x="272" y="264" on="0"/>
        <pt x="278" y="85" on="0"/>
        <pt x="283" y="0" on="1"/>
        <pt x="100" y="0" on="1"/>
        <pt x="106" y="85" on="0"/>
        <pt x="113" y="264" on="0"/>
        <pt x="117" y="441" on="0"/>
        <pt x="119" y="611" on="0"/>
        <pt x="119" y="688" on="1"/>
        <pt x="119" y="765" on="0"/>
        <pt x="117" y="935" on="0"/>
        <pt x="113" y="1111" on="0"/>
        <pt x="106" y="1289" on="0"/>
        <pt x="100" y="1374" on="1"/>
        <pt x="337" y="1374" on="1"/>
        <pt x="396" y="1089" on="0"/>
        <pt x="517" y="568" on="0"/>
        <pt x="588" y="335" on="1"/>
        <pt x="601" y="335" on="1"/>
        <pt x="672" y="568" on="0"/>
        <pt x="793" y="1089" on="0"/>
        <pt x="852" y="1374" on="1"/>
        <pt x="1089" y="1374" on="1"/>
        <pt x="1083" y="1289" on="0"/>
        <pt x="1076" y="1111" on="0"/>
        <pt x="1072" y="935" on="0"/>
        <pt x="1070" y="765" on="0"/>
        <pt x="1070" y="688" on="1"/>
        <pt x="1070" y="611" on="0"/>
        <pt x="1072" y="441" on="0"/>
        <pt x="1076" y="264" on="0"/>
        <pt x="1083" y="85" on="0"/>
        <pt x="1089" y="0" on="1"/>
        <pt x="906" y="0" on="1"/>
        <pt x="911" y="85" on="0"/>
        <pt x="917" y="264" on="0"/>
        <pt x="921" y="441" on="0"/>
        <pt x="923" y="611" on="0"/>
        <pt x="923" y="688" on="1"/>
        <pt x="923" y="726" on="0"/>
        <pt x="923" y="828" on="0"/>
        <pt x="923" y="937" on="0"/>
        <pt x="922" y="1045" on="0"/>
        <pt x="921" y="1088" on="1"/>
        <pt x="911" y="1088" on="1"/>
        <pt x="872" y="956" on="0"/>
        <pt x="803" y="676" on="0"/>
        <pt x="742" y="396" on="0"/>
        <pt x="689" y="124" on="0"/>
        <pt x="665" y="0" on="1"/>
      </contour>
    </TTGlyph>
    <TTGlyph name="N" xMin="100" yMin="0" xMax="851" yMax="1374">
      <contour>
        <pt x="851" y="1374" on="1"/>
        <pt x="845" y="1289" on="0"/>
        <pt x="838" y="1111" on="0"/>
        <pt x="834" y="935" on="0"/>
        <pt x="832" y="765" on="0"/>
        <pt x="832" y="688" on="1"/>
        <pt x="832" y="611" on="0"/>
        <pt x="834" y="441" on="0"/>
        <pt x="838" y="264" on="0"/>
        <pt x="844" y="85" on="0"/>
        <pt x="849" y="0" on="1"/>
        <pt x="664" y="0" on="1"/>
        <pt x="613" y="147" on="0"/>
        <pt x="515" y="413" on="0"/>
        <pt x="418" y="662" on="0"/>
        <pt x="322" y="899" on="0"/>
        <pt x="274" y="1016" on="1"/>
        <pt x="267" y="1016" on="1"/>
        <pt x="265" y="929" on="0"/>
        <pt x="266" y="764" on="0"/>
        <pt x="266" y="688" on="1"/>
        <pt x="266" y="611" on="0"/>
        <pt x="268" y="441" on="0"/>
        <pt x="272" y="264" on="0"/>
        <pt x="278" y="85" on="0"/>
        <pt x="283" y="0" on="1"/>
        <pt x="100" y="0" on="1"/>
        <pt x="106" y="85" on="0"/>
        <pt x="113" y="264" on="0"/>
        <pt x="117" y="441" on="0"/>
        <pt x="119" y="611" on="0"/>
        <pt x="119" y="688" on="1"/>
        <pt x="119" y="765" on="0"/>
        <pt x="117" y="935" on="0"/>
        <pt x="113" y="1111" on="0"/>
        <pt x="106" y="1289" on="0"/>
        <pt x="100" y="1374" on="1"/>
        <pt x="287" y="1374" on="1"/>
        <pt x="388" y="1080" on="0"/>
        <pt x="582" y="558" on="0"/>
        <pt x="679" y="324" on="1"/>
        <pt x="686" y="324" on="1"/>
        <pt x="687" y="368" on="0"/>
        <pt x="687" y="464" on="0"/>
        <pt x="686" y="559" on="0"/>
        <pt x="685" y="649" on="0"/>
        <pt x="685" y="688" on="1"/>
        <pt x="685" y="765" on="0"/>
        <pt x="683" y="935" on="0"/>
        <pt x="679" y="1111" on="0"/>
        <pt x="672" y="1289" on="0"/>
        <pt x="666" y="1374" on="1"/>
      </contour>
    </TTGlyph>
    <TTGlyph name="Nacute" xMin="100" yMin="0" xMax="851" yMax="1777">
      <component glyphName="N" x="0" y="0" flags="0x204"/>
      <component glyphName="acute" x="192" y="362" flags="0x4"/>
    </TTGlyph>
    <TTGlyph name="Ncaron" xMin="100" yMin="0" xMax="851" yMax="1777">
      <component glyphName="N" x="0" y="0" flags="0x204"/>
      <component glyphName="caron" x="213" y="362" flags="0x4"/>
    </TTGlyph>
    <TTGlyph name="Ncommaaccent" xMin="100" yMin="-397" xMax="851" yMax="1374">
      <component glyphName="N" x="0" y="0" flags="0x204"/>
      <component glyphName="commaaccent" x="220" y="0" flags="0x4"/>
    </TTGlyph>
    <TTGlyph name="Ntilde" xMin="100" yMin="0" xMax="851" yMax="1732">
      <component glyphName="N" x="0" y="0" flags="0x204"/>
      <component glyphName="tilde" x="212" y="362" flags="0x4"/>
    </TTGlyph>
    <TTGlyph name="O" xMin="68" yMin="-27" xMax="934" yMax="1399">
      <contour>
        <pt x="934" y="686" on="1"/>
        <pt x="934" y="501" on="0"/>
        <pt x="868" y="232" on="0"/>
        <pt x="751" y="57" on="0"/>
        <pt x="593" y="-27" on="0"/>
        <pt x="502" y="-27" on="1"/>
        <pt x="410" y="-27" on="0"/>
        <pt x="252" y="57" on="0"/>
        <pt x="135" y="232" on="0"/>
        <pt x="68" y="501" on="0"/>
        <pt x="68" y="686" on="1"/>
        <pt x="68" y="870" on="0"/>
        <pt x="135" y="1139" on="0"/>
        <pt x="252" y="1315" on="0"/>
        <pt x="410" y="1399" on="0"/>
        <pt x="502" y="1399" on="1"/>
        <pt x="593" y="1399" on="0"/>
        <pt x="751" y="1315" on="0"/>
        <pt x="868" y="1139" on="0"/>
        <pt x="934" y="870" on="0"/>
      </contour>
      <contour>
        <pt x="762" y="686" on="1"/>
        <pt x="762" y="840" on="0"/>
        <pt x="722" y="1064" on="0"/>
        <pt x="652" y="1209" on="0"/>
        <pt x="557" y="1278" on="0"/>
        <pt x="502" y="1278" on="1"/>
        <pt x="446" y="1278" on="0"/>
        <pt x="351" y="1209" on="0"/>
        <pt x="280" y="1064" on="0"/>
        <pt x="240" y="840" on="0"/>
        <pt x="240" y="686" on="1"/>
        <pt x="240" y="531" on="0"/>
        <pt x="280" y="307" on="0"/>
        <pt x="351" y="163" on="0"/>
        <pt x="446" y="94" on="0"/>
        <pt x="502" y="94" on="1"/>
        <pt x="557" y="94" on="0"/>
        <pt x="652" y="163" on="0"/>
        <pt x="722" y="307" on="0"/>
        <pt x="762" y="531" on="0"/>
      </contour>
    </TTGlyph>
    <TTGlyph name="OE" xMin="68" yMin="-27" xMax="1249" yMax="1399">
      <contour>
        <pt x="1243" y="1374" on="1"/>
        <pt x="1243" y="1257" on="1"/>
        <pt x="845" y="1257" on="1"/>
        <pt x="839" y="1142" on="0"/>
        <pt x="834" y="913" on="0"/>
        <pt x="833" y="805" on="1"/>
        <pt x="1214" y="805" on="1"/>
        <pt x="1214" y="688" on="1"/>
        <pt x="833" y="688" on="1"/>
        <pt x="833" y="559" on="0"/>
        <pt x="837" y="264" on="0"/>
        <pt x="844" y="117" on="1"/>
        <pt x="1249" y="117" on="1"/>
        <pt x="1249" y="0" on="1"/>
        <pt x="663" y="0" on="1"/>
        <pt x="663" y="7" on="0"/>
        <pt x="664" y="21" on="0"/>
        <pt x="664" y="29" on="1"/>
        <pt x="598" y="-27" on="0"/>
        <pt x="502" y="-27" on="1"/>
        <pt x="410" y="-27" on="0"/>
        <pt x="252" y="57" on="0"/>
        <pt x="135" y="232" on="0"/>
        <pt x="68" y="501" on="0"/>
        <pt x="68" y="686" on="1"/>
        <pt x="68" y="870" on="0"/>
        <pt x="135" y="1139" on="0"/>
        <pt x="252" y="1315" on="0"/>
        <pt x="410" y="1399" on="0"/>
        <pt x="502" y="1399" on="1"/>
        <pt x="551" y="1399" on="0"/>
        <pt x="630" y="1371" on="0"/>
        <pt x="665" y="1342" on="1"/>
        <pt x="664" y="1350" on="0"/>
        <pt x="663" y="1366" on="0"/>
        <pt x="663" y="1374" on="1"/>
      </contour>
      <contour>
        <pt x="502" y="94" on="1"/>
        <pt x="602" y="94" on="0"/>
        <pt x="672" y="179" on="1"/>
        <pt x="678" y="312" on="0"/>
        <pt x="682" y="573" on="0"/>
        <pt x="682" y="688" on="1"/>
        <pt x="682" y="802" on="0"/>
        <pt x="678" y="1061" on="0"/>
        <pt x="673" y="1192" on="1"/>
        <pt x="636" y="1237" on="0"/>
        <pt x="553" y="1278" on="0"/>
        <pt x="502" y="1278" on="1"/>
        <pt x="446" y="1278" on="0"/>
        <pt x="351" y="1209" on="0"/>
        <pt x="280" y="1064" on="0"/>
        <pt x="240" y="840" on="0"/>
        <pt x="240" y="686" on="1"/>
        <pt x="240" y="531" on="0"/>
        <pt x="280" y="307" on="0"/>
        <pt x="351" y="163" on="0"/>
        <pt x="446" y="94" on="0"/>
      </contour>
    </TTGlyph>
    <TTGlyph name="Oacute" xMin="68" yMin="-27" xMax="934" yMax="1777">
      <component glyphName="O" x="0" y="0" flags="0x204"/>
      <component glyphName="acute" x="210" y="362" flags="0x4"/>
    </TTGlyph>
    <TTGlyph name="Obreve" xMin="68" yMin="-27" xMax="934" yMax="1733">
      <component glyphName="O" x="0" y="0" flags="0x204"/>
      <component glyphName="breve" x="231" y="362" flags="0x4"/>
    </TTGlyph>
    <TTGlyph name="Ocircumflex" xMin="68" yMin="-27" xMax="934" yMax="1777">
      <component glyphName="O" x="0" y="0" flags="0x204"/>
      <component glyphName="circumflex" x="231" y="362" flags="0x4"/>
    </TTGlyph>
    <TTGlyph name="Odieresis" xMin="68" yMin="-27" xMax="934" yMax="1683">
      <component glyphName="O" x="0" y="0" flags="0x204"/>
      <component glyphName="dieresis" x="230" y="362" flags="0x4"/>
    </TTGlyph>
    <TTGlyph name="Ograve" xMin="68" yMin="-27" xMax="934" yMax="1777">
      <component glyphName="O" x="0" y="0" flags="0x204"/>
      <component glyphName="grave" x="206" y="362" flags="0x4"/>
    </TTGlyph>
    <TTGlyph name="Ohungarumlaut" xMin="68" yMin="-27" xMax="934" yMax="1777">
      <component glyphName="O" x="0" y="0" flags="0x204"/>
      <component glyphName="hungarumlaut" x="225" y="362" flags="0x4"/>
    </TTGlyph>
    <TTGlyph name="Omacron" xMin="68" yMin="-27" xMax="934" yMax="1649">
      <component glyphName="O" x="0" y="0" flags="0x204"/>
      <component glyphName="macron" x="231" y="363" flags="0x4"/>
    </TTGlyph>
    <TTGlyph name="Oslash" xMin="68" yMin="-102" xMax="934" yMax="1474">
      <contour>
        <pt x="934" y="686" on="1"/>
        <pt x="934" y="501" on="0"/>
        <pt x="868" y="232" on="0"/>
        <pt x="751" y="57" on="0"/>
        <pt x="593" y="-27" on="0"/>
        <pt x="502" y="-27" on="1"/>
        <pt x="422" y="-27" on="0"/>
        <pt x="350" y="5" on="1"/>
        <pt x="317" y="-102" on="1"/>
        <pt x="204" y="-66" on="1"/>
        <pt x="248" y="77" on="1"/>
        <pt x="165" y="159" on="0"/>
        <pt x="68" y="461" on="0"/>
        <pt x="68" y="686" on="1"/>
        <pt x="68" y="870" on="0"/>
        <pt x="135" y="1139" on="0"/>
        <pt x="252" y="1315" on="0"/>
        <pt x="410" y="1399" on="0"/>
        <pt x="502" y="1399" on="1"/>
        <pt x="582" y="1399" on="0"/>
        <pt x="650" y="1368" on="1"/>
        <pt x="683" y="1474" on="1"/>
        <pt x="796" y="1438" on="1"/>
        <pt x="752" y="1297" on="1"/>
        <pt x="794" y="1256" on="0"/>
        <pt x="861" y="1139" on="0"/>
        <pt x="908" y="988" on="0"/>
        <pt x="934" y="799" on="0"/>
      </contour>
      <contour>
        <pt x="762" y="686" on="1"/>
        <pt x="762" y="831" on="0"/>
        <pt x="727" y="1044" on="0"/>
        <pt x="696" y="1116" on="1"/>
        <pt x="391" y="135" on="1"/>
        <pt x="416" y="114" on="0"/>
        <pt x="472" y="94" on="0"/>
        <pt x="502" y="94" on="1"/>
        <pt x="557" y="94" on="0"/>
        <pt x="652" y="163" on="0"/>
        <pt x="722" y="307" on="0"/>
        <pt x="762" y="531" on="0"/>
      </contour>
      <contour>
        <pt x="240" y="686" on="1"/>
        <pt x="240" y="542" on="0"/>
        <pt x="274" y="331" on="0"/>
        <pt x="305" y="258" on="1"/>
        <pt x="610" y="1239" on="1"/>
        <pt x="560" y="1278" on="0"/>
        <pt x="502" y="1278" on="1"/>
        <pt x="446" y="1278" on="0"/>
        <pt x="351" y="1209" on="0"/>
        <pt x="280" y="1064" on="0"/>
        <pt x="240" y="840" on="0"/>
      </contour>
    </TTGlyph>
    <TTGlyph name="Oslashacute" xMin="68" yMin="-102" xMax="934" yMax="1777">
      <component glyphName="Oslash" x="0" y="0" flags="0x204"/>
      <component glyphName="acute" x="211" y="362" flags="0x4"/>
    </TTGlyph>
    <TTGlyph name="Otilde" xMin="68" yMin="-27" xMax="934" yMax="1732">
      <component glyphName="O" x="0" y="0" flags="0x204"/>
      <component glyphName="tilde" x="230" y="362" flags="0x4"/>
    </TTGlyph>
    <TTGlyph name="P" xMin="100" yMin="0" xMax="788" yMax="1374">
      <contour>
        <pt x="434" y="1374" on="1"/>
        <pt x="518" y="1374" on="0"/>
        <pt x="650" y="1317" on="0"/>
        <pt x="741" y="1207" on="0"/>
        <pt x="788" y="1049" on="0"/>
        <pt x="788" y="949" on="1"/>
        <pt x="788" y="906" on="0"/>
        <pt x="772" y="809" on="0"/>
        <pt x="736" y="715" on="0"/>
        <pt x="680" y="628" on="0"/>
        <pt x="599" y="562" on="0"/>
        <pt x="492" y="523" on="0"/>
        <pt x="424" y="523" on="1"/>
        <pt x="270" y="523" on="1"/>
        <pt x="272" y="395" on="0"/>
        <pt x="279" y="128" on="0"/>
        <pt x="287" y="0" on="1"/>
        <pt x="100" y="0" on="1"/>
        <pt x="106" y="85" on="0"/>
        <pt x="113" y="264" on="0"/>
        <pt x="117" y="441" on="0"/>
        <pt x="119" y="611" on="0"/>
        <pt x="119" y="688" on="1"/>
        <pt x="119" y="765" on="0"/>
        <pt x="117" y="935" on="0"/>
        <pt x="113" y="1111" on="0"/>
        <pt x="106" y="1289" on="0"/>
        <pt x="100" y="1374" on="1"/>
      </contour>
      <contour>
        <pt x="282" y="1262" on="1"/>
        <pt x="275" y="1114" on="0"/>
        <pt x="270" y="818" on="0"/>
        <pt x="270" y="688" on="1"/>
        <pt x="270" y="634" on="1"/>
        <pt x="424" y="634" on="1"/>
        <pt x="514" y="634" on="0"/>
        <pt x="614" y="799" on="0"/>
        <pt x="614" y="949" on="1"/>
        <pt x="614" y="1102" on="0"/>
        <pt x="520" y="1262" on="0"/>
        <pt x="424" y="1262" on="1"/>
      </contour>
    </TTGlyph>
    <TTGlyph name="Q" xMin="68" yMin="-115" xMax="954" yMax="1399">
      <contour>
        <pt x="934" y="686" on="1"/>
        <pt x="934" y="466" on="0"/>
        <pt x="842" y="171" on="0"/>
        <pt x="763" y="86" on="1"/>
        <pt x="801" y="69" on="0"/>
        <pt x="870" y="47" on="0"/>
        <pt x="896" y="39" on="1"/>
        <pt x="927" y="30" on="0"/>
        <pt x="954" y="25" on="1"/>
        <pt x="874" y="-115" on="1"/>
        <pt x="823" y="-98" on="0"/>
        <pt x="715" y="-33" on="0"/>
        <pt x="658" y="8" on="1"/>
        <pt x="585" y="-27" on="0"/>
        <pt x="502" y="-27" on="1"/>
        <pt x="410" y="-27" on="0"/>
        <pt x="252" y="57" on="0"/>
        <pt x="135" y="232" on="0"/>
        <pt x="68" y="501" on="0"/>
        <pt x="68" y="686" on="1"/>
        <pt x="68" y="870" on="0"/>
        <pt x="135" y="1139" on="0"/>
        <pt x="252" y="1315" on="0"/>
        <pt x="410" y="1399" on="0"/>
        <pt x="502" y="1399" on="1"/>
        <pt x="593" y="1399" on="0"/>
        <pt x="751" y="1315" on="0"/>
        <pt x="868" y="1139" on="0"/>
        <pt x="934" y="870" on="0"/>
      </contour>
      <contour>
        <pt x="762" y="686" on="1"/>
        <pt x="762" y="840" on="0"/>
        <pt x="722" y="1064" on="0"/>
        <pt x="652" y="1209" on="0"/>
        <pt x="557" y="1278" on="0"/>
        <pt x="502" y="1278" on="1"/>
        <pt x="446" y="1278" on="0"/>
        <pt x="351" y="1209" on="0"/>
        <pt x="280" y="1064" on="0"/>
        <pt x="240" y="840" on="0"/>
        <pt x="240" y="686" on="1"/>
        <pt x="240" y="531" on="0"/>
        <pt x="280" y="307" on="0"/>
        <pt x="351" y="163" on="0"/>
        <pt x="446" y="94" on="0"/>
        <pt x="502" y="94" on="1"/>
        <pt x="557" y="94" on="0"/>
        <pt x="652" y="163" on="0"/>
        <pt x="722" y="307" on="0"/>
        <pt x="762" y="531" on="0"/>
      </contour>
    </TTGlyph>
    <TTGlyph name="R" xMin="100" yMin="0" xMax="836" yMax="1374">
      <contour>
        <pt x="426" y="1374" on="1"/>
        <pt x="595" y="1374" on="0"/>
        <pt x="780" y="1176" on="0"/>
        <pt x="780" y="975" on="1"/>
        <pt x="780" y="845" on="0"/>
        <pt x="690" y="676" on="0"/>
        <pt x="602" y="631" on="1"/>
        <pt x="624" y="545" on="0"/>
        <pt x="657" y="444" on="1"/>
        <pt x="686" y="357" on="0"/>
        <pt x="773" y="129" on="0"/>
        <pt x="836" y="0" on="1"/>
        <pt x="625" y="0" on="1"/>
        <pt x="580" y="149" on="0"/>
        <pt x="521" y="370" on="0"/>
        <pt x="504" y="445" on="1"/>
        <pt x="484" y="532" on="0"/>
        <pt x="473" y="594" on="1"/>
        <pt x="270" y="594" on="1"/>
        <pt x="270" y="524" on="0"/>
        <pt x="273" y="375" on="0"/>
        <pt x="277" y="224" on="0"/>
        <pt x="283" y="72" on="0"/>
        <pt x="287" y="0" on="1"/>
        <pt x="100" y="0" on="1"/>
        <pt x="106" y="85" on="0"/>
        <pt x="113" y="264" on="0"/>
        <pt x="117" y="441" on="0"/>
        <pt x="119" y="611" on="0"/>
        <pt x="119" y="688" on="1"/>
        <pt x="119" y="765" on="0"/>
        <pt x="117" y="935" on="0"/>
        <pt x="113" y="1111" on="0"/>
        <pt x="106" y="1289" on="0"/>
        <pt x="100" y="1374" on="1"/>
      </contour>
      <contour>
        <pt x="282" y="1262" on="1"/>
        <pt x="275" y="1119" on="0"/>
        <pt x="270" y="832" on="0"/>
        <pt x="270" y="705" on="1"/>
        <pt x="416" y="705" on="1"/>
        <pt x="461" y="705" on="0"/>
        <pt x="531" y="733" on="0"/>
        <pt x="580" y="797" on="0"/>
        <pt x="606" y="900" on="0"/>
        <pt x="606" y="975" on="1"/>
        <pt x="606" y="1127" on="0"/>
        <pt x="511" y="1262" on="0"/>
        <pt x="416" y="1262" on="1"/>
      </contour>
    </TTGlyph>
    <TTGlyph name="Racute" xMin="100" yMin="0" xMax="836" yMax="1777">
      <component glyphName="R" x="0" y="0" flags="0x204"/>
      <component glyphName="acute" x="107" y="362" flags="0x4"/>
    </TTGlyph>
    <TTGlyph name="Rcaron" xMin="100" yMin="0" xMax="836" yMax="1777">
      <component glyphName="R" x="0" y="0" flags="0x204"/>
      <component glyphName="caron" x="128" y="362" flags="0x4"/>
    </TTGlyph>
    <TTGlyph name="Rcommaaccent" xMin="100" yMin="-397" xMax="836" yMax="1374">
      <component glyphName="R" x="0" y="0" flags="0x204"/>
      <component glyphName="commaaccent" x="182" y="0" flags="0x4"/>
    </TTGlyph>
    <TTGlyph name="S" xMin="45" yMin="-27" xMax="715" yMax="1399">
      <contour>
        <pt x="332" y="86" on="1"/>
        <pt x="372" y="86" on="0"/>
        <pt x="449" y="111" on="0"/>
        <pt x="509" y="167" on="0"/>
        <pt x="545" y="254" on="0"/>
        <pt x="545" y="317" on="1"/>
        <pt x="545" y="371" on="0"/>
        <pt x="502" y="463" on="0"/>
        <pt x="432" y="547" on="0"/>
        <pt x="342" y="626" on="0"/>
        <pt x="248" y="706" on="0"/>
        <pt x="158" y="791" on="0"/>
        <pt x="88" y="886" on="0"/>
        <pt x="45" y="996" on="0"/>
        <pt x="45" y="1061" on="1"/>
        <pt x="45" y="1156" on="0"/>
        <pt x="115" y="1286" on="0"/>
        <pt x="223" y="1365" on="0"/>
        <pt x="354" y="1399" on="0"/>
        <pt x="416" y="1399" on="1"/>
        <pt x="481" y="1399" on="0"/>
        <pt x="602" y="1378" on="0"/>
        <pt x="658" y="1366" on="1"/>
        <pt x="658" y="1167" on="1"/>
        <pt x="626" y="1194" on="0"/>
        <pt x="569" y="1238" on="0"/>
        <pt x="512" y="1269" on="0"/>
        <pt x="452" y="1286" on="0"/>
        <pt x="418" y="1286" on="1"/>
        <pt x="376" y="1286" on="0"/>
        <pt x="301" y="1263" on="0"/>
        <pt x="246" y="1215" on="0"/>
        <pt x="213" y="1141" on="0"/>
        <pt x="213" y="1090" on="1"/>
        <pt x="213" y="1019" on="0"/>
        <pt x="287" y="902" on="0"/>
        <pt x="399" y="796" on="0"/>
        <pt x="529" y="690" on="0"/>
        <pt x="641" y="568" on="0"/>
        <pt x="715" y="423" on="0"/>
        <pt x="715" y="330" on="1"/>
        <pt x="715" y="260" on="0"/>
        <pt x="683" y="153" on="0"/>
        <pt x="628" y="74" on="0"/>
        <pt x="556" y="20" on="0"/>
        <pt x="474" y="-13" on="0"/>
        <pt x="387" y="-27" on="0"/>
        <pt x="346" y="-27" on="1"/>
        <pt x="297" y="-27" on="0"/>
        <pt x="215" y="-20" on="0"/>
        <pt x="144" y="-7" on="0"/>
        <pt x="83" y="10" on="0"/>
        <pt x="54" y="20" on="1"/>
        <pt x="54" y="225" on="1"/>
        <pt x="85" y="196" on="0"/>
        <pt x="147" y="145" on="0"/>
        <pt x="214" y="107" on="0"/>
        <pt x="288" y="86" on="0"/>
      </contour>
    </TTGlyph>
    <TTGlyph name="Sacute" xMin="45" yMin="-27" xMax="715" yMax="1777">
      <component glyphName="S" x="0" y="0" flags="0x204"/>
      <component glyphName="acute" x="105" y="362" flags="0x4"/>
    </TTGlyph>
    <TTGlyph name="Scaron" xMin="45" yMin="-27" xMax="715" yMax="1777">
      <component glyphName="S" x="0" y="0" flags="0x204"/>
      <component glyphName="caron" x="126" y="362" flags="0x4"/>
    </TTGlyph>
    <TTGlyph name="Scedilla" xMin="45" yMin="-360" xMax="715" yMax="1399">
      <component glyphName="S" x="0" y="0" flags="0x204"/>
      <component glyphName="cedilla" x="114" y="0" flags="0x4"/>
    </TTGlyph>
    <TTGlyph name="Scircumflex" xMin="45" yMin="-27" xMax="715" yMax="1777">
      <component glyphName="S" x="0" y="0" flags="0x204"/>
      <component glyphName="circumflex" x="126" y="362" flags="0x4"/>
    </TTGlyph>
    <TTGlyph name="T" xMin="15" yMin="0" xMax="700" yMax="1374">
      <contour>
        <pt x="15" y="1374" on="1"/>
        <pt x="700" y="1374" on="1"/>
        <pt x="700" y="1257" on="1"/>
        <pt x="445" y="1257" on="1"/>
        <pt x="437" y="1110" on="0"/>
        <pt x="433" y="816" on="0"/>
        <pt x="433" y="688" on="1"/>
        <pt x="433" y="611" on="0"/>
        <pt x="435" y="441" on="0"/>
        <pt x="439" y="264" on="0"/>
        <pt x="445" y="85" on="0"/>
        <pt x="450" y="0" on="1"/>
        <pt x="263" y="0" on="1"/>
        <pt x="269" y="85" on="0"/>
        <pt x="276" y="264" on="0"/>
        <pt x="280" y="441" on="0"/>
        <pt x="282" y="611" on="0"/>
        <pt x="282" y="688" on="1"/>
        <pt x="282" y="816" on="0"/>
        <pt x="277" y="1110" on="0"/>
        <pt x="270" y="1257" on="1"/>
        <pt x="15" y="1257" on="1"/>
      </contour>
    </TTGlyph>
    <TTGlyph name="Tbar" xMin="15" yMin="0" xMax="700" yMax="1374">
      <contour>
        <pt x="433" y="838" on="1"/>
        <pt x="433" y="688" on="1"/>
        <pt x="433" y="611" on="0"/>
        <pt x="435" y="441" on="0"/>
        <pt x="439" y="264" on="0"/>
        <pt x="445" y="85" on="0"/>
        <pt x="450" y="0" on="1"/>
        <pt x="263" y="0" on="1"/>
        <pt x="269" y="85" on="0"/>
        <pt x="276" y="264" on="0"/>
        <pt x="280" y="441" on="0"/>
        <pt x="282" y="611" on="0"/>
        <pt x="282" y="688" on="1"/>
        <pt x="282" y="723" on="0"/>
        <pt x="282" y="799" on="0"/>
        <pt x="281" y="838" on="1"/>
        <pt x="52" y="838" on="1"/>
        <pt x="52" y="955" on="1"/>
        <pt x="279" y="955" on="1"/>
        <pt x="277" y="1030" on="0"/>
        <pt x="273" y="1182" on="0"/>
        <pt x="270" y="1257" on="1"/>
        <pt x="15" y="1257" on="1"/>
        <pt x="15" y="1374" on="1"/>
        <pt x="700" y="1374" on="1"/>
        <pt x="700" y="1257" on="1"/>
        <pt x="445" y="1257" on="1"/>
        <pt x="441" y="1182" on="0"/>
        <pt x="436" y="1030" on="0"/>
        <pt x="435" y="955" on="1"/>
        <pt x="663" y="955" on="1"/>
        <pt x="663" y="838" on="1"/>
      </contour>
    </TTGlyph>
    <TTGlyph name="Tcaron" xMin="15" yMin="0" xMax="700" yMax="1777">
      <component glyphName="T" x="0" y="0" flags="0x204"/>
      <component glyphName="caron" x="88" y="362" flags="0x4"/>
    </TTGlyph>
    <TTGlyph name="Tcommaaccent" xMin="15" yMin="-397" xMax="700" yMax="1374">
      <component glyphName="T" x="0" y="0" flags="0x204"/>
      <component glyphName="commaaccent" x="87" y="0" flags="0x4"/>
    </TTGlyph>
    <TTGlyph name="Thorn" xMin="100" yMin="0" xMax="788" yMax="1374">
      <contour>
        <pt x="289" y="1374" on="1"/>
        <pt x="282" y="1264" on="0"/>
        <pt x="277" y="1148" on="1"/>
        <pt x="434" y="1148" on="1"/>
        <pt x="518" y="1148" on="0"/>
        <pt x="650" y="1091" on="0"/>
        <pt x="741" y="981" on="0"/>
        <pt x="788" y="823" on="0"/>
        <pt x="788" y="723" on="1"/>
        <pt x="788" y="680" on="0"/>
        <pt x="772" y="583" on="0"/>
        <pt x="736" y="489" on="0"/>
        <pt x="680" y="402" on="0"/>
        <pt x="599" y="336" on="0"/>
        <pt x="492" y="297" on="0"/>
        <pt x="424" y="297" on="1"/>
        <pt x="275" y="297" on="1"/>
        <pt x="277" y="222" on="0"/>
        <pt x="282" y="72" on="0"/>
        <pt x="287" y="0" on="1"/>
        <pt x="100" y="0" on="1"/>
        <pt x="106" y="85" on="0"/>
        <pt x="113" y="264" on="0"/>
        <pt x="117" y="441" on="0"/>
        <pt x="119" y="611" on="0"/>
        <pt x="119" y="688" on="1"/>
        <pt x="119" y="765" on="0"/>
        <pt x="117" y="935" on="0"/>
        <pt x="113" y="1111" on="0"/>
        <pt x="106" y="1289" on="0"/>
        <pt x="100" y="1374" on="1"/>
      </contour>
      <contour>
        <pt x="274" y="1036" on="1"/>
        <pt x="272" y="944" on="0"/>
        <pt x="270" y="768" on="0"/>
        <pt x="270" y="688" on="1"/>
        <pt x="270" y="623" on="0"/>
        <pt x="270" y="482" on="0"/>
        <pt x="272" y="408" on="1"/>
        <pt x="424" y="408" on="1"/>
        <pt x="514" y="408" on="0"/>
        <pt x="614" y="573" on="0"/>
        <pt x="614" y="723" on="1"/>
        <pt x="614" y="876" on="0"/>
        <pt x="520" y="1036" on="0"/>
        <pt x="424" y="1036" on="1"/>
      </contour>
    </TTGlyph>
    <TTGlyph name="U" xMin="91" yMin="-29" xMax="869" yMax="1374">
      <contour>
        <pt x="480" y="95" on="1"/>
        <pt x="536" y="95" on="0"/>
        <pt x="618" y="139" on="0"/>
        <pt x="672" y="221" on="0"/>
        <pt x="699" y="340" on="0"/>
        <pt x="699" y="414" on="1"/>
        <pt x="699" y="737" on="1"/>
        <pt x="699" y="889" on="0"/>
        <pt x="692" y="1210" on="0"/>
        <pt x="681" y="1374" on="1"/>
        <pt x="869" y="1374" on="1"/>
        <pt x="860" y="1209" on="0"/>
        <pt x="851" y="887" on="0"/>
        <pt x="851" y="737" on="1"/>
        <pt x="851" y="414" on="1"/>
        <pt x="851" y="310" on="0"/>
        <pt x="805" y="146" on="0"/>
        <pt x="713" y="32" on="0"/>
        <pt x="574" y="-29" on="0"/>
        <pt x="480" y="-29" on="1"/>
        <pt x="386" y="-29" on="0"/>
        <pt x="247" y="32" on="0"/>
        <pt x="155" y="146" on="0"/>
        <pt x="109" y="310" on="0"/>
        <pt x="109" y="414" on="1"/>
        <pt x="109" y="737" on="1"/>
        <pt x="109" y="887" on="0"/>
        <pt x="100" y="1209" on="0"/>
        <pt x="91" y="1374" on="1"/>
        <pt x="279" y="1374" on="1"/>
        <pt x="268" y="1210" on="0"/>
        <pt x="261" y="889" on="0"/>
        <pt x="261" y="737" on="1"/>
        <pt x="261" y="414" on="1"/>
        <pt x="261" y="340" on="0"/>
        <pt x="287" y="221" on="0"/>
        <pt x="341" y="139" on="0"/>
        <pt x="424" y="95" on="0"/>
      </contour>
    </TTGlyph>
    <TTGlyph name="Uacute" xMin="91" yMin="-29" xMax="869" yMax="1777">
      <component glyphName="U" x="0" y="0" flags="0x204"/>
      <component glyphName="acute" x="188" y="362" flags="0x4"/>
    </TTGlyph>
    <TTGlyph name="Ubreve" xMin="91" yMin="-29" xMax="869" yMax="1733">
      <component glyphName="U" x="0" y="0" flags="0x204"/>
      <component glyphName="breve" x="209" y="362" flags="0x4"/>
    </TTGlyph>
    <TTGlyph name="Ucircumflex" xMin="91" yMin="-29" xMax="869" yMax="1777">
      <component glyphName="U" x="0" y="0" flags="0x204"/>
      <component glyphName="circumflex" x="209" y="362" flags="0x4"/>
    </TTGlyph>
    <TTGlyph name="Udieresis" xMin="91" yMin="-29" xMax="869" yMax="1683">
      <component glyphName="U" x="0" y="0" flags="0x204"/>
      <component glyphName="dieresis" x="208" y="362" flags="0x4"/>
    </TTGlyph>
    <TTGlyph name="Ugrave" xMin="91" yMin="-29" xMax="869" yMax="1777">
      <component glyphName="U" x="0" y="0" flags="0x204"/>
      <component glyphName="grave" x="184" y="362" flags="0x4"/>
    </TTGlyph>
    <TTGlyph name="Uhungarumlaut" xMin="91" yMin="-29" xMax="869" yMax="1777">
      <component glyphName="U" x="0" y="0" flags="0x204"/>
      <component glyphName="hungarumlaut" x="203" y="362" flags="0x4"/>
    </TTGlyph>
    <TTGlyph name="Umacron" xMin="91" yMin="-29" xMax="869" yMax="1649">
      <component glyphName="U" x="0" y="0" flags="0x204"/>
      <component glyphName="macron" x="209" y="363" flags="0x4"/>
    </TTGlyph>
    <TTGlyph name="Uogonek" xMin="91" yMin="-340" xMax="869" yMax="1374">
      <contour>
        <pt x="480" y="95" on="1"/>
        <pt x="536" y="95" on="0"/>
        <pt x="618" y="139" on="0"/>
        <pt x="672" y="221" on="0"/>
        <pt x="699" y="340" on="0"/>
        <pt x="699" y="414" on="1"/>
        <pt x="699" y="737" on="1"/>
        <pt x="699" y="889" on="0"/>
        <pt x="692" y="1210" on="0"/>
        <pt x="681" y="1374" on="1"/>
        <pt x="869" y="1374" on="1"/>
        <pt x="860" y="1209" on="0"/>
        <pt x="851" y="887" on="0"/>
        <pt x="851" y="737" on="1"/>
        <pt x="851" y="414" on="1"/>
        <pt x="851" y="217" on="0"/>
        <pt x="687" y="-14" on="0"/>
        <pt x="520" y="-27" on="1"/>
        <pt x="495" y="-62" on="0"/>
        <pt x="458" y="-138" on="0"/>
        <pt x="458" y="-176" on="1"/>
        <pt x="458" y="-213" on="0"/>
        <pt x="500" y="-251" on="0"/>
        <pt x="532" y="-251" on="1"/>
        <pt x="558" y="-251" on="0"/>
        <pt x="605" y="-230" on="0"/>
        <pt x="619" y="-212" on="1"/>
        <pt x="619" y="-322" on="1"/>
        <pt x="599" y="-330" on="0"/>
        <pt x="551" y="-340" on="0"/>
        <pt x="517" y="-340" on="1"/>
        <pt x="488" y="-340" on="0"/>
        <pt x="431" y="-324" on="0"/>
        <pt x="386" y="-289" on="0"/>
        <pt x="359" y="-233" on="0"/>
        <pt x="359" y="-193" on="1"/>
        <pt x="359" y="-151" on="0"/>
        <pt x="400" y="-65" on="0"/>
        <pt x="432" y="-26" on="1"/>
        <pt x="350" y="-19" on="0"/>
        <pt x="229" y="48" on="0"/>
        <pt x="149" y="161" on="0"/>
        <pt x="109" y="317" on="0"/>
        <pt x="109" y="414" on="1"/>
        <pt x="109" y="737" on="1"/>
        <pt x="109" y="887" on="0"/>
        <pt x="100" y="1209" on="0"/>
        <pt x="91" y="1374" on="1"/>
        <pt x="279" y="1374" on="1"/>
        <pt x="268" y="1210" on="0"/>
        <pt x="261" y="889" on="0"/>
        <pt x="261" y="737" on="1"/>
        <pt x="261" y="414" on="1"/>
        <pt x="261" y="340" on="0"/>
        <pt x="287" y="221" on="0"/>
        <pt x="341" y="139" on="0"/>
        <pt x="424" y="95" on="0"/>
      </contour>
    </TTGlyph>
    <TTGlyph name="Uring" xMin="91" yMin="-29" xMax="869" yMax="1820">
      <component glyphName="U" x="0" y="0" flags="0x204"/>
      <component glyphName="ring" x="209" y="362" flags="0x4"/>
    </TTGlyph>
    <TTGlyph name="Utilde" xMin="91" yMin="-29" xMax="869" yMax="1732">
      <component glyphName="U" x="0" y="0" flags="0x204"/>
      <component glyphName="tilde" x="208" y="362" flags="0x4"/>
    </TTGlyph>
    <TTGlyph name="V" xMin="6" yMin="0" xMax="829" yMax="1374">
      <contour>
        <pt x="424" y="202" on="1"/>
        <pt x="493" y="493" on="0"/>
        <pt x="594" y="1074" on="0"/>
        <pt x="639" y="1374" on="1"/>
        <pt x="829" y="1374" on="1"/>
        <pt x="797" y="1252" on="0"/>
        <pt x="735" y="996" on="0"/>
        <pt x="679" y="741" on="0"/>
        <pt x="628" y="494" on="0"/>
        <pt x="585" y="269" on="0"/>
        <pt x="549" y="75" on="0"/>
        <pt x="536" y="0" on="1"/>
        <pt x="299" y="0" on="1"/>
        <pt x="286" y="75" on="0"/>
        <pt x="250" y="269" on="0"/>
        <pt x="207" y="494" on="0"/>
        <pt x="156" y="741" on="0"/>
        <pt x="100" y="996" on="0"/>
        <pt x="38" y="1252" on="0"/>
        <pt x="6" y="1374" on="1"/>
        <pt x="196" y="1374" on="1"/>
        <pt x="241" y="1074" on="0"/>
        <pt x="341" y="493" on="0"/>
        <pt x="410" y="202" on="1"/>
      </contour>
    </TTGlyph>
    <TTGlyph name="W" xMin="18" yMin="0" xMax="1278" yMax="1374">
      <contour>
        <pt x="641" y="1123" on="1"/>
        <pt x="629" y="1035" on="0"/>
        <pt x="602" y="828" on="0"/>
        <pt x="574" y="613" on="0"/>
        <pt x="546" y="400" on="0"/>
        <pt x="522" y="209" on="0"/>
        <pt x="503" y="52" on="0"/>
        <pt x="498" y="0" on="1"/>
        <pt x="261" y="0" on="1"/>
        <pt x="250" y="75" on="0"/>
        <pt x="221" y="269" on="0"/>
        <pt x="186" y="494" on="0"/>
        <pt x="144" y="741" on="0"/>
        <pt x="97" y="996" on="0"/>
        <pt x="45" y="1252" on="0"/>
        <pt x="18" y="1374" on="1"/>
        <pt x="211" y="1374" on="1"/>
        <pt x="249" y="1074" on="0"/>
        <pt x="328" y="493" on="0"/>
        <pt x="375" y="202" on="1"/>
        <pt x="389" y="202" on="1"/>
        <pt x="412" y="347" on="0"/>
        <pt x="453" y="637" on="0"/>
        <pt x="490" y="930" on="0"/>
        <pt x="526" y="1225" on="0"/>
        <pt x="545" y="1374" on="1"/>
        <pt x="751" y="1374" on="1"/>
        <pt x="788" y="1075" on="0"/>
        <pt x="859" y="491" on="0"/>
        <pt x="906" y="202" on="1"/>
        <pt x="920" y="202" on="1"/>
        <pt x="967" y="493" on="0"/>
        <pt x="1047" y="1074" on="0"/>
        <pt x="1085" y="1374" on="1"/>
        <pt x="1278" y="1374" on="1"/>
        <pt x="1251" y="1252" on="0"/>
        <pt x="1199" y="996" on="0"/>
        <pt x="1152" y="741" on="0"/>
        <pt x="1110" y="494" on="0"/>
        <pt x="1075" y="269" on="0"/>
        <pt x="1045" y="75" on="0"/>
        <pt x="1035" y="0" on="1"/>
        <pt x="798" y="0" on="1"/>
        <pt x="793" y="52" on="0"/>
        <pt x="774" y="209" on="0"/>
        <pt x="750" y="400" on="0"/>
        <pt x="722" y="613" on="0"/>
        <pt x="694" y="828" on="0"/>
        <pt x="666" y="1035" on="0"/>
        <pt x="655" y="1123" on="1"/>
      </contour>
    </TTGlyph>
    <TTGlyph name="Wacute" xMin="18" yMin="0" xMax="1278" yMax="1777">
      <component glyphName="W" x="0" y="0" flags="0x204"/>
      <component glyphName="acute" x="357" y="362" flags="0x4"/>
    </TTGlyph>
    <TTGlyph name="Wcircumflex" xMin="18" yMin="0" xMax="1278" yMax="1777">
      <component glyphName="W" x="0" y="0" flags="0x204"/>
      <component glyphName="circumflex" x="378" y="362" flags="0x4"/>
    </TTGlyph>
    <TTGlyph name="Wdieresis" xMin="18" yMin="0" xMax="1278" yMax="1683">
      <component glyphName="W" x="0" y="0" flags="0x204"/>
      <component glyphName="dieresis" x="377" y="362" flags="0x4"/>
    </TTGlyph>
    <TTGlyph name="Wgrave" xMin="18" yMin="0" xMax="1278" yMax="1777">
      <component glyphName="W" x="0" y="0" flags="0x204"/>
      <component glyphName="grave" x="353" y="362" flags="0x4"/>
    </TTGlyph>
    <TTGlyph name="X" xMin="10" yMin="0" xMax="797" yMax="1374">
      <contour>
        <pt x="206" y="1374" on="1"/>
        <pt x="253" y="1231" on="0"/>
        <pt x="350" y="973" on="0"/>
        <pt x="403" y="846" on="1"/>
        <pt x="457" y="973" on="0"/>
        <pt x="554" y="1231" on="0"/>
        <pt x="601" y="1374" on="1"/>
        <pt x="787" y="1374" on="1"/>
        <pt x="704" y="1201" on="0"/>
        <pt x="549" y="861" on="0"/>
        <pt x="473" y="685" on="1"/>
        <pt x="544" y="524" on="0"/>
        <pt x="705" y="189" on="0"/>
        <pt x="797" y="0" on="1"/>
        <pt x="612" y="0" on="1"/>
        <pt x="558" y="138" on="0"/>
        <pt x="455" y="395" on="0"/>
        <pt x="403" y="520" on="1"/>
        <pt x="351" y="395" on="0"/>
        <pt x="248" y="138" on="0"/>
        <pt x="195" y="0" on="1"/>
        <pt x="10" y="0" on="1"/>
        <pt x="101" y="189" on="0"/>
        <pt x="262" y="524" on="0"/>
        <pt x="334" y="685" on="1"/>
        <pt x="258" y="861" on="0"/>
        <pt x="102" y="1201" on="0"/>
        <pt x="20" y="1374" on="1"/>
      </contour>
    </TTGlyph>
    <TTGlyph name="Y" xMin="0" yMin="0" xMax="744" yMax="1374">
      <contour>
        <pt x="744" y="1374" on="1"/>
        <pt x="709" y="1285" on="0"/>
        <pt x="638" y="1102" on="0"/>
        <pt x="564" y="905" on="0"/>
        <pt x="489" y="692" on="0"/>
        <pt x="449" y="575" on="1"/>
        <pt x="450" y="427" on="0"/>
        <pt x="458" y="144" on="0"/>
        <pt x="466" y="0" on="1"/>
        <pt x="279" y="0" on="1"/>
        <pt x="288" y="144" on="0"/>
        <pt x="297" y="427" on="0"/>
        <pt x="298" y="575" on="1"/>
        <pt x="258" y="692" on="0"/>
        <pt x="182" y="905" on="0"/>
        <pt x="107" y="1102" on="0"/>
        <pt x="35" y="1285" on="0"/>
        <pt x="0" y="1374" on="1"/>
        <pt x="186" y="1374" on="1"/>
        <pt x="229" y="1201" on="0"/>
        <pt x="320" y="897" on="0"/>
        <pt x="369" y="758" on="1"/>
        <pt x="373" y="758" on="1"/>
        <pt x="422" y="897" on="0"/>
        <pt x="514" y="1201" on="0"/>
        <pt x="558" y="1374" on="1"/>
        <pt x="744" y="1374" on="1"/>
      </contour>
    </TTGlyph>
    <TTGlyph name="Yacute" xMin="0" yMin="0" xMax="744" yMax="1777">
      <component glyphName="Y" x="0" y="0" flags="0x204"/>
      <component glyphName="acute" x="81" y="362" flags="0x4"/>
    </TTGlyph>
    <TTGlyph name="Ycircumflex" xMin="0" yMin="0" xMax="744" yMax="1777">
      <component glyphName="Y" x="0" y="0" flags="0x204"/>
      <component glyphName="circumflex" x="102" y="362" flags="0x4"/>
    </TTGlyph>
    <TTGlyph name="Ydieresis" xMin="0" yMin="0" xMax="744" yMax="1683">
      <component glyphName="Y" x="0" y="0" flags="0x204"/>
      <component glyphName="dieresis" x="101" y="362" flags="0x4"/>
    </TTGlyph>
    <TTGlyph name="Ygrave" xMin="0" yMin="0" xMax="744" yMax="1777">
      <component glyphName="Y" x="0" y="0" flags="0x204"/>
      <component glyphName="grave" x="77" y="362" flags="0x4"/>
    </TTGlyph>
    <TTGlyph name="Z" xMin="40" yMin="0" xMax="711" yMax="1374">
      <contour>
        <pt x="40" y="0" on="1"/>
        <pt x="40" y="10" on="1"/>
        <pt x="161" y="313" on="0"/>
        <pt x="384" y="947" on="0"/>
        <pt x="477" y="1257" on="1"/>
        <pt x="65" y="1257" on="1"/>
        <pt x="65" y="1374" on="1"/>
        <pt x="705" y="1374" on="1"/>
        <pt x="705" y="1364" on="1"/>
        <pt x="584" y="1061" on="0"/>
        <pt x="356" y="427" on="0"/>
        <pt x="263" y="117" on="1"/>
        <pt x="711" y="117" on="1"/>
        <pt x="711" y="0" on="1"/>
      </contour>
    </TTGlyph>
    <TTGlyph name="Zacute" xMin="40" yMin="0" xMax="711" yMax="1777">
      <component glyphName="Z" x="0" y="0" flags="0x204"/>
      <component glyphName="acute" x="88" y="362" flags="0x4"/>
    </TTGlyph>
    <TTGlyph name="Zcaron" xMin="40" yMin="0" xMax="711" yMax="1777">
      <component glyphName="Z" x="0" y="0" flags="0x204"/>
      <component glyphName="caron" x="109" y="362" flags="0x4"/>
    </TTGlyph>
    <TTGlyph name="Zdotaccent" xMin="40" yMin="0" xMax="711" yMax="1692">
      <component glyphName="Z" x="0" y="0" flags="0x204"/>
      <component glyphName="dotaccent" x="109" y="362" flags="0x4"/>
    </TTGlyph>
    <TTGlyph name="a" xMin="50" yMin="-25" xMax="799" yMax="1399">
      <contour>
        <pt x="608" y="0" on="1"/>
        <pt x="613" y="121" on="1"/>
        <pt x="589" y="94" on="0"/>
        <pt x="539" y="41" on="0"/>
        <pt x="477" y="0" on="0"/>
        <pt x="398" y="-25" on="0"/>
        <pt x="344" y="-25" on="1"/>
        <pt x="282" y="-25" on="0"/>
        <pt x="175" y="26" on="0"/>
        <pt x="96" y="124" on="0"/>
        <pt x="50" y="269" on="0"/>
        <pt x="50" y="364" on="1"/>
        <pt x="50" y="485" on="0"/>
        <pt x="124" y="657" on="0"/>
        <pt x="269" y="777" on="0"/>
        <pt x="484" y="851" on="0"/>
        <pt x="625" y="874" on="1"/>
        <pt x="625" y="995" on="0"/>
        <pt x="600" y="1153" on="0"/>
        <pt x="552" y="1246" on="0"/>
        <pt x="481" y="1282" on="0"/>
        <pt x="435" y="1282" on="1"/>
        <pt x="395" y="1282" on="0"/>
        <pt x="315" y="1257" on="0"/>
        <pt x="236" y="1215" on="0"/>
        <pt x="157" y="1160" on="0"/>
        <pt x="119" y="1130" on="1"/>
        <pt x="119" y="1324" on="1"/>
        <pt x="161" y="1340" on="0"/>
        <pt x="237" y="1367" on="0"/>
        <pt x="314" y="1387" on="0"/>
        <pt x="392" y="1399" on="0"/>
        <pt x="436" y="1399" on="1"/>
        <pt x="524" y="1399" on="0"/>
        <pt x="655" y="1351" on="0"/>
        <pt x="742" y="1247" on="0"/>
        <pt x="785" y="1083" on="0"/>
        <pt x="785" y="968" on="1"/>
        <pt x="785" y="957" on="0"/>
        <pt x="784" y="905" on="0"/>
        <pt x="783" y="835" on="0"/>
        <pt x="782" y="755" on="0"/>
        <pt x="781" y="677" on="0"/>
        <pt x="780" y="608" on="0"/>
        <pt x="780" y="585" on="1"/>
        <pt x="780" y="532" on="0"/>
        <pt x="782" y="399" on="0"/>
        <pt x="787" y="249" on="0"/>
        <pt x="794" y="85" on="0"/>
        <pt x="799" y="0" on="1"/>
      </contour>
      <contour>
        <pt x="620" y="273" on="1"/>
        <pt x="623" y="375" on="0"/>
        <pt x="627" y="608" on="0"/>
        <pt x="627" y="758" on="1"/>
        <pt x="500" y="743" on="0"/>
        <pt x="344" y="675" on="0"/>
        <pt x="258" y="576" on="0"/>
        <pt x="228" y="450" on="0"/>
        <pt x="228" y="376" on="1"/>
        <pt x="228" y="313" on="0"/>
        <pt x="251" y="211" on="0"/>
        <pt x="295" y="140" on="0"/>
        <pt x="355" y="102" on="0"/>
        <pt x="393" y="102" on="1"/>
        <pt x="436" y="102" on="0"/>
        <pt x="501" y="133" on="0"/>
        <pt x="554" y="182" on="0"/>
        <pt x="598" y="243" on="0"/>
      </contour>
    </TTGlyph>
    <TTGlyph name="aacute" xMin="50" yMin="-25" xMax="799" yMax="1777">
      <component glyphName="a" x="0" y="0" flags="0x204"/>
      <component glyphName="acute" x="125" y="362" flags="0x4"/>
    </TTGlyph>
    <TTGlyph name="abreve" xMin="50" yMin="-25" xMax="799" yMax="1733">
      <component glyphName="a" x="0" y="0" flags="0x204"/>
      <component glyphName="breve" x="166" y="362" flags="0x4"/>
    </TTGlyph>
    <TTGlyph name="acircumflex" xMin="50" yMin="-25" xMax="799" yMax="1777">
      <component glyphName="a" x="0" y="0" flags="0x204"/>
      <component glyphName="circumflex" x="166" y="362" flags="0x4"/>
    </TTGlyph>
    <TTGlyph name="acute" xMin="234" yMin="1139" xMax="543" yMax="1415">
      <contour>
        <pt x="234" y="1139" on="1"/>
        <pt x="365" y="1415" on="1"/>
        <pt x="543" y="1415" on="1"/>
        <pt x="340" y="1139" on="1"/>
      </contour>
    </TTGlyph>
    <TTGlyph name="adieresis" xMin="50" yMin="-25" xMax="799" yMax="1683">
      <component glyphName="a" x="0" y="0" flags="0x204"/>
      <component glyphName="dieresis" x="165" y="362" flags="0x4"/>
    </TTGlyph>
    <TTGlyph name="ae" xMin="50" yMin="-27" xMax="1386" yMax="1399">
      <contour>
        <pt x="1083" y="90" on="1"/>
        <pt x="1127" y="90" on="0"/>
        <pt x="1198" y="112" on="0"/>
        <pt x="1258" y="145" on="0"/>
        <pt x="1308" y="186" on="0"/>
        <pt x="1331" y="205" on="1"/>
        <pt x="1331" y="8" on="1"/>
        <pt x="1305" y="3" on="0"/>
        <pt x="1252" y="-9" on="0"/>
        <pt x="1187" y="-19" on="0"/>
        <pt x="1107" y="-27" on="0"/>
        <pt x="1055" y="-27" on="1"/>
        <pt x="856" y="-27" on="0"/>
        <pt x="750" y="133" on="1"/>
        <pt x="694" y="86" on="0"/>
        <pt x="595" y="24" on="0"/>
        <pt x="502" y="-12" on="0"/>
        <pt x="411" y="-26" on="0"/>
        <pt x="364" y="-26" on="1"/>
        <pt x="295" y="-26" on="0"/>
        <pt x="180" y="25" on="0"/>
        <pt x="96" y="124" on="0"/>
        <pt x="50" y="269" on="0"/>
        <pt x="50" y="364" on="1"/>
        <pt x="50" y="485" on="0"/>
        <pt x="126" y="656" on="0"/>
        <pt x="274" y="775" on="0"/>
        <pt x="492" y="848" on="0"/>
        <pt x="633" y="871" on="1"/>
        <pt x="633" y="992" on="0"/>
        <pt x="606" y="1151" on="0"/>
        <pt x="555" y="1245" on="0"/>
        <pt x="481" y="1282" on="0"/>
        <pt x="435" y="1282" on="1"/>
        <pt x="395" y="1282" on="0"/>
        <pt x="315" y="1257" on="0"/>
        <pt x="236" y="1215" on="0"/>
        <pt x="157" y="1160" on="0"/>
        <pt x="119" y="1130" on="1"/>
        <pt x="119" y="1324" on="1"/>
        <pt x="161" y="1340" on="0"/>
        <pt x="237" y="1367" on="0"/>
        <pt x="314" y="1387" on="0"/>
        <pt x="392" y="1399" on="0"/>
        <pt x="436" y="1399" on="1"/>
        <pt x="548" y="1399" on="0"/>
        <pt x="697" y="1321" on="0"/>
        <pt x="738" y="1236" on="1"/>
        <pt x="783" y="1314" on="0"/>
        <pt x="915" y="1399" on="0"/>
        <pt x="1004" y="1399" on="1"/>
        <pt x="1105" y="1399" on="0"/>
        <pt x="1250" y="1306" on="0"/>
        <pt x="1343" y="1129" on="0"/>
        <pt x="1386" y="871" on="0"/>
        <pt x="1386" y="705" on="1"/>
        <pt x="1386" y="668" on="1"/>
        <pt x="782" y="668" on="1"/>
        <pt x="788" y="509" on="0"/>
        <pt x="827" y="289" on="0"/>
        <pt x="899" y="151" on="0"/>
        <pt x="1008" y="90" on="0"/>
      </contour>
      <contour>
        <pt x="403" y="95" on="1"/>
        <pt x="446" y="95" on="0"/>
        <pt x="531" y="120" on="0"/>
        <pt x="607" y="162" on="0"/>
        <pt x="671" y="215" on="0"/>
        <pt x="695" y="243" on="1"/>
        <pt x="630" y="411" on="0"/>
        <pt x="630" y="682" on="1"/>
        <pt x="630" y="703" on="0"/>
        <pt x="630" y="743" on="0"/>
        <pt x="631" y="763" on="1"/>
        <pt x="506" y="747" on="0"/>
        <pt x="348" y="677" on="0"/>
        <pt x="260" y="577" on="0"/>
        <pt x="228" y="449" on="0"/>
        <pt x="228" y="376" on="1"/>
        <pt x="228" y="313" on="0"/>
        <pt x="252" y="209" on="0"/>
        <pt x="297" y="135" on="0"/>
        <pt x="362" y="95" on="0"/>
      </contour>
      <contour>
        <pt x="1214" y="784" on="1"/>
        <pt x="1212" y="842" on="0"/>
        <pt x="1204" y="962" on="0"/>
        <pt x="1187" y="1074" on="0"/>
        <pt x="1158" y="1172" on="0"/>
        <pt x="1112" y="1244" on="0"/>
        <pt x="1046" y="1286" on="0"/>
        <pt x="1001" y="1286" on="1"/>
        <pt x="941" y="1286" on="0"/>
        <pt x="862" y="1198" on="0"/>
        <pt x="813" y="1056" on="0"/>
        <pt x="789" y="876" on="0"/>
        <pt x="784" y="784" on="1"/>
      </contour>
    </TTGlyph>
    <TTGlyph name="aeacute" xMin="50" yMin="-27" xMax="1386" yMax="1777">
      <component glyphName="ae" x="0" y="0" flags="0x204"/>
      <component glyphName="acute" x="446" y="362" flags="0x4"/>
    </TTGlyph>
    <TTGlyph name="agrave" xMin="50" yMin="-25" xMax="799" yMax="1777">
      <component glyphName="a" x="0" y="0" flags="0x204"/>
      <component glyphName="grave" x="121" y="362" flags="0x4"/>
    </TTGlyph>
    <TTGlyph name="amacron" xMin="50" yMin="-25" xMax="799" yMax="1649">
      <component glyphName="a" x="0" y="0" flags="0x204"/>
      <component glyphName="macron" x="166" y="363" flags="0x4"/>
    </TTGlyph>
    <TTGlyph name="ampersand" xMin="74" yMin="-27" xMax="931" yMax="1399">
      <contour>
        <pt x="715" y="0" on="1"/>
        <pt x="682" y="34" on="0"/>
        <pt x="649" y="75" on="1"/>
        <pt x="599" y="28" on="0"/>
        <pt x="477" y="-27" on="0"/>
        <pt x="403" y="-27" on="1"/>
        <pt x="328" y="-27" on="0"/>
        <pt x="206" y="21" on="0"/>
        <pt x="121" y="113" on="0"/>
        <pt x="74" y="245" on="0"/>
        <pt x="74" y="329" on="1"/>
        <pt x="74" y="395" on="0"/>
        <pt x="103" y="506" on="0"/>
        <pt x="151" y="603" on="0"/>
        <pt x="215" y="687" on="0"/>
        <pt x="250" y="726" on="1"/>
        <pt x="214" y="820" on="0"/>
        <pt x="172" y="1001" on="0"/>
        <pt x="172" y="1087" on="1"/>
        <pt x="172" y="1164" on="0"/>
        <pt x="212" y="1281" on="0"/>
        <pt x="281" y="1359" on="0"/>
        <pt x="375" y="1399" on="0"/>
        <pt x="429" y="1399" on="1"/>
        <pt x="476" y="1399" on="0"/>
        <pt x="559" y="1367" on="0"/>
        <pt x="620" y="1304" on="0"/>
        <pt x="656" y="1211" on="0"/>
        <pt x="656" y="1150" on="1"/>
        <pt x="656" y="1081" on="0"/>
        <pt x="611" y="966" on="0"/>
        <pt x="541" y="866" on="0"/>
        <pt x="452" y="773" on="0"/>
        <pt x="409" y="725" on="1"/>
        <pt x="456" y="621" on="0"/>
        <pt x="587" y="414" on="0"/>
        <pt x="668" y="309" on="1"/>
        <pt x="686" y="351" on="0"/>
        <pt x="713" y="441" on="0"/>
        <pt x="731" y="530" on="0"/>
        <pt x="741" y="613" on="0"/>
        <pt x="743" y="649" on="1"/>
        <pt x="908" y="649" on="1"/>
        <pt x="899" y="601" on="0"/>
        <pt x="872" y="489" on="0"/>
        <pt x="834" y="372" on="0"/>
        <pt x="784" y="256" on="0"/>
        <pt x="752" y="204" on="1"/>
        <pt x="795" y="153" on="0"/>
        <pt x="884" y="51" on="0"/>
        <pt x="931" y="0" on="1"/>
      </contour>
      <contour>
        <pt x="418" y="89" on="1"/>
        <pt x="466" y="89" on="0"/>
        <pt x="545" y="129" on="0"/>
        <pt x="578" y="164" on="1"/>
        <pt x="504" y="261" on="0"/>
        <pt x="364" y="480" on="0"/>
        <pt x="307" y="596" on="1"/>
        <pt x="273" y="542" on="0"/>
        <pt x="231" y="418" on="0"/>
        <pt x="231" y="341" on="1"/>
        <pt x="231" y="287" on="0"/>
        <pt x="255" y="195" on="0"/>
        <pt x="303" y="128" on="0"/>
        <pt x="373" y="89" on="0"/>
      </contour>
      <contour>
        <pt x="320" y="1096" on="1"/>
        <pt x="320" y="1034" on="0"/>
        <pt x="342" y="909" on="0"/>
        <pt x="362" y="845" on="1"/>
        <pt x="393" y="878" on="0"/>
        <pt x="448" y="946" on="0"/>
        <pt x="489" y="1019" on="0"/>
        <pt x="513" y="1099" on="0"/>
        <pt x="513" y="1144" on="1"/>
        <pt x="513" y="1185" on="0"/>
        <pt x="499" y="1241" on="0"/>
        <pt x="475" y="1274" on="0"/>
        <pt x="444" y="1288" on="0"/>
        <pt x="427" y="1288" on="1"/>
        <pt x="380" y="1288" on="0"/>
        <pt x="320" y="1193" on="0"/>
      </contour>
    </TTGlyph>
    <TTGlyph name="aogonek" xMin="50" yMin="-340" xMax="819" yMax="1399">
      <contour>
        <pt x="799" y="0" on="1"/>
        <pt x="725" y="-39" on="0"/>
        <pt x="658" y="-130" on="0"/>
        <pt x="658" y="-176" on="1"/>
        <pt x="658" y="-213" on="0"/>
        <pt x="700" y="-251" on="0"/>
        <pt x="732" y="-251" on="1"/>
        <pt x="758" y="-251" on="0"/>
        <pt x="805" y="-230" on="0"/>
        <pt x="819" y="-212" on="1"/>
        <pt x="819" y="-322" on="1"/>
        <pt x="799" y="-330" on="0"/>
        <pt x="751" y="-340" on="0"/>
        <pt x="717" y="-340" on="1"/>
        <pt x="688" y="-340" on="0"/>
        <pt x="631" y="-324" on="0"/>
        <pt x="586" y="-289" on="0"/>
        <pt x="559" y="-233" on="0"/>
        <pt x="559" y="-193" on="1"/>
        <pt x="559" y="-137" on="0"/>
        <pt x="626" y="-36" on="0"/>
        <pt x="675" y="0" on="1"/>
        <pt x="608" y="0" on="1"/>
        <pt x="613" y="121" on="1"/>
        <pt x="589" y="94" on="0"/>
        <pt x="539" y="41" on="0"/>
        <pt x="477" y="0" on="0"/>
        <pt x="398" y="-25" on="0"/>
        <pt x="344" y="-25" on="1"/>
        <pt x="282" y="-25" on="0"/>
        <pt x="175" y="26" on="0"/>
        <pt x="96" y="124" on="0"/>
        <pt x="50" y="269" on="0"/>
        <pt x="50" y="364" on="1"/>
        <pt x="50" y="485" on="0"/>
        <pt x="124" y="657" on="0"/>
        <pt x="269" y="777" on="0"/>
        <pt x="484" y="851" on="0"/>
        <pt x="625" y="874" on="1"/>
        <pt x="625" y="995" on="0"/>
        <pt x="600" y="1153" on="0"/>
        <pt x="552" y="1246" on="0"/>
        <pt x="481" y="1282" on="0"/>
        <pt x="435" y="1282" on="1"/>
        <pt x="395" y="1282" on="0"/>
        <pt x="315" y="1257" on="0"/>
        <pt x="236" y="1215" on="0"/>
        <pt x="157" y="1160" on="0"/>
        <pt x="119" y="1130" on="1"/>
        <pt x="119" y="1324" on="1"/>
        <pt x="161" y="1340" on="0"/>
        <pt x="237" y="1367" on="0"/>
        <pt x="314" y="1387" on="0"/>
        <pt x="392" y="1399" on="0"/>
        <pt x="436" y="1399" on="1"/>
        <pt x="524" y="1399" on="0"/>
        <pt x="655" y="1351" on="0"/>
        <pt x="742" y="1247" on="0"/>
        <pt x="785" y="1083" on="0"/>
        <pt x="785" y="968" on="1"/>
        <pt x="785" y="957" on="0"/>
        <pt x="784" y="905" on="0"/>
        <pt x="783" y="835" on="0"/>
        <pt x="782" y="755" on="0"/>
        <pt x="781" y="677" on="0"/>
        <pt x="780" y="608" on="0"/>
        <pt x="780" y="585" on="1"/>
        <pt x="780" y="532" on="0"/>
        <pt x="782" y="399" on="0"/>
        <pt x="787" y="249" on="0"/>
        <pt x="794" y="85" on="0"/>
      </contour>
      <contour>
        <pt x="620" y="273" on="1"/>
        <pt x="623" y="375" on="0"/>
        <pt x="627" y="608" on="0"/>
        <pt x="627" y="758" on="1"/>
        <pt x="500" y="743" on="0"/>
        <pt x="344" y="675" on="0"/>
        <pt x="258" y="576" on="0"/>
        <pt x="228" y="450" on="0"/>
        <pt x="228" y="376" on="1"/>
        <pt x="228" y="313" on="0"/>
        <pt x="251" y="211" on="0"/>
        <pt x="295" y="140" on="0"/>
        <pt x="355" y="102" on="0"/>
        <pt x="393" y="102" on="1"/>
        <pt x="436" y="102" on="0"/>
        <pt x="501" y="133" on="0"/>
        <pt x="554" y="182" on="0"/>
        <pt x="598" y="243" on="0"/>
      </contour>
    </TTGlyph>
    <TTGlyph name="approxequal" xMin="170" yMin="412" xMax="954" yMax="961">
      <contour>
        <pt x="954" y="516" on="1"/>
        <pt x="919" y="474" on="0"/>
        <pt x="823" y="415" on="0"/>
        <pt x="755" y="415" on="1"/>
        <pt x="702" y="415" on="0"/>
        <pt x="607" y="450" on="0"/>
        <pt x="513" y="491" on="0"/>
        <pt x="416" y="526" on="0"/>
        <pt x="362" y="526" on="1"/>
        <pt x="332" y="526" on="0"/>
        <pt x="277" y="505" on="0"/>
        <pt x="228" y="472" on="0"/>
        <pt x="186" y="432" on="0"/>
        <pt x="170" y="412" on="1"/>
        <pt x="170" y="548" on="1"/>
        <pt x="206" y="591" on="0"/>
        <pt x="311" y="648" on="0"/>
        <pt x="369" y="648" on="1"/>
        <pt x="421" y="648" on="0"/>
        <pt x="517" y="613" on="0"/>
        <pt x="611" y="572" on="0"/>
        <pt x="709" y="537" on="0"/>
        <pt x="763" y="537" on="1"/>
        <pt x="792" y="537" on="0"/>
        <pt x="847" y="557" on="0"/>
        <pt x="895" y="590" on="0"/>
        <pt x="937" y="631" on="0"/>
        <pt x="954" y="652" on="1"/>
      </contour>
      <contour>
        <pt x="954" y="825" on="1"/>
        <pt x="919" y="783" on="0"/>
        <pt x="823" y="724" on="0"/>
        <pt x="755" y="724" on="1"/>
        <pt x="702" y="724" on="0"/>
        <pt x="607" y="759" on="0"/>
        <pt x="513" y="800" on="0"/>
        <pt x="416" y="835" on="0"/>
        <pt x="362" y="835" on="1"/>
        <pt x="332" y="835" on="0"/>
        <pt x="277" y="814" on="0"/>
        <pt x="228" y="781" on="0"/>
        <pt x="186" y="741" on="0"/>
        <pt x="170" y="721" on="1"/>
        <pt x="170" y="857" on="1"/>
        <pt x="206" y="900" on="0"/>
        <pt x="311" y="957" on="0"/>
        <pt x="369" y="957" on="1"/>
        <pt x="421" y="957" on="0"/>
        <pt x="517" y="922" on="0"/>
        <pt x="611" y="881" on="0"/>
        <pt x="709" y="846" on="0"/>
        <pt x="763" y="846" on="1"/>
        <pt x="792" y="846" on="0"/>
        <pt x="847" y="866" on="0"/>
        <pt x="895" y="899" on="0"/>
        <pt x="937" y="940" on="0"/>
        <pt x="954" y="961" on="1"/>
      </contour>
    </TTGlyph>
    <TTGlyph name="aring" xMin="50" yMin="-25" xMax="799" yMax="1820">
      <component glyphName="a" x="0" y="0" flags="0x204"/>
      <component glyphName="ring" x="166" y="362" flags="0x4"/>
    </TTGlyph>
    <TTGlyph name="asciicircum" xMin="110" yMin="778" xMax="640" yMax="1374">
      <contour>
        <pt x="509" y="778" on="1"/>
        <pt x="376" y="1212" on="1"/>
        <pt x="243" y="778" on="1"/>
        <pt x="110" y="778" on="1"/>
        <pt x="327" y="1374" on="1"/>
        <pt x="425" y="1374" on="1"/>
        <pt x="640" y="778" on="1"/>
      </contour>
    </TTGlyph>
    <TTGlyph name="asciitilde" xMin="100" yMin="561" xMax="1024" yMax="810">
      <contour>
        <pt x="1024" y="665" on="1"/>
        <pt x="982" y="623" on="0"/>
        <pt x="869" y="564" on="0"/>
        <pt x="789" y="564" on="1"/>
        <pt x="727" y="564" on="0"/>
        <pt x="615" y="599" on="0"/>
        <pt x="504" y="640" on="0"/>
        <pt x="390" y="675" on="0"/>
        <pt x="326" y="675" on="1"/>
        <pt x="291" y="675" on="0"/>
        <pt x="226" y="654" on="0"/>
        <pt x="169" y="621" on="0"/>
        <pt x="119" y="581" on="0"/>
        <pt x="100" y="561" on="1"/>
        <pt x="100" y="706" on="1"/>
        <pt x="142" y="749" on="0"/>
        <pt x="266" y="806" on="0"/>
        <pt x="334" y="806" on="1"/>
        <pt x="395" y="806" on="0"/>
        <pt x="508" y="771" on="0"/>
        <pt x="620" y="730" on="0"/>
        <pt x="735" y="695" on="0"/>
        <pt x="799" y="695" on="1"/>
        <pt x="833" y="695" on="0"/>
        <pt x="898" y="715" on="0"/>
        <pt x="955" y="748" on="0"/>
        <pt x="1004" y="789" on="0"/>
        <pt x="1024" y="810" on="1"/>
        <pt x="1024" y="665" on="1"/>
      </contour>
    </TTGlyph>
    <TTGlyph name="asterisk" xMin="70" yMin="878" xMax="558" yMax="1374">
      <contour>
        <pt x="71" y="1051" on="1"/>
        <pt x="108" y="1062" on="0"/>
        <pt x="188" y="1099" on="0"/>
        <pt x="235" y="1125" on="1"/>
        <pt x="190" y="1149" on="0"/>
        <pt x="106" y="1187" on="0"/>
        <pt x="70" y="1198" on="1"/>
        <pt x="127" y="1298" on="1"/>
        <pt x="153" y="1274" on="0"/>
        <pt x="226" y="1222" on="0"/>
        <pt x="273" y="1194" on="1"/>
        <pt x="272" y="1249" on="0"/>
        <pt x="264" y="1338" on="0"/>
        <pt x="256" y="1374" on="1"/>
        <pt x="371" y="1374" on="1"/>
        <pt x="361" y="1337" on="0"/>
        <pt x="354" y="1248" on="0"/>
        <pt x="353" y="1193" on="1"/>
        <pt x="398" y="1221" on="0"/>
        <pt x="470" y="1272" on="0"/>
        <pt x="497" y="1298" on="1"/>
        <pt x="558" y="1198" on="1"/>
        <pt x="520" y="1187" on="0"/>
        <pt x="440" y="1151" on="0"/>
        <pt x="395" y="1126" on="1"/>
        <pt x="440" y="1102" on="0"/>
        <pt x="521" y="1063" on="0"/>
        <pt x="558" y="1053" on="1"/>
        <pt x="500" y="951" on="1"/>
        <pt x="474" y="977" on="0"/>
        <pt x="399" y="1029" on="0"/>
        <pt x="353" y="1057" on="1"/>
        <pt x="354" y="1001" on="0"/>
        <pt x="361" y="912" on="0"/>
        <pt x="371" y="878" on="1"/>
        <pt x="256" y="878" on="1"/>
        <pt x="264" y="912" on="0"/>
        <pt x="272" y="1000" on="0"/>
        <pt x="273" y="1055" on="1"/>
        <pt x="226" y="1026" on="0"/>
        <pt x="154" y="977" on="0"/>
        <pt x="127" y="951" on="1"/>
      </contour>
    </TTGlyph>
    <TTGlyph name="at" xMin="135" yMin="-27" xMax="1421" yMax="1400">
      <contour>
        <pt x="927" y="428" on="1"/>
        <pt x="911" y="408" on="0"/>
        <pt x="866" y="370" on="0"/>
        <pt x="812" y="339" on="0"/>
        <pt x="750" y="320" on="0"/>
        <pt x="716" y="320" on="1"/>
        <pt x="660" y="320" on="0"/>
        <pt x="566" y="357" on="0"/>
        <pt x="497" y="431" on="0"/>
        <pt x="458" y="540" on="0"/>
        <pt x="458" y="612" on="1"/>
        <pt x="458" y="718" on="0"/>
        <pt x="524" y="881" on="0"/>
        <pt x="629" y="991" on="0"/>
        <pt x="760" y="1048" on="0"/>
        <pt x="824" y="1048" on="1"/>
        <pt x="862" y="1048" on="0"/>
        <pt x="940" y="1021" on="0"/>
        <pt x="973" y="998" on="1"/>
        <pt x="980" y="1037" on="1"/>
        <pt x="1112" y="1037" on="1"/>
        <pt x="1054" y="532" on="1"/>
        <pt x="1050" y="503" on="0"/>
        <pt x="1058" y="463" on="0"/>
        <pt x="1076" y="438" on="0"/>
        <pt x="1103" y="426" on="0"/>
        <pt x="1118" y="426" on="1"/>
        <pt x="1160" y="426" on="0"/>
        <pt x="1227" y="492" on="0"/>
        <pt x="1275" y="597" on="0"/>
        <pt x="1300" y="730" on="0"/>
        <pt x="1300" y="798" on="1"/>
        <pt x="1300" y="917" on="0"/>
        <pt x="1236" y="1096" on="0"/>
        <pt x="1116" y="1215" on="0"/>
        <pt x="945" y="1275" on="0"/>
        <pt x="838" y="1275" on="1"/>
        <pt x="715" y="1275" on="0"/>
        <pt x="511" y="1164" on="0"/>
        <pt x="364" y="981" on="0"/>
        <pt x="283" y="747" on="0"/>
        <pt x="283" y="624" on="1"/>
        <pt x="283" y="499" on="0"/>
        <pt x="350" y="301" on="0"/>
        <pt x="477" y="164" on="0"/>
        <pt x="660" y="92" on="0"/>
        <pt x="775" y="92" on="1"/>
        <pt x="867" y="92" on="0"/>
        <pt x="1047" y="138" on="0"/>
        <pt x="1134" y="188" on="1"/>
        <pt x="1184" y="89" on="1"/>
        <pt x="1090" y="35" on="0"/>
        <pt x="878" y="-27" on="0"/>
        <pt x="765" y="-27" on="1"/>
        <pt x="623" y="-27" on="0"/>
        <pt x="391" y="62" on="0"/>
        <pt x="226" y="231" on="0"/>
        <pt x="135" y="477" on="0"/>
        <pt x="135" y="634" on="1"/>
        <pt x="135" y="738" on="0"/>
        <pt x="185" y="933" on="0"/>
        <pt x="277" y="1103" on="0"/>
        <pt x="407" y="1244" on="0"/>
        <pt x="566" y="1344" on="0"/>
        <pt x="750" y="1400" on="0"/>
        <pt x="850" y="1400" on="1"/>
        <pt x="973" y="1400" on="0"/>
        <pt x="1182" y="1318" on="0"/>
        <pt x="1335" y="1164" on="0"/>
        <pt x="1421" y="942" on="0"/>
        <pt x="1421" y="802" on="1"/>
        <pt x="1421" y="712" on="0"/>
        <pt x="1374" y="540" on="0"/>
        <pt x="1288" y="406" on="0"/>
        <pt x="1167" y="324" on="0"/>
        <pt x="1093" y="324" on="1"/>
        <pt x="1074" y="324" on="0"/>
        <pt x="1028" y="333" on="0"/>
        <pt x="982" y="356" on="0"/>
        <pt x="941" y="396" on="0"/>
      </contour>
      <contour>
        <pt x="742" y="410" on="1"/>
        <pt x="836" y="410" on="0"/>
        <pt x="916" y="534" on="1"/>
        <pt x="958" y="890" on="1"/>
        <pt x="924" y="926" on="0"/>
        <pt x="861" y="962" on="0"/>
        <pt x="815" y="962" on="1"/>
        <pt x="779" y="962" on="0"/>
        <pt x="704" y="914" on="0"/>
        <pt x="644" y="825" on="0"/>
        <pt x="606" y="697" on="0"/>
        <pt x="606" y="617" on="1"/>
        <pt x="606" y="564" on="0"/>
        <pt x="628" y="486" on="0"/>
        <pt x="665" y="435" on="0"/>
        <pt x="714" y="410" on="0"/>
      </contour>
    </TTGlyph>
    <TTGlyph name="atilde" xMin="50" yMin="-25" xMax="799" yMax="1732">
      <component glyphName="a" x="0" y="0" flags="0x204"/>
      <component glyphName="tilde" x="165" y="362" flags="0x4"/>
    </TTGlyph>
    <TTGlyph name="b" xMin="100" yMin="0" xMax="839" yMax="1374">
      <contour>
        <pt x="438" y="1374" on="1"/>
        <pt x="518" y="1374" on="0"/>
        <pt x="649" y="1335" on="0"/>
        <pt x="743" y="1254" on="0"/>
        <pt x="794" y="1126" on="0"/>
        <pt x="794" y="1038" on="1"/>
        <pt x="794" y="967" on="0"/>
        <pt x="764" y="861" on="0"/>
        <pt x="713" y="787" on="0"/>
        <pt x="647" y="742" on="0"/>
        <pt x="610" y="733" on="1"/>
        <pt x="654" y="725" on="0"/>
        <pt x="737" y="676" on="0"/>
        <pt x="801" y="589" on="0"/>
        <pt x="839" y="463" on="0"/>
        <pt x="839" y="379" on="1"/>
        <pt x="839" y="291" on="0"/>
        <pt x="800" y="151" on="0"/>
        <pt x="715" y="53" on="0"/>
        <pt x="580" y="0" on="0"/>
        <pt x="483" y="0" on="1"/>
        <pt x="100" y="0" on="1"/>
        <pt x="106" y="85" on="0"/>
        <pt x="113" y="264" on="0"/>
        <pt x="117" y="441" on="0"/>
        <pt x="119" y="611" on="0"/>
        <pt x="119" y="688" on="1"/>
        <pt x="119" y="765" on="0"/>
        <pt x="117" y="935" on="0"/>
        <pt x="113" y="1111" on="0"/>
        <pt x="106" y="1289" on="0"/>
        <pt x="100" y="1374" on="1"/>
      </contour>
      <contour>
        <pt x="270" y="670" on="1"/>
        <pt x="270" y="543" on="0"/>
        <pt x="275" y="258" on="0"/>
        <pt x="281" y="115" on="1"/>
        <pt x="474" y="115" on="1"/>
        <pt x="519" y="115" on="0"/>
        <pt x="591" y="144" on="0"/>
        <pt x="641" y="212" on="0"/>
        <pt x="667" y="321" on="0"/>
        <pt x="667" y="401" on="1"/>
        <pt x="667" y="479" on="0"/>
        <pt x="638" y="582" on="0"/>
        <pt x="585" y="644" on="0"/>
        <pt x="511" y="670" on="0"/>
        <pt x="466" y="670" on="1"/>
      </contour>
      <contour>
        <pt x="282" y="1260" on="1"/>
        <pt x="276" y="1139" on="0"/>
        <pt x="271" y="896" on="0"/>
        <pt x="270" y="784" on="1"/>
        <pt x="450" y="784" on="1"/>
        <pt x="499" y="784" on="0"/>
        <pt x="566" y="810" on="0"/>
        <pt x="606" y="865" on="0"/>
        <pt x="624" y="951" on="0"/>
        <pt x="624" y="1010" on="1"/>
        <pt x="624" y="1067" on="0"/>
        <pt x="608" y="1160" on="0"/>
        <pt x="568" y="1225" on="0"/>
        <pt x="501" y="1260" on="0"/>
        <pt x="450" y="1260" on="1"/>
      </contour>
    </TTGlyph>
    <TTGlyph name="backslash" xMin="33" yMin="-41" xMax="467" yMax="1415">
      <contour>
        <pt x="33" y="1415" on="1"/>
        <pt x="153" y="1415" on="1"/>
        <pt x="467" y="-41" on="1"/>
        <pt x="347" y="-41" on="1"/>
      </contour>
    </TTGlyph>
    <TTGlyph name="bar" xMin="185" yMin="-483" xMax="327" yMax="1565">
      <contour>
        <pt x="185" y="-483" on="1"/>
        <pt x="185" y="1565" on="1"/>
        <pt x="327" y="1565" on="1"/>
        <pt x="327" y="-483" on="1"/>
      </contour>
    </TTGlyph>
    <TTGlyph name="braceleft" xMin="50" yMin="-121" xMax="647" yMax="1489">
      <contour>
        <pt x="50" y="737" on="1"/>
        <pt x="89" y="737" on="1"/>
        <pt x="153" y="737" on="0"/>
        <pt x="223" y="776" on="0"/>
        <pt x="255" y="831" on="0"/>
        <pt x="260" y="890" on="0"/>
        <pt x="260" y="911" on="1"/>
        <pt x="260" y="951" on="0"/>
        <pt x="247" y="1024" on="0"/>
        <pt x="232" y="1097" on="0"/>
        <pt x="220" y="1174" on="0"/>
        <pt x="220" y="1218" on="1"/>
        <pt x="220" y="1348" on="0"/>
        <pt x="428" y="1489" on="0"/>
        <pt x="647" y="1489" on="1"/>
        <pt x="647" y="1382" on="1"/>
        <pt x="571" y="1382" on="0"/>
        <pt x="470" y="1365" on="0"/>
        <pt x="410" y="1325" on="0"/>
        <pt x="385" y="1255" on="0"/>
        <pt x="385" y="1203" on="1"/>
        <pt x="385" y="1159" on="0"/>
        <pt x="397" y="1080" on="0"/>
        <pt x="412" y="1004" on="0"/>
        <pt x="425" y="928" on="0"/>
        <pt x="425" y="888" on="1"/>
        <pt x="425" y="808" on="0"/>
        <pt x="333" y="701" on="0"/>
        <pt x="225" y="686" on="1"/>
        <pt x="279" y="681" on="0"/>
        <pt x="355" y="645" on="0"/>
        <pt x="403" y="590" on="0"/>
        <pt x="425" y="520" on="0"/>
        <pt x="425" y="480" on="1"/>
        <pt x="425" y="439" on="0"/>
        <pt x="412" y="364" on="0"/>
        <pt x="397" y="288" on="0"/>
        <pt x="385" y="209" on="0"/>
        <pt x="385" y="165" on="1"/>
        <pt x="385" y="112" on="0"/>
        <pt x="410" y="43" on="0"/>
        <pt x="470" y="3" on="0"/>
        <pt x="571" y="-14" on="0"/>
        <pt x="647" y="-14" on="1"/>
        <pt x="647" y="-121" on="1"/>
        <pt x="428" y="-121" on="0"/>
        <pt x="220" y="20" on="0"/>
        <pt x="220" y="150" on="1"/>
        <pt x="220" y="193" on="0"/>
        <pt x="232" y="270" on="0"/>
        <pt x="247" y="344" on="0"/>
        <pt x="260" y="417" on="0"/>
        <pt x="260" y="457" on="1"/>
        <pt x="260" y="478" on="0"/>
        <pt x="255" y="538" on="0"/>
        <pt x="223" y="595" on="0"/>
        <pt x="153" y="635" on="0"/>
        <pt x="89" y="635" on="1"/>
        <pt x="50" y="635" on="1"/>
      </contour>
    </TTGlyph>
    <TTGlyph name="braceright" xMin="60" yMin="-121" xMax="657" yMax="1489">
      <contour>
        <pt x="657" y="635" on="1"/>
        <pt x="618" y="635" on="1"/>
        <pt x="553" y="635" on="0"/>
        <pt x="484" y="595" on="0"/>
        <pt x="452" y="538" on="0"/>
        <pt x="447" y="478" on="0"/>
        <pt x="447" y="457" on="1"/>
        <pt x="447" y="417" on="0"/>
        <pt x="459" y="344" on="0"/>
        <pt x="474" y="270" on="0"/>
        <pt x="487" y="193" on="0"/>
        <pt x="487" y="150" on="1"/>
        <pt x="487" y="20" on="0"/>
        <pt x="279" y="-121" on="0"/>
        <pt x="60" y="-121" on="1"/>
        <pt x="60" y="-14" on="1"/>
        <pt x="136" y="-14" on="0"/>
        <pt x="237" y="3" on="0"/>
        <pt x="297" y="43" on="0"/>
        <pt x="322" y="112" on="0"/>
        <pt x="322" y="165" on="1"/>
        <pt x="322" y="209" on="0"/>
        <pt x="309" y="288" on="0"/>
        <pt x="294" y="364" on="0"/>
        <pt x="282" y="439" on="0"/>
        <pt x="282" y="480" on="1"/>
        <pt x="282" y="520" on="0"/>
        <pt x="304" y="590" on="0"/>
        <pt x="352" y="645" on="0"/>
        <pt x="428" y="681" on="0"/>
        <pt x="482" y="686" on="1"/>
        <pt x="374" y="701" on="0"/>
        <pt x="282" y="808" on="0"/>
        <pt x="282" y="888" on="1"/>
        <pt x="282" y="928" on="0"/>
        <pt x="294" y="1004" on="0"/>
        <pt x="309" y="1080" on="0"/>
        <pt x="322" y="1159" on="0"/>
        <pt x="322" y="1203" on="1"/>
        <pt x="322" y="1255" on="0"/>
        <pt x="297" y="1325" on="0"/>
        <pt x="237" y="1365" on="0"/>
        <pt x="136" y="1382" on="0"/>
        <pt x="60" y="1382" on="1"/>
        <pt x="60" y="1489" on="1"/>
        <pt x="279" y="1489" on="0"/>
        <pt x="487" y="1348" on="0"/>
        <pt x="487" y="1218" on="1"/>
        <pt x="487" y="1174" on="0"/>
        <pt x="474" y="1097" on="0"/>
        <pt x="459" y="1024" on="0"/>
        <pt x="447" y="951" on="0"/>
        <pt x="447" y="911" on="1"/>
        <pt x="447" y="890" on="0"/>
        <pt x="452" y="831" on="0"/>
        <pt x="484" y="776" on="0"/>
        <pt x="553" y="737" on="0"/>
        <pt x="618" y="737" on="1"/>
        <pt x="657" y="737" on="1"/>
      </contour>
    </TTGlyph>
    <TTGlyph name="bracketleft" xMin="131" yMin="-121" xMax="556" yMax="1489">
      <contour>
        <pt x="131" y="-121" on="1"/>
        <pt x="135" y="-64" on="0"/>
        <pt x="140" y="71" on="0"/>
        <pt x="145" y="217" on="0"/>
        <pt x="148" y="367" on="0"/>
        <pt x="149" y="509" on="0"/>
        <pt x="150" y="637" on="0"/>
        <pt x="150" y="688" on="1"/>
        <pt x="150" y="739" on="0"/>
        <pt x="149" y="866" on="0"/>
        <pt x="148" y="1006" on="0"/>
        <pt x="145" y="1154" on="0"/>
        <pt x="140" y="1298" on="0"/>
        <pt x="135" y="1432" on="0"/>
        <pt x="131" y="1489" on="1"/>
        <pt x="556" y="1489" on="1"/>
        <pt x="556" y="1382" on="1"/>
        <pt x="305" y="1382" on="1"/>
        <pt x="305" y="-14" on="1"/>
        <pt x="556" y="-14" on="1"/>
        <pt x="556" y="-121" on="1"/>
      </contour>
    </TTGlyph>
    <TTGlyph name="bracketright" xMin="50" yMin="-121" xMax="475" yMax="1489">
      <contour>
        <pt x="50" y="-121" on="1"/>
        <pt x="50" y="-14" on="1"/>
        <pt x="301" y="-14" on="1"/>
        <pt x="301" y="1382" on="1"/>
        <pt x="50" y="1382" on="1"/>
        <pt x="50" y="1489" on="1"/>
        <pt x="475" y="1489" on="1"/>
        <pt x="471" y="1432" on="0"/>
        <pt x="466" y="1298" on="0"/>
        <pt x="461" y="1154" on="0"/>
        <pt x="458" y="1006" on="0"/>
        <pt x="457" y="866" on="0"/>
        <pt x="456" y="739" on="0"/>
        <pt x="456" y="688" on="1"/>
        <pt x="456" y="637" on="0"/>
        <pt x="457" y="509" on="0"/>
        <pt x="458" y="367" on="0"/>
        <pt x="461" y="217" on="0"/>
        <pt x="466" y="71" on="0"/>
        <pt x="471" y="-64" on="0"/>
        <pt x="475" y="-121" on="1"/>
      </contour>
    </TTGlyph>
    <TTGlyph name="breve" xMin="71" yMin="1159" xMax="468" yMax="1371">
      <contour>
        <pt x="468" y="1371" on="1"/>
        <pt x="467" y="1334" on="0"/>
        <pt x="448" y="1258" on="0"/>
        <pt x="402" y="1197" on="0"/>
        <pt x="327" y="1159" on="0"/>
        <pt x="270" y="1159" on="1"/>
        <pt x="214" y="1159" on="0"/>
        <pt x="139" y="1197" on="0"/>
        <pt x="93" y="1258" on="0"/>
        <pt x="72" y="1334" on="0"/>
        <pt x="71" y="1371" on="1"/>
        <pt x="175" y="1371" on="1"/>
        <pt x="177" y="1353" on="0"/>
        <pt x="186" y="1315" on="0"/>
        <pt x="206" y="1284" on="0"/>
        <pt x="241" y="1264" on="0"/>
        <pt x="270" y="1264" on="1"/>
        <pt x="299" y="1264" on="0"/>
        <pt x="335" y="1284" on="0"/>
        <pt x="356" y="1315" on="0"/>
        <pt x="366" y="1353" on="0"/>
        <pt x="368" y="1371" on="1"/>
        <pt x="468" y="1371" on="1"/>
      </contour>
    </TTGlyph>
    <TTGlyph name="brokenbar" xMin="185" yMin="-352" xMax="327" yMax="1430">
      <contour>
        <pt x="185" y="672" on="1"/>
        <pt x="185" y="1430" on="1"/>
        <pt x="327" y="1430" on="1"/>
        <pt x="327" y="672" on="1"/>
      </contour>
      <contour>
        <pt x="185" y="-352" on="1"/>
        <pt x="185" y="406" on="1"/>
        <pt x="327" y="406" on="1"/>
        <pt x="327" y="-352" on="1"/>
      </contour>
    </TTGlyph>
    <TTGlyph name="bullet" xMin="95" yMin="502" xMax="505" yMax="911">
      <contour>
        <pt x="95" y="707" on="1"/>
        <pt x="95" y="749" on="0"/>
        <pt x="127" y="823" on="0"/>
        <pt x="183" y="879" on="0"/>
        <pt x="258" y="911" on="0"/>
        <pt x="300" y="911" on="1"/>
        <pt x="342" y="911" on="0"/>
        <pt x="417" y="879" on="0"/>
        <pt x="473" y="823" on="0"/>
        <pt x="505" y="749" on="0"/>
        <pt x="505" y="707" on="1"/>
        <pt x="505" y="665" on="0"/>
        <pt x="473" y="590" on="0"/>
        <pt x="417" y="534" on="0"/>
        <pt x="342" y="502" on="0"/>
        <pt x="300" y="502" on="1"/>
        <pt x="258" y="502" on="0"/>
        <pt x="183" y="534" on="0"/>
        <pt x="127" y="590" on="0"/>
        <pt x="95" y="665" on="0"/>
      </contour>
    </TTGlyph>
    <TTGlyph name="c" xMin="68" yMin="-23" xMax="803" yMax="1395">
      <contour>
        <pt x="242" y="686" on="1"/>
        <pt x="242" y="542" on="0"/>
        <pt x="288" y="321" on="0"/>
        <pt x="373" y="171" on="0"/>
        <pt x="492" y="94" on="0"/>
        <pt x="565" y="94" on="1"/>
        <pt x="609" y="94" on="0"/>
        <pt x="677" y="116" on="0"/>
        <pt x="732" y="149" on="0"/>
        <pt x="780" y="190" on="0"/>
        <pt x="803" y="209" on="1"/>
        <pt x="803" y="8" on="1"/>
        <pt x="747" y="-6" on="0"/>
        <pt x="634" y="-23" on="0"/>
        <pt x="565" y="-23" on="1"/>
        <pt x="458" y="-23" on="0"/>
        <pt x="276" y="63" on="0"/>
        <pt x="143" y="238" on="0"/>
        <pt x="68" y="505" on="0"/>
        <pt x="68" y="686" on="1"/>
        <pt x="68" y="867" on="0"/>
        <pt x="147" y="1134" on="0"/>
        <pt x="282" y="1309" on="0"/>
        <pt x="463" y="1395" on="0"/>
        <pt x="565" y="1395" on="1"/>
        <pt x="634" y="1395" on="0"/>
        <pt x="747" y="1378" on="0"/>
        <pt x="803" y="1364" on="1"/>
        <pt x="803" y="1163" on="1"/>
        <pt x="780" y="1182" on="0"/>
        <pt x="732" y="1223" on="0"/>
        <pt x="677" y="1256" on="0"/>
        <pt x="609" y="1278" on="0"/>
        <pt x="565" y="1278" on="1"/>
        <pt x="492" y="1278" on="0"/>
        <pt x="373" y="1201" on="0"/>
        <pt x="288" y="1051" on="0"/>
        <pt x="242" y="830" on="0"/>
      </contour>
    </TTGlyph>
    <TTGlyph name="cacute" xMin="68" yMin="-23" xMax="804" yMax="1777">
      <component glyphName="c" x="0" y="0" flags="0x204"/>
      <component glyphName="acute" x="261" y="362" flags="0x4"/>
    </TTGlyph>
    <TTGlyph name="caron" xMin="72" yMin="1139" xMax="469" yMax="1415">
      <contour>
        <pt x="469" y="1415" on="1"/>
        <pt x="344" y="1139" on="1"/>
        <pt x="197" y="1139" on="1"/>
        <pt x="72" y="1415" on="1"/>
        <pt x="174" y="1415" on="1"/>
        <pt x="270" y="1250" on="1"/>
        <pt x="366" y="1415" on="1"/>
      </contour>
    </TTGlyph>
    <TTGlyph name="ccaron" xMin="68" yMin="-23" xMax="803" yMax="1777">
      <component glyphName="c" x="0" y="0" flags="0x204"/>
      <component glyphName="caron" x="282" y="362" flags="0x4"/>
    </TTGlyph>
    <TTGlyph name="ccedilla" xMin="68" yMin="-360" xMax="803" yMax="1395">
      <component glyphName="C" x="0" y="0" flags="0x204"/>
      <component glyphName="cedilla" x="263" y="0" flags="0x4"/>
    </TTGlyph>
    <TTGlyph name="ccircumflex" xMin="68" yMin="-23" xMax="803" yMax="1777">
      <component glyphName="c" x="0" y="0" flags="0x204"/>
      <component glyphName="circumflex" x="282" y="362" flags="0x4"/>
    </TTGlyph>
    <TTGlyph name="cdotaccent" xMin="68" yMin="-23" xMax="803" yMax="1692">
      <component glyphName="c" x="0" y="0" flags="0x204"/>
      <component glyphName="dotaccent" x="282" y="362" flags="0x4"/>
    </TTGlyph>
    <TTGlyph name="cedilla" xMin="137" yMin="-360" xMax="399" yMax="30">
      <contour>
        <pt x="223" y="30" on="1"/>
        <pt x="316" y="30" on="1"/>
        <pt x="281" y="-77" on="1"/>
        <pt x="305" y="-81" on="0"/>
        <pt x="348" y="-103" on="0"/>
        <pt x="380" y="-138" on="0"/>
        <pt x="399" y="-186" on="0"/>
        <pt x="399" y="-216" on="1"/>
        <pt x="399" y="-252" on="0"/>
        <pt x="375" y="-306" on="0"/>
        <pt x="334" y="-342" on="0"/>
        <pt x="279" y="-360" on="0"/>
        <pt x="248" y="-360" on="1"/>
        <pt x="214" y="-360" on="0"/>
        <pt x="157" y="-348" on="0"/>
        <pt x="137" y="-342" on="1"/>
        <pt x="137" y="-232" on="1"/>
        <pt x="156" y="-250" on="0"/>
        <pt x="203" y="-274" on="0"/>
        <pt x="232" y="-274" on="1"/>
        <pt x="269" y="-274" on="0"/>
        <pt x="301" y="-232" on="0"/>
        <pt x="301" y="-208" on="1"/>
        <pt x="301" y="-132" on="0"/>
        <pt x="180" y="-132" on="1"/>
      </contour>
    </TTGlyph>
    <TTGlyph name="cent" xMin="76" yMin="-97" xMax="807" yMax="1471">
      <contour>
        <pt x="501" y="86" on="1"/>
        <pt x="407" y="97" on="0"/>
        <pt x="251" y="183" on="0"/>
        <pt x="138" y="335" on="0"/>
        <pt x="76" y="554" on="0"/>
        <pt x="76" y="699" on="1"/>
        <pt x="76" y="843" on="0"/>
        <pt x="141" y="1062" on="0"/>
        <pt x="256" y="1214" on="0"/>
        <pt x="411" y="1300" on="0"/>
        <pt x="501" y="1311" on="1"/>
        <pt x="501" y="1471" on="1"/>
        <pt x="593" y="1471" on="1"/>
        <pt x="593" y="1316" on="1"/>
        <pt x="654" y="1314" on="0"/>
        <pt x="756" y="1300" on="0"/>
        <pt x="807" y="1289" on="1"/>
        <pt x="807" y="1102" on="1"/>
        <pt x="785" y="1117" on="0"/>
        <pt x="741" y="1150" on="0"/>
        <pt x="691" y="1178" on="0"/>
        <pt x="631" y="1198" on="0"/>
        <pt x="593" y="1201" on="1"/>
        <pt x="593" y="197" on="1"/>
        <pt x="631" y="200" on="0"/>
        <pt x="691" y="220" on="0"/>
        <pt x="741" y="248" on="0"/>
        <pt x="785" y="281" on="0"/>
        <pt x="807" y="296" on="1"/>
        <pt x="807" y="109" on="1"/>
        <pt x="756" y="98" on="0"/>
        <pt x="654" y="83" on="0"/>
        <pt x="593" y="82" on="1"/>
        <pt x="593" y="-97" on="1"/>
        <pt x="501" y="-97" on="1"/>
      </contour>
      <contour>
        <pt x="246" y="699" on="1"/>
        <pt x="246" y="479" on="0"/>
        <pt x="384" y="231" on="0"/>
        <pt x="501" y="203" on="1"/>
        <pt x="501" y="1194" on="1"/>
        <pt x="384" y="1167" on="0"/>
        <pt x="246" y="918" on="0"/>
      </contour>
    </TTGlyph>
    <TTGlyph name="circumflex" xMin="72" yMin="1139" xMax="469" yMax="1415">
      <contour>
        <pt x="366" y="1139" on="1"/>
        <pt x="270" y="1304" on="1"/>
        <pt x="174" y="1139" on="1"/>
        <pt x="72" y="1139" on="1"/>
        <pt x="197" y="1415" on="1"/>
        <pt x="344" y="1415" on="1"/>
        <pt x="469" y="1139" on="1"/>
      </contour>
    </TTGlyph>
    <TTGlyph name="colon" xMin="80" yMin="-22" xMax="288" yMax="844">
      <contour>
        <pt x="80" y="740" on="1"/>
        <pt x="80" y="761" on="0"/>
        <pt x="96" y="799" on="0"/>
        <pt x="124" y="828" on="0"/>
        <pt x="162" y="844" on="0"/>
        <pt x="184" y="844" on="1"/>
        <pt x="205" y="844" on="0"/>
        <pt x="243" y="828" on="0"/>
        <pt x="272" y="799" on="0"/>
        <pt x="288" y="761" on="0"/>
        <pt x="288" y="740" on="1"/>
        <pt x="288" y="718" on="0"/>
        <pt x="272" y="680" on="0"/>
        <pt x="243" y="652" on="0"/>
        <pt x="205" y="636" on="0"/>
        <pt x="184" y="636" on="1"/>
        <pt x="140" y="636" on="0"/>
        <pt x="80" y="696" on="0"/>
      </contour>
      <contour>
        <pt x="80" y="82" on="1"/>
        <pt x="80" y="103" on="0"/>
        <pt x="96" y="141" on="0"/>
        <pt x="124" y="170" on="0"/>
        <pt x="162" y="186" on="0"/>
        <pt x="184" y="186" on="1"/>
        <pt x="205" y="186" on="0"/>
        <pt x="243" y="170" on="0"/>
        <pt x="272" y="141" on="0"/>
        <pt x="288" y="103" on="0"/>
        <pt x="288" y="82" on="1"/>
        <pt x="288" y="60" on="0"/>
        <pt x="272" y="22" on="0"/>
        <pt x="243" y="-6" on="0"/>
        <pt x="205" y="-22" on="0"/>
        <pt x="184" y="-22" on="1"/>
        <pt x="140" y="-22" on="0"/>
        <pt x="80" y="38" on="0"/>
      </contour>
    </TTGlyph>
    <TTGlyph name="comma" xMin="50" yMin="-156" xMax="261" yMax="186">
      <contour>
        <pt x="50" y="88" on="1"/>
        <pt x="50" y="130" on="0"/>
        <pt x="110" y="186" on="0"/>
        <pt x="154" y="186" on="1"/>
        <pt x="175" y="186" on="0"/>
        <pt x="214" y="169" on="0"/>
        <pt x="244" y="138" on="0"/>
        <pt x="261" y="91" on="0"/>
        <pt x="261" y="61" on="1"/>
        <pt x="261" y="25" on="0"/>
        <pt x="238" y="-41" on="0"/>
        <pt x="201" y="-98" on="0"/>
        <pt x="155" y="-142" on="0"/>
        <pt x="132" y="-156" on="1"/>
        <pt x="79" y="-101" on="1"/>
        <pt x="104" y="-90" on="0"/>
        <pt x="141" y="-44" on="0"/>
        <pt x="141" y="-9" on="1"/>
        <pt x="102" y="-4" on="0"/>
        <pt x="50" y="47" on="0"/>
      </contour>
    </TTGlyph>
    <TTGlyph name="commaaccent" xMin="176" yMin="-397" xMax="365" yMax="-127">
      <contour>
        <pt x="176" y="-214" on="1"/>
        <pt x="176" y="-177" on="0"/>
        <pt x="224" y="-127" on="0"/>
        <pt x="266" y="-127" on="1"/>
        <pt x="307" y="-127" on="0"/>
        <pt x="365" y="-184" on="0"/>
        <pt x="365" y="-238" on="1"/>
        <pt x="365" y="-265" on="0"/>
        <pt x="350" y="-311" on="0"/>
        <pt x="328" y="-351" on="0"/>
        <pt x="301" y="-384" on="0"/>
        <pt x="288" y="-397" on="1"/>
        <pt x="181" y="-397" on="1"/>
        <pt x="181" y="-392" on="1"/>
        <pt x="193" y="-385" on="0"/>
        <pt x="222" y="-361" on="0"/>
        <pt x="249" y="-333" on="0"/>
        <pt x="269" y="-304" on="0"/>
        <pt x="272" y="-291" on="1"/>
        <pt x="224" y="-291" on="0"/>
        <pt x="176" y="-251" on="0"/>
      </contour>
    </TTGlyph>
    <TTGlyph name="copyright" xMin="100" yMin="68" xMax="1343" yMax="1309">
      <contour>
        <pt x="1343" y="688" on="1"/>
        <pt x="1343" y="602" on="0"/>
        <pt x="1299" y="444" on="0"/>
        <pt x="1218" y="306" on="0"/>
        <pt x="1104" y="193" on="0"/>
        <pt x="966" y="112" on="0"/>
        <pt x="807" y="68" on="0"/>
        <pt x="721" y="68" on="1"/>
        <pt x="593" y="68" on="0"/>
        <pt x="367" y="166" on="0"/>
        <pt x="198" y="334" on="0"/>
        <pt x="100" y="560" on="0"/>
        <pt x="100" y="688" on="1"/>
        <pt x="100" y="816" on="0"/>
        <pt x="198" y="1042" on="0"/>
        <pt x="367" y="1211" on="0"/>
        <pt x="593" y="1309" on="0"/>
        <pt x="721" y="1309" on="1"/>
        <pt x="807" y="1309" on="0"/>
        <pt x="966" y="1264" on="0"/>
        <pt x="1104" y="1183" on="0"/>
        <pt x="1218" y="1070" on="0"/>
        <pt x="1299" y="932" on="0"/>
        <pt x="1343" y="773" on="0"/>
      </contour>
      <contour>
        <pt x="977" y="375" on="1"/>
        <pt x="945" y="361" on="0"/>
        <pt x="891" y="339" on="0"/>
        <pt x="835" y="323" on="0"/>
        <pt x="773" y="314" on="0"/>
        <pt x="733" y="314" on="1"/>
        <pt x="655" y="314" on="0"/>
        <pt x="521" y="365" on="0"/>
        <pt x="422" y="461" on="0"/>
        <pt x="366" y="599" on="0"/>
        <pt x="366" y="686" on="1"/>
        <pt x="366" y="774" on="0"/>
        <pt x="422" y="913" on="0"/>
        <pt x="521" y="1010" on="0"/>
        <pt x="655" y="1061" on="0"/>
        <pt x="733" y="1061" on="1"/>
        <pt x="773" y="1061" on="0"/>
        <pt x="835" y="1051" on="0"/>
        <pt x="891" y="1035" on="0"/>
        <pt x="945" y="1012" on="0"/>
        <pt x="977" y="999" on="1"/>
        <pt x="977" y="859" on="1"/>
        <pt x="945" y="888" on="0"/>
        <pt x="890" y="929" on="0"/>
        <pt x="837" y="955" on="0"/>
        <pt x="782" y="967" on="0"/>
        <pt x="749" y="967" on="1"/>
        <pt x="695" y="967" on="0"/>
        <pt x="609" y="925" on="0"/>
        <pt x="549" y="850" on="0"/>
        <pt x="517" y="747" on="0"/>
        <pt x="517" y="686" on="1"/>
        <pt x="517" y="626" on="0"/>
        <pt x="549" y="524" on="0"/>
        <pt x="609" y="450" on="0"/>
        <pt x="695" y="408" on="0"/>
        <pt x="749" y="408" on="1"/>
        <pt x="782" y="408" on="0"/>
        <pt x="837" y="420" on="0"/>
        <pt x="890" y="445" on="0"/>
        <pt x="945" y="485" on="0"/>
        <pt x="977" y="513" on="1"/>
      </contour>
      <contour>
        <pt x="217" y="688" on="1"/>
        <pt x="217" y="583" on="0"/>
        <pt x="296" y="399" on="0"/>
        <pt x="433" y="261" on="0"/>
        <pt x="616" y="182" on="0"/>
        <pt x="721" y="182" on="1"/>
        <pt x="826" y="182" on="0"/>
        <pt x="1010" y="261" on="0"/>
        <pt x="1148" y="399" on="0"/>
        <pt x="1227" y="583" on="0"/>
        <pt x="1227" y="688" on="1"/>
        <pt x="1227" y="793" on="0"/>
        <pt x="1148" y="978" on="0"/>
        <pt x="1010" y="1115" on="0"/>
        <pt x="826" y="1194" on="0"/>
        <pt x="721" y="1194" on="1"/>
        <pt x="616" y="1194" on="0"/>
        <pt x="433" y="1115" on="0"/>
        <pt x="296" y="978" on="0"/>
        <pt x="217" y="793" on="0"/>
      </contour>
    </TTGlyph>
    <TTGlyph name="currency" xMin="80" yMin="441" xMax="766" yMax="1129">
      <contour>
        <pt x="649" y="934" on="1"/>
        <pt x="671" y="900" on="0"/>
        <pt x="697" y="825" on="0"/>
        <pt x="697" y="785" on="1"/>
        <pt x="697" y="743" on="0"/>
        <pt x="671" y="669" on="0"/>
        <pt x="651" y="635" on="1"/>
        <pt x="766" y="523" on="1"/>
        <pt x="684" y="441" on="1"/>
        <pt x="570" y="554" on="1"/>
        <pt x="539" y="535" on="0"/>
        <pt x="462" y="513" on="0"/>
        <pt x="422" y="513" on="1"/>
        <pt x="382" y="513" on="0"/>
        <pt x="307" y="535" on="0"/>
        <pt x="275" y="554" on="1"/>
        <pt x="162" y="441" on="1"/>
        <pt x="80" y="523" on="1"/>
        <pt x="193" y="635" on="1"/>
        <pt x="173" y="669" on="0"/>
        <pt x="150" y="743" on="0"/>
        <pt x="150" y="785" on="1"/>
        <pt x="150" y="823" on="0"/>
        <pt x="173" y="900" on="0"/>
        <pt x="193" y="934" on="1"/>
        <pt x="80" y="1049" on="1"/>
        <pt x="160" y="1129" on="1"/>
        <pt x="275" y="1014" on="1"/>
        <pt x="307" y="1034" on="0"/>
        <pt x="382" y="1057" on="0"/>
        <pt x="422" y="1057" on="1"/>
        <pt x="464" y="1057" on="0"/>
        <pt x="538" y="1034" on="0"/>
        <pt x="570" y="1014" on="1"/>
        <pt x="684" y="1129" on="1"/>
        <pt x="766" y="1049" on="1"/>
      </contour>
      <contour>
        <pt x="422" y="621" on="1"/>
        <pt x="456" y="621" on="0"/>
        <pt x="516" y="646" on="0"/>
        <pt x="561" y="691" on="0"/>
        <pt x="588" y="750" on="0"/>
        <pt x="588" y="785" on="1"/>
        <pt x="588" y="819" on="0"/>
        <pt x="561" y="879" on="0"/>
        <pt x="516" y="924" on="0"/>
        <pt x="456" y="951" on="0"/>
        <pt x="422" y="951" on="1"/>
        <pt x="387" y="951" on="0"/>
        <pt x="328" y="924" on="0"/>
        <pt x="283" y="879" on="0"/>
        <pt x="258" y="819" on="0"/>
        <pt x="258" y="785" on="1"/>
        <pt x="258" y="751" on="0"/>
        <pt x="284" y="692" on="0"/>
        <pt x="329" y="647" on="0"/>
        <pt x="388" y="621" on="0"/>
      </contour>
    </TTGlyph>
    <TTGlyph name="d" xMin="100" yMin="0" xMax="896" yMax="1374">
      <contour>
        <pt x="413" y="1374" on="1"/>
        <pt x="520" y="1374" on="0"/>
        <pt x="698" y="1308" on="0"/>
        <pt x="825" y="1149" on="0"/>
        <pt x="896" y="885" on="0"/>
        <pt x="896" y="688" on="1"/>
        <pt x="896" y="490" on="0"/>
        <pt x="825" y="225" on="0"/>
        <pt x="697" y="66" on="0"/>
        <pt x="519" y="0" on="0"/>
        <pt x="411" y="0" on="1"/>
        <pt x="100" y="0" on="1"/>
        <pt x="106" y="85" on="0"/>
        <pt x="113" y="264" on="0"/>
        <pt x="117" y="441" on="0"/>
        <pt x="119" y="611" on="0"/>
        <pt x="119" y="688" on="1"/>
        <pt x="119" y="765" on="0"/>
        <pt x="117" y="935" on="0"/>
        <pt x="113" y="1111" on="0"/>
        <pt x="106" y="1289" on="0"/>
        <pt x="100" y="1374" on="1"/>
      </contour>
      <contour>
        <pt x="282" y="1260" on="1"/>
        <pt x="275" y="1112" on="0"/>
        <pt x="270" y="817" on="0"/>
        <pt x="270" y="688" on="1"/>
        <pt x="270" y="559" on="0"/>
        <pt x="274" y="262" on="0"/>
        <pt x="281" y="115" on="1"/>
        <pt x="415" y="115" on="1"/>
        <pt x="458" y="115" on="0"/>
        <pt x="537" y="134" on="0"/>
        <pt x="604" y="182" on="0"/>
        <pt x="660" y="265" on="0"/>
        <pt x="699" y="392" on="0"/>
        <pt x="720" y="569" on="0"/>
        <pt x="720" y="688" on="1"/>
        <pt x="720" y="807" on="0"/>
        <pt x="699" y="984" on="0"/>
        <pt x="660" y="1111" on="0"/>
        <pt x="604" y="1193" on="0"/>
        <pt x="537" y="1241" on="0"/>
        <pt x="458" y="1260" on="0"/>
        <pt x="415" y="1260" on="1"/>
      </contour>
    </TTGlyph>
    <TTGlyph name="dagger" xMin="100" yMin="133" xMax="657" yMax="1374">
      <contour>
        <pt x="445" y="1374" on="1"/>
        <pt x="438" y="1305" on="0"/>
        <pt x="431" y="1144" on="0"/>
        <pt x="429" y="1056" on="1"/>
        <pt x="469" y="1058" on="0"/>
        <pt x="550" y="1064" on="0"/>
        <pt x="583" y="1067" on="1"/>
        <pt x="622" y="1071" on="0"/>
        <pt x="657" y="1075" on="1"/>
        <pt x="657" y="953" on="1"/>
        <pt x="621" y="957" on="0"/>
        <pt x="582" y="961" on="1"/>
        <pt x="549" y="964" on="0"/>
        <pt x="468" y="970" on="0"/>
        <pt x="428" y="972" on="1"/>
        <pt x="427" y="897" on="0"/>
        <pt x="428" y="744" on="0"/>
        <pt x="430" y="598" on="0"/>
        <pt x="433" y="462" on="0"/>
        <pt x="435" y="402" on="1"/>
        <pt x="439" y="261" on="0"/>
        <pt x="445" y="133" on="1"/>
        <pt x="312" y="133" on="1"/>
        <pt x="318" y="261" on="0"/>
        <pt x="322" y="402" on="1"/>
        <pt x="324" y="462" on="0"/>
        <pt x="327" y="598" on="0"/>
        <pt x="329" y="744" on="0"/>
        <pt x="330" y="897" on="0"/>
        <pt x="329" y="972" on="1"/>
        <pt x="289" y="970" on="0"/>
        <pt x="208" y="964" on="0"/>
        <pt x="175" y="961" on="1"/>
        <pt x="136" y="957" on="0"/>
        <pt x="100" y="953" on="1"/>
        <pt x="100" y="1075" on="1"/>
        <pt x="135" y="1071" on="0"/>
        <pt x="174" y="1067" on="1"/>
        <pt x="207" y="1064" on="0"/>
        <pt x="287" y="1058" on="0"/>
        <pt x="327" y="1056" on="1"/>
        <pt x="325" y="1144" on="0"/>
        <pt x="318" y="1305" on="0"/>
        <pt x="312" y="1374" on="1"/>
      </contour>
    </TTGlyph>
    <TTGlyph name="daggerdbl" xMin="100" yMin="133" xMax="657" yMax="1374">
      <contour>
        <pt x="445" y="1374" on="1"/>
        <pt x="438" y="1305" on="0"/>
        <pt x="431" y="1144" on="0"/>
        <pt x="429" y="1056" on="1"/>
        <pt x="469" y="1058" on="0"/>
        <pt x="550" y="1064" on="0"/>
        <pt x="583" y="1067" on="1"/>
        <pt x="622" y="1071" on="0"/>
        <pt x="657" y="1075" on="1"/>
        <pt x="657" y="953" on="1"/>
        <pt x="621" y="957" on="0"/>
        <pt x="582" y="961" on="1"/>
        <pt x="549" y="964" on="0"/>
        <pt x="468" y="970" on="0"/>
        <pt x="428" y="972" on="1"/>
        <pt x="428" y="746" on="1"/>
        <pt x="468" y="748" on="0"/>
        <pt x="549" y="754" on="0"/>
        <pt x="582" y="757" on="1"/>
        <pt x="621" y="761" on="0"/>
        <pt x="657" y="765" on="1"/>
        <pt x="657" y="643" on="1"/>
        <pt x="621" y="647" on="0"/>
        <pt x="582" y="651" on="1"/>
        <pt x="549" y="654" on="0"/>
        <pt x="468" y="660" on="0"/>
        <pt x="429" y="662" on="1"/>
        <pt x="431" y="553" on="0"/>
        <pt x="435" y="361" on="0"/>
        <pt x="438" y="289" on="1"/>
        <pt x="441" y="205" on="0"/>
        <pt x="445" y="133" on="1"/>
        <pt x="312" y="133" on="1"/>
        <pt x="314" y="205" on="0"/>
        <pt x="318" y="289" on="1"/>
        <pt x="320" y="361" on="0"/>
        <pt x="326" y="553" on="0"/>
        <pt x="328" y="662" on="1"/>
        <pt x="288" y="660" on="0"/>
        <pt x="207" y="654" on="0"/>
        <pt x="174" y="651" on="1"/>
        <pt x="135" y="647" on="0"/>
        <pt x="100" y="643" on="1"/>
        <pt x="100" y="765" on="1"/>
        <pt x="136" y="761" on="0"/>
        <pt x="175" y="757" on="1"/>
        <pt x="208" y="754" on="0"/>
        <pt x="289" y="748" on="0"/>
        <pt x="329" y="746" on="1"/>
        <pt x="329" y="802" on="0"/>
        <pt x="330" y="915" on="0"/>
        <pt x="329" y="972" on="1"/>
        <pt x="289" y="970" on="0"/>
        <pt x="208" y="964" on="0"/>
        <pt x="175" y="961" on="1"/>
        <pt x="136" y="957" on="0"/>
        <pt x="100" y="953" on="1"/>
        <pt x="100" y="1075" on="1"/>
        <pt x="135" y="1071" on="0"/>
        <pt x="174" y="1067" on="1"/>
        <pt x="207" y="1064" on="0"/>
        <pt x="287" y="1058" on="0"/>
        <pt x="327" y="1056" on="1"/>
        <pt x="325" y="1144" on="0"/>
        <pt x="318" y="1305" on="0"/>
        <pt x="312" y="1374" on="1"/>
      </contour>
    </TTGlyph>
    <TTGlyph name="dcaron" xMin="100" yMin="0" xMax="896" yMax="1777">
      <component glyphName="d" x="0" y="0" flags="0x204"/>
      <component glyphName="caron" x="154" y="362" flags="0x4"/>
    </TTGlyph>
    <TTGlyph name="dcroat" xMin="0" yMin="0" xMax="896" yMax="1374">
      <component glyphName="Eth" x="0" y="0" flags="0x204"/>
    </TTGlyph>
    <TTGlyph name="degree" xMin="60" yMin="977" xMax="482" yMax="1399">
      <contour>
        <pt x="60" y="1188" on="1"/>
        <pt x="60" y="1231" on="0"/>
        <pt x="93" y="1308" on="0"/>
        <pt x="150" y="1365" on="0"/>
        <pt x="227" y="1399" on="0"/>
        <pt x="271" y="1399" on="1"/>
        <pt x="314" y="1399" on="0"/>
        <pt x="391" y="1365" on="0"/>
        <pt x="448" y="1308" on="0"/>
        <pt x="482" y="1231" on="0"/>
        <pt x="482" y="1188" on="1"/>
        <pt x="482" y="1144" on="0"/>
        <pt x="448" y="1067" on="0"/>
        <pt x="391" y="1010" on="0"/>
        <pt x="314" y="977" on="0"/>
        <pt x="271" y="977" on="1"/>
        <pt x="227" y="977" on="0"/>
        <pt x="150" y="1010" on="0"/>
        <pt x="93" y="1067" on="0"/>
        <pt x="60" y="1144" on="0"/>
      </contour>
      <contour>
        <pt x="166" y="1188" on="1"/>
        <pt x="166" y="1143" on="0"/>
        <pt x="226" y="1083" on="0"/>
        <pt x="271" y="1083" on="1"/>
        <pt x="292" y="1083" on="0"/>
        <pt x="330" y="1099" on="0"/>
        <pt x="359" y="1128" on="0"/>
        <pt x="376" y="1166" on="0"/>
        <pt x="376" y="1188" on="1"/>
        <pt x="376" y="1209" on="0"/>
        <pt x="359" y="1247" on="0"/>
        <pt x="330" y="1276" on="0"/>
        <pt x="292" y="1293" on="0"/>
        <pt x="271" y="1293" on="1"/>
        <pt x="249" y="1293" on="0"/>
        <pt x="211" y="1276" on="0"/>
        <pt x="182" y="1247" on="0"/>
        <pt x="166" y="1209" on="0"/>
      </contour>
    </TTGlyph>
    <TTGlyph name="dieresis" xMin="71" yMin="1159" xMax="470" yMax="1321">
      <contour>
        <pt x="71" y="1240" on="1"/>
        <pt x="71" y="1274" on="0"/>
        <pt x="118" y="1321" on="0"/>
        <pt x="152" y="1321" on="1"/>
        <pt x="186" y="1321" on="0"/>
        <pt x="233" y="1274" on="0"/>
        <pt x="233" y="1240" on="1"/>
        <pt x="233" y="1206" on="0"/>
        <pt x="186" y="1159" on="0"/>
        <pt x="152" y="1159" on="1"/>
        <pt x="118" y="1159" on="0"/>
        <pt x="71" y="1206" on="0"/>
      </contour>
      <contour>
        <pt x="308" y="1240" on="1"/>
        <pt x="308" y="1274" on="0"/>
        <pt x="355" y="1321" on="0"/>
        <pt x="389" y="1321" on="1"/>
        <pt x="423" y="1321" on="0"/>
        <pt x="470" y="1274" on="0"/>
        <pt x="470" y="1240" on="1"/>
        <pt x="470" y="1206" on="0"/>
        <pt x="423" y="1159" on="0"/>
        <pt x="389" y="1159" on="1"/>
        <pt x="355" y="1159" on="0"/>
        <pt x="308" y="1206" on="0"/>
      </contour>
    </TTGlyph>
    <TTGlyph name="divide" xMin="150" yMin="297" xMax="974" yMax="1073">
      <contour>
        <pt x="150" y="624" on="1"/>
        <pt x="150" y="746" on="1"/>
        <pt x="974" y="746" on="1"/>
        <pt x="974" y="624" on="1"/>
      </contour>
      <contour>
        <pt x="466" y="977" on="1"/>
        <pt x="466" y="1017" on="0"/>
        <pt x="522" y="1073" on="0"/>
        <pt x="562" y="1073" on="1"/>
        <pt x="602" y="1073" on="0"/>
        <pt x="658" y="1017" on="0"/>
        <pt x="658" y="977" on="1"/>
        <pt x="658" y="937" on="0"/>
        <pt x="602" y="881" on="0"/>
        <pt x="562" y="881" on="1"/>
        <pt x="522" y="881" on="0"/>
        <pt x="466" y="937" on="0"/>
      </contour>
      <contour>
        <pt x="466" y="393" on="1"/>
        <pt x="466" y="433" on="0"/>
        <pt x="522" y="489" on="0"/>
        <pt x="562" y="489" on="1"/>
        <pt x="602" y="489" on="0"/>
        <pt x="658" y="433" on="0"/>
        <pt x="658" y="393" on="1"/>
        <pt x="658" y="353" on="0"/>
        <pt x="602" y="297" on="0"/>
        <pt x="562" y="297" on="1"/>
        <pt x="522" y="297" on="0"/>
        <pt x="466" y="353" on="0"/>
      </contour>
    </TTGlyph>
    <TTGlyph name="dollar" xMin="60" yMin="-97" xMax="700" yMax="1471">
      <contour>
        <pt x="332" y="33" on="1"/>
        <pt x="288" y="33" on="0"/>
        <pt x="215" y="40" on="0"/>
        <pt x="151" y="52" on="0"/>
        <pt x="95" y="68" on="0"/>
        <pt x="69" y="77" on="1"/>
        <pt x="69" y="264" on="1"/>
        <pt x="98" y="237" on="0"/>
        <pt x="157" y="191" on="0"/>
        <pt x="220" y="156" on="0"/>
        <pt x="290" y="136" on="0"/>
        <pt x="332" y="136" on="1"/>
        <pt x="332" y="642" on="1"/>
        <pt x="283" y="682" on="0"/>
        <pt x="186" y="764" on="0"/>
        <pt x="108" y="858" on="0"/>
        <pt x="60" y="966" on="0"/>
        <pt x="60" y="1031" on="1"/>
        <pt x="60" y="1103" on="0"/>
        <pt x="107" y="1209" on="0"/>
        <pt x="183" y="1282" on="0"/>
        <pt x="281" y="1325" on="0"/>
        <pt x="332" y="1334" on="1"/>
        <pt x="332" y="1471" on="1"/>
        <pt x="424" y="1471" on="1"/>
        <pt x="424" y="1341" on="1"/>
        <pt x="483" y="1340" on="0"/>
        <pt x="594" y="1322" on="0"/>
        <pt x="645" y="1311" on="1"/>
        <pt x="645" y="1128" on="1"/>
        <pt x="616" y="1152" on="0"/>
        <pt x="562" y="1192" on="0"/>
        <pt x="509" y="1220" on="0"/>
        <pt x="454" y="1237" on="0"/>
        <pt x="424" y="1238" on="1"/>
        <pt x="424" y="768" on="1"/>
        <pt x="473" y="728" on="0"/>
        <pt x="571" y="643" on="0"/>
        <pt x="650" y="546" on="0"/>
        <pt x="700" y="431" on="0"/>
        <pt x="700" y="361" on="1"/>
        <pt x="700" y="280" on="0"/>
        <pt x="652" y="165" on="0"/>
        <pt x="574" y="89" on="0"/>
        <pt x="475" y="46" on="0"/>
        <pt x="424" y="38" on="1"/>
        <pt x="424" y="-97" on="1"/>
        <pt x="332" y="-97" on="1"/>
      </contour>
      <contour>
        <pt x="538" y="348" on="1"/>
        <pt x="538" y="411" on="0"/>
        <pt x="474" y="514" on="0"/>
        <pt x="424" y="562" on="1"/>
        <pt x="424" y="153" on="1"/>
        <pt x="473" y="173" on="0"/>
        <pt x="538" y="268" on="0"/>
      </contour>
      <contour>
        <pt x="220" y="1058" on="1"/>
        <pt x="220" y="996" on="0"/>
        <pt x="283" y="895" on="0"/>
        <pt x="332" y="848" on="1"/>
        <pt x="332" y="1224" on="1"/>
        <pt x="282" y="1207" on="0"/>
        <pt x="220" y="1126" on="0"/>
      </contour>
    </TTGlyph>
    <TTGlyph name="dotaccent" xMin="180" yMin="1150" xMax="360" yMax="1330">
      <contour>
        <pt x="180" y="1240" on="1"/>
        <pt x="180" y="1278" on="0"/>
        <pt x="232" y="1330" on="0"/>
        <pt x="270" y="1330" on="1"/>
        <pt x="308" y="1330" on="0"/>
        <pt x="360" y="1278" on="0"/>
        <pt x="360" y="1240" on="1"/>
        <pt x="360" y="1202" on="0"/>
        <pt x="308" y="1150" on="0"/>
        <pt x="270" y="1150" on="1"/>
        <pt x="232" y="1150" on="0"/>
        <pt x="180" y="1202" on="0"/>
      </contour>
    </TTGlyph>
    <TTGlyph name="dotlessi" xMin="106" yMin="0" xMax="295" yMax="1374">
      <contour>
        <pt x="295" y="1374" on="1"/>
        <pt x="289" y="1289" on="0"/>
        <pt x="282" y="1111" on="0"/>
        <pt x="278" y="935" on="0"/>
        <pt x="276" y="765" on="0"/>
        <pt x="276" y="688" on="1"/>
        <pt x="276" y="611" on="0"/>
        <pt x="278" y="441" on="0"/>
        <pt x="282" y="264" on="0"/>
        <pt x="288" y="85" on="0"/>
        <pt x="293" y="0" on="1"/>
        <pt x="106" y="0" on="1"/>
        <pt x="112" y="85" on="0"/>
        <pt x="119" y="264" on="0"/>
        <pt x="123" y="441" on="0"/>
        <pt x="125" y="611" on="0"/>
        <pt x="125" y="688" on="1"/>
        <pt x="125" y="765" on="0"/>
        <pt x="123" y="935" on="0"/>
        <pt x="119" y="1111" on="0"/>
        <pt x="112" y="1289" on="0"/>
        <pt x="106" y="1374" on="1"/>
      </contour>
    </TTGlyph>
    <TTGlyph name="dotlessj" xMin="20" yMin="-26" xMax="479" yMax="1374">
      <contour>
        <pt x="20" y="121" on="1"/>
        <pt x="30" y="118" on="0"/>
        <pt x="86" y="102" on="0"/>
        <pt x="129" y="102" on="1"/>
        <pt x="160" y="102" on="0"/>
        <pt x="216" y="120" on="0"/>
        <pt x="260" y="168" on="0"/>
        <pt x="292" y="252" on="0"/>
        <pt x="300" y="318" on="1"/>
        <pt x="308" y="382" on="0"/>
        <pt x="309" y="590" on="0"/>
        <pt x="309" y="730" on="1"/>
        <pt x="309" y="882" on="0"/>
        <pt x="302" y="1210" on="0"/>
        <pt x="291" y="1374" on="1"/>
        <pt x="479" y="1374" on="1"/>
        <pt x="474" y="1292" on="0"/>
        <pt x="468" y="1134" on="0"/>
        <pt x="463" y="990" on="0"/>
        <pt x="461" y="865" on="0"/>
        <pt x="461" y="815" on="1"/>
        <pt x="461" y="759" on="0"/>
        <pt x="462" y="639" on="0"/>
        <pt x="464" y="531" on="0"/>
        <pt x="465" y="446" on="0"/>
        <pt x="465" y="425" on="1"/>
        <pt x="465" y="318" on="0"/>
        <pt x="423" y="150" on="0"/>
        <pt x="337" y="34" on="0"/>
        <pt x="204" y="-26" on="0"/>
        <pt x="113" y="-26" on="1"/>
        <pt x="84" y="-26" on="0"/>
        <pt x="29" y="-18" on="0"/>
        <pt x="20" y="-16" on="1"/>
      </contour>
    </TTGlyph>
    <TTGlyph name="e" xMin="68" yMin="-27" xMax="850" yMax="1399">
      <contour>
        <pt x="547" y="90" on="1"/>
        <pt x="591" y="90" on="0"/>
        <pt x="662" y="112" on="0"/>
        <pt x="722" y="145" on="0"/>
        <pt x="772" y="186" on="0"/>
        <pt x="795" y="205" on="1"/>
        <pt x="795" y="8" on="1"/>
        <pt x="769" y="3" on="0"/>
        <pt x="716" y="-9" on="0"/>
        <pt x="651" y="-19" on="0"/>
        <pt x="571" y="-27" on="0"/>
        <pt x="519" y="-27" on="1"/>
        <pt x="414" y="-27" on="0"/>
        <pt x="247" y="70" on="0"/>
        <pt x="130" y="253" on="0"/>
        <pt x="68" y="516" on="0"/>
        <pt x="68" y="682" on="1"/>
        <pt x="68" y="842" on="0"/>
        <pt x="120" y="1107" on="0"/>
        <pt x="221" y="1295" on="0"/>
        <pt x="370" y="1399" on="0"/>
        <pt x="468" y="1399" on="1"/>
        <pt x="569" y="1399" on="0"/>
        <pt x="714" y="1306" on="0"/>
        <pt x="807" y="1129" on="0"/>
        <pt x="850" y="871" on="0"/>
        <pt x="850" y="705" on="1"/>
        <pt x="850" y="668" on="1"/>
        <pt x="246" y="668" on="1"/>
        <pt x="252" y="509" on="0"/>
        <pt x="291" y="289" on="0"/>
        <pt x="363" y="151" on="0"/>
        <pt x="472" y="90" on="0"/>
      </contour>
      <contour>
        <pt x="678" y="784" on="1"/>
        <pt x="676" y="842" on="0"/>
        <pt x="668" y="962" on="0"/>
        <pt x="651" y="1074" on="0"/>
        <pt x="622" y="1172" on="0"/>
        <pt x="576" y="1244" on="0"/>
        <pt x="510" y="1286" on="0"/>
        <pt x="465" y="1286" on="1"/>
        <pt x="405" y="1286" on="0"/>
        <pt x="326" y="1198" on="0"/>
        <pt x="277" y="1056" on="0"/>
        <pt x="253" y="876" on="0"/>
        <pt x="248" y="784" on="1"/>
      </contour>
    </TTGlyph>
    <TTGlyph name="eacute" xMin="68" yMin="-27" xMax="850" yMax="1777">
      <component glyphName="e" x="0" y="0" flags="0x204"/>
      <component glyphName="acute" x="187" y="362" flags="0x4"/>
    </TTGlyph>
    <TTGlyph name="ebreve" xMin="68" yMin="-27" xMax="850" yMax="1733">
      <component glyphName="e" x="0" y="0" flags="0x204"/>
      <component glyphName="breve" x="208" y="362" flags="0x4"/>
    </TTGlyph>
    <TTGlyph name="ecaron" xMin="68" yMin="-27" xMax="850" yMax="1777">
      <component glyphName="e" x="0" y="0" flags="0x204"/>
      <component glyphName="caron" x="208" y="362" flags="0x4"/>
    </TTGlyph>
    <TTGlyph name="ecircumflex" xMin="68" yMin="-27" xMax="850" yMax="1777">
      <component glyphName="e" x="0" y="0" flags="0x204"/>
      <component glyphName="circumflex" x="208" y="362" flags="0x4"/>
    </TTGlyph>
    <TTGlyph name="edieresis" xMin="68" yMin="-27" xMax="850" yMax="1683">
      <component glyphName="e" x="0" y="0" flags="0x204"/>
      <component glyphName="dieresis" x="207" y="362" flags="0x4"/>
    </TTGlyph>
    <TTGlyph name="edotaccent" xMin="68" yMin="-27" xMax="850" yMax="1692">
      <component glyphName="e" x="0" y="0" flags="0x204"/>
      <component glyphName="dotaccent" x="208" y="362" flags="0x4"/>
    </TTGlyph>
    <TTGlyph name="egrave" xMin="68" yMin="-27" xMax="850" yMax="1777">
      <component glyphName="e" x="0" y="0" flags="0x204"/>
      <component glyphName="grave" x="183" y="362" flags="0x4"/>
    </TTGlyph>
    <TTGlyph name="eight" xMin="58" yMin="-27" xMax="785" yMax="1399">
      <contour>
        <pt x="421" y="682" on="1"/>
        <pt x="326" y="682" on="0"/>
        <pt x="226" y="526" on="0"/>
        <pt x="226" y="384" on="1"/>
        <pt x="226" y="242" on="0"/>
        <pt x="326" y="90" on="0"/>
        <pt x="421" y="90" on="1"/>
        <pt x="516" y="90" on="0"/>
        <pt x="617" y="242" on="0"/>
        <pt x="617" y="384" on="1"/>
        <pt x="617" y="526" on="0"/>
        <pt x="516" y="682" on="0"/>
      </contour>
      <contour>
        <pt x="421" y="-27" on="1"/>
        <pt x="345" y="-27" on="0"/>
        <pt x="212" y="25" on="0"/>
        <pt x="114" y="126" on="0"/>
        <pt x="58" y="276" on="0"/>
        <pt x="58" y="374" on="1"/>
        <pt x="58" y="508" on="0"/>
        <pt x="177" y="697" on="0"/>
        <pt x="283" y="746" on="1"/>
        <pt x="188" y="796" on="0"/>
        <pt x="95" y="956" on="0"/>
        <pt x="95" y="1053" on="1"/>
        <pt x="95" y="1131" on="0"/>
        <pt x="146" y="1258" on="0"/>
        <pt x="236" y="1349" on="0"/>
        <pt x="356" y="1399" on="0"/>
        <pt x="425" y="1399" on="1"/>
        <pt x="491" y="1399" on="0"/>
        <pt x="609" y="1349" on="0"/>
        <pt x="697" y="1258" on="0"/>
        <pt x="748" y="1131" on="0"/>
        <pt x="748" y="1053" on="1"/>
        <pt x="748" y="956" on="0"/>
        <pt x="654" y="796" on="0"/>
        <pt x="559" y="746" on="1"/>
        <pt x="665" y="697" on="0"/>
        <pt x="785" y="508" on="0"/>
        <pt x="785" y="374" on="1"/>
        <pt x="785" y="276" on="0"/>
        <pt x="728" y="126" on="0"/>
        <pt x="630" y="25" on="0"/>
        <pt x="497" y="-27" on="0"/>
      </contour>
      <contour>
        <pt x="421" y="801" on="1"/>
        <pt x="498" y="801" on="0"/>
        <pt x="583" y="926" on="0"/>
        <pt x="583" y="1043" on="1"/>
        <pt x="583" y="1160" on="0"/>
        <pt x="502" y="1284" on="0"/>
        <pt x="425" y="1284" on="1"/>
        <pt x="348" y="1284" on="0"/>
        <pt x="260" y="1160" on="0"/>
        <pt x="260" y="1043" on="1"/>
        <pt x="260" y="926" on="0"/>
        <pt x="344" y="801" on="0"/>
      </contour>
    </TTGlyph>
    <TTGlyph name="ellipsis" xMin="50" yMin="-22" xMax="874" yMax="186">
      <contour>
        <pt x="50" y="82" on="1"/>
        <pt x="50" y="103" on="0"/>
        <pt x="66" y="141" on="0"/>
        <pt x="94" y="170" on="0"/>
        <pt x="132" y="186" on="0"/>
        <pt x="154" y="186" on="1"/>
        <pt x="175" y="186" on="0"/>
        <pt x="213" y="170" on="0"/>
        <pt x="242" y="141" on="0"/>
        <pt x="258" y="103" on="0"/>
        <pt x="258" y="82" on="1"/>
        <pt x="258" y="60" on="0"/>
        <pt x="242" y="22" on="0"/>
        <pt x="213" y="-6" on="0"/>
        <pt x="175" y="-22" on="0"/>
        <pt x="154" y="-22" on="1"/>
        <pt x="110" y="-22" on="0"/>
        <pt x="50" y="38" on="0"/>
      </contour>
      <contour>
        <pt x="358" y="82" on="1"/>
        <pt x="358" y="103" on="0"/>
        <pt x="374" y="141" on="0"/>
        <pt x="402" y="170" on="0"/>
        <pt x="440" y="186" on="0"/>
        <pt x="462" y="186" on="1"/>
        <pt x="483" y="186" on="0"/>
        <pt x="521" y="170" on="0"/>
        <pt x="550" y="141" on="0"/>
        <pt x="566" y="103" on="0"/>
        <pt x="566" y="82" on="1"/>
        <pt x="566" y="60" on="0"/>
        <pt x="550" y="22" on="0"/>
        <pt x="521" y="-6" on="0"/>
        <pt x="483" y="-22" on="0"/>
        <pt x="462" y="-22" on="1"/>
        <pt x="418" y="-22" on="0"/>
        <pt x="358" y="38" on="0"/>
      </contour>
      <contour>
        <pt x="666" y="82" on="1"/>
        <pt x="666" y="103" on="0"/>
        <pt x="682" y="141" on="0"/>
        <pt x="710" y="170" on="0"/>
        <pt x="748" y="186" on="0"/>
        <pt x="770" y="186" on="1"/>
        <pt x="791" y="186" on="0"/>
        <pt x="829" y="170" on="0"/>
        <pt x="858" y="141" on="0"/>
        <pt x="874" y="103" on="0"/>
        <pt x="874" y="82" on="1"/>
        <pt x="874" y="60" on="0"/>
        <pt x="858" y="22" on="0"/>
        <pt x="829" y="-6" on="0"/>
        <pt x="791" y="-22" on="0"/>
        <pt x="770" y="-22" on="1"/>
        <pt x="726" y="-22" on="0"/>
        <pt x="666" y="38" on="0"/>
      </contour>
    </TTGlyph>
    <TTGlyph name="emacron" xMin="68" yMin="-27" xMax="850" yMax="1649">
      <component glyphName="e" x="0" y="0" flags="0x204"/>
      <component glyphName="macron" x="208" y="363" flags="0x4"/>
    </TTGlyph>
    <TTGlyph name="emdash" xMin="0" yMin="629" xMax="2048" yMax="744">
      <contour>
        <pt x="0" y="629" on="1"/>
        <pt x="0" y="744" on="1"/>
        <pt x="2048" y="744" on="1"/>
        <pt x="2048" y="629" on="1"/>
      </contour>
    </TTGlyph>
    <TTGlyph name="endash" xMin="120" yMin="629" xMax="904" yMax="744">
      <contour>
        <pt x="120" y="629" on="1"/>
        <pt x="120" y="744" on="1"/>
        <pt x="904" y="744" on="1"/>
        <pt x="904" y="629" on="1"/>
      </contour>
    </TTGlyph>
    <TTGlyph name="eng" xMin="100" yMin="-26" xMax="844" yMax="1399">
      <contour>
        <pt x="694" y="658" on="1"/>
        <pt x="694" y="814" on="0"/>
        <pt x="683" y="1047" on="0"/>
        <pt x="650" y="1200" on="0"/>
        <pt x="589" y="1276" on="0"/>
        <pt x="540" y="1276" on="1"/>
        <pt x="514" y="1276" on="0"/>
        <pt x="441" y="1242" on="0"/>
        <pt x="365" y="1185" on="0"/>
        <pt x="295" y="1113" on="0"/>
        <pt x="272" y="1076" on="1"/>
        <pt x="266" y="878" on="0"/>
        <pt x="266" y="675" on="1"/>
        <pt x="266" y="582" on="0"/>
        <pt x="268" y="414" on="0"/>
        <pt x="272" y="252" on="0"/>
        <pt x="280" y="89" on="0"/>
        <pt x="285" y="0" on="1"/>
        <pt x="100" y="0" on="1"/>
        <pt x="105" y="89" on="0"/>
        <pt x="112" y="252" on="0"/>
        <pt x="117" y="414" on="0"/>
        <pt x="119" y="582" on="0"/>
        <pt x="119" y="675" on="1"/>
        <pt x="119" y="768" on="0"/>
        <pt x="117" y="943" on="0"/>
        <pt x="112" y="1114" on="0"/>
        <pt x="105" y="1285" on="0"/>
        <pt x="100" y="1374" on="1"/>
        <pt x="286" y="1374" on="1"/>
        <pt x="277" y="1219" on="1"/>
        <pt x="307" y="1255" on="0"/>
        <pt x="381" y="1320" on="0"/>
        <pt x="461" y="1370" on="0"/>
        <pt x="545" y="1399" on="0"/>
        <pt x="586" y="1399" on="1"/>
        <pt x="645" y="1399" on="0"/>
        <pt x="734" y="1358" on="0"/>
        <pt x="796" y="1268" on="0"/>
        <pt x="831" y="1125" on="0"/>
        <pt x="836" y="1023" on="1"/>
        <pt x="841" y="930" on="0"/>
        <pt x="844" y="784" on="0"/>
        <pt x="844" y="730" on="1"/>
        <pt x="844" y="618" on="0"/>
        <pt x="839" y="467" on="0"/>
        <pt x="836" y="425" on="1"/>
        <pt x="828" y="310" on="0"/>
        <pt x="786" y="140" on="0"/>
        <pt x="705" y="29" on="0"/>
        <pt x="580" y="-26" on="0"/>
        <pt x="489" y="-26" on="1"/>
        <pt x="460" y="-26" on="0"/>
        <pt x="405" y="-18" on="0"/>
        <pt x="396" y="-16" on="1"/>
        <pt x="396" y="121" on="1"/>
        <pt x="406" y="118" on="0"/>
        <pt x="462" y="102" on="0"/>
        <pt x="505" y="102" on="1"/>
        <pt x="536" y="102" on="0"/>
        <pt x="592" y="120" on="0"/>
        <pt x="636" y="168" on="0"/>
        <pt x="668" y="252" on="0"/>
        <pt x="676" y="318" on="1"/>
        <pt x="680" y="350" on="0"/>
        <pt x="686" y="412" on="0"/>
        <pt x="691" y="488" on="0"/>
        <pt x="694" y="588" on="0"/>
      </contour>
    </TTGlyph>
    <TTGlyph name="eogonek" xMin="68" yMin="-340" xMax="850" yMax="1399">
      <contour>
        <pt x="547" y="90" on="1"/>
        <pt x="591" y="90" on="0"/>
        <pt x="662" y="112" on="0"/>
        <pt x="722" y="145" on="0"/>
        <pt x="772" y="186" on="0"/>
        <pt x="795" y="205" on="1"/>
        <pt x="795" y="8" on="1"/>
        <pt x="769" y="-2" on="0"/>
        <pt x="723" y="-44" on="0"/>
        <pt x="689" y="-96" on="0"/>
        <pt x="669" y="-152" on="0"/>
        <pt x="669" y="-176" on="1"/>
        <pt x="669" y="-213" on="0"/>
        <pt x="711" y="-251" on="0"/>
        <pt x="743" y="-251" on="1"/>
        <pt x="769" y="-251" on="0"/>
        <pt x="816" y="-230" on="0"/>
        <pt x="830" y="-212" on="1"/>
        <pt x="830" y="-322" on="1"/>
        <pt x="810" y="-330" on="0"/>
        <pt x="762" y="-340" on="0"/>
        <pt x="728" y="-340" on="1"/>
        <pt x="699" y="-340" on="0"/>
        <pt x="642" y="-324" on="0"/>
        <pt x="597" y="-289" on="0"/>
        <pt x="570" y="-233" on="0"/>
        <pt x="570" y="-193" on="1"/>
        <pt x="570" y="-171" on="0"/>
        <pt x="585" y="-124" on="0"/>
        <pt x="611" y="-76" on="0"/>
        <pt x="647" y="-32" on="0"/>
        <pt x="667" y="-13" on="1"/>
        <pt x="642" y="-19" on="0"/>
        <pt x="558" y="-27" on="0"/>
        <pt x="519" y="-27" on="1"/>
        <pt x="414" y="-27" on="0"/>
        <pt x="247" y="70" on="0"/>
        <pt x="130" y="253" on="0"/>
        <pt x="68" y="516" on="0"/>
        <pt x="68" y="682" on="1"/>
        <pt x="68" y="842" on="0"/>
        <pt x="120" y="1107" on="0"/>
        <pt x="221" y="1295" on="0"/>
        <pt x="370" y="1399" on="0"/>
        <pt x="468" y="1399" on="1"/>
        <pt x="569" y="1399" on="0"/>
        <pt x="714" y="1306" on="0"/>
        <pt x="807" y="1129" on="0"/>
        <pt x="850" y="871" on="0"/>
        <pt x="850" y="705" on="1"/>
        <pt x="850" y="668" on="1"/>
        <pt x="246" y="668" on="1"/>
        <pt x="252" y="509" on="0"/>
        <pt x="291" y="289" on="0"/>
        <pt x="363" y="151" on="0"/>
        <pt x="472" y="90" on="0"/>
      </contour>
      <contour>
        <pt x="678" y="784" on="1"/>
        <pt x="676" y="842" on="0"/>
        <pt x="668" y="962" on="0"/>
        <pt x="651" y="1074" on="0"/>
        <pt x="622" y="1172" on="0"/>
        <pt x="576" y="1244" on="0"/>
        <pt x="510" y="1286" on="0"/>
        <pt x="465" y="1286" on="1"/>
        <pt x="405" y="1286" on="0"/>
        <pt x="326" y="1198" on="0"/>
        <pt x="277" y="1056" on="0"/>
        <pt x="253" y="876" on="0"/>
        <pt x="248" y="784" on="1"/>
      </contour>
    </TTGlyph>
    <TTGlyph name="equal" xMin="170" yMin="448" xMax="954" yMax="922">
      <contour>
        <pt x="170" y="800" on="1"/>
        <pt x="170" y="922" on="1"/>
        <pt x="954" y="922" on="1"/>
        <pt x="954" y="800" on="1"/>
      </contour>
      <contour>
        <pt x="170" y="448" on="1"/>
        <pt x="170" y="570" on="1"/>
        <pt x="954" y="570" on="1"/>
        <pt x="954" y="448" on="1"/>
      </contour>
    </TTGlyph>
    <TTGlyph name="eth" xMin="0" yMin="0" xMax="896" yMax="1374">
      <component glyphName="Eth" x="0" y="0" flags="0x204"/>
    </TTGlyph>
    <TTGlyph name="exclam" xMin="101" yMin="-22" xMax="311" yMax="1374">
      <contour>
        <pt x="272" y="339" on="1"/>
        <pt x="140" y="339" on="1"/>
        <pt x="140" y="438" on="1"/>
        <pt x="140" y="742" on="0"/>
        <pt x="112" y="1204" on="0"/>
        <pt x="101" y="1374" on="1"/>
        <pt x="311" y="1374" on="1"/>
        <pt x="300" y="1204" on="0"/>
        <pt x="272" y="742" on="0"/>
        <pt x="272" y="438" on="1"/>
      </contour>
      <contour>
        <pt x="102" y="82" on="1"/>
        <pt x="102" y="103" on="0"/>
        <pt x="118" y="141" on="0"/>
        <pt x="146" y="170" on="0"/>
        <pt x="184" y="186" on="0"/>
        <pt x="206" y="186" on="1"/>
        <pt x="227" y="186" on="0"/>
        <pt x="265" y="170" on="0"/>
        <pt x="294" y="141" on="0"/>
        <pt x="310" y="103" on="0"/>
        <pt x="310" y="82" on="1"/>
        <pt x="310" y="60" on="0"/>
        <pt x="294" y="22" on="0"/>
        <pt x="265" y="-6" on="0"/>
        <pt x="227" y="-22" on="0"/>
        <pt x="206" y="-22" on="1"/>
        <pt x="162" y="-22" on="0"/>
        <pt x="102" y="38" on="0"/>
      </contour>
    </TTGlyph>
    <TTGlyph name="exclamdown" xMin="101" yMin="0" xMax="311" yMax="1399">
      <contour>
        <pt x="272" y="936" on="1"/>
        <pt x="272" y="632" on="0"/>
        <pt x="300" y="170" on="0"/>
        <pt x="311" y="0" on="1"/>
        <pt x="101" y="0" on="1"/>
        <pt x="112" y="170" on="0"/>
        <pt x="140" y="632" on="0"/>
        <pt x="140" y="936" on="1"/>
        <pt x="140" y="1038" on="1"/>
        <pt x="272" y="1038" on="1"/>
      </contour>
      <contour>
        <pt x="102" y="1295" on="1"/>
        <pt x="102" y="1339" on="0"/>
        <pt x="162" y="1399" on="0"/>
        <pt x="206" y="1399" on="1"/>
        <pt x="227" y="1399" on="0"/>
        <pt x="265" y="1383" on="0"/>
        <pt x="294" y="1355" on="0"/>
        <pt x="310" y="1317" on="0"/>
        <pt x="310" y="1295" on="1"/>
        <pt x="310" y="1274" on="0"/>
        <pt x="294" y="1236" on="0"/>
        <pt x="265" y="1207" on="0"/>
        <pt x="227" y="1191" on="0"/>
        <pt x="206" y="1191" on="1"/>
        <pt x="184" y="1191" on="0"/>
        <pt x="146" y="1207" on="0"/>
        <pt x="118" y="1236" on="0"/>
        <pt x="102" y="1274" on="0"/>
      </contour>
    </TTGlyph>
    <TTGlyph name="f" xMin="101" yMin="0" xMax="712" yMax="1399">
      <contour>
        <pt x="712" y="1219" on="1"/>
        <pt x="699" y="1232" on="0"/>
        <pt x="656" y="1253" on="0"/>
        <pt x="605" y="1268" on="0"/>
        <pt x="552" y="1275" on="0"/>
        <pt x="530" y="1275" on="1"/>
        <pt x="466" y="1275" on="0"/>
        <pt x="369" y="1231" on="0"/>
        <pt x="304" y="1148" on="0"/>
        <pt x="271" y="1030" on="0"/>
        <pt x="271" y="956" on="1"/>
        <pt x="271" y="791" on="1"/>
        <pt x="661" y="791" on="1"/>
        <pt x="661" y="674" on="1"/>
        <pt x="271" y="674" on="1"/>
        <pt x="271" y="637" on="1"/>
        <pt x="271" y="485" on="0"/>
        <pt x="278" y="164" on="0"/>
        <pt x="289" y="0" on="1"/>
        <pt x="101" y="0" on="1"/>
        <pt x="110" y="165" on="0"/>
        <pt x="119" y="487" on="0"/>
        <pt x="119" y="637" on="1"/>
        <pt x="119" y="956" on="1"/>
        <pt x="119" y="1060" on="0"/>
        <pt x="171" y="1224" on="0"/>
        <pt x="275" y="1338" on="0"/>
        <pt x="429" y="1399" on="0"/>
        <pt x="530" y="1399" on="1"/>
        <pt x="550" y="1399" on="0"/>
        <pt x="600" y="1396" on="0"/>
        <pt x="650" y="1391" on="0"/>
        <pt x="696" y="1383" on="0"/>
        <pt x="712" y="1377" on="1"/>
      </contour>
    </TTGlyph>
    <TTGlyph name="fi" xMin="101" yMin="0" xMax="1027" yMax="1399">
      <component glyphName="f" x="0" y="0" flags="0x4"/>
      <component glyphName="i" x="732" y="0" flags="0x4"/>
    </TTGlyph>
    <TTGlyph name="five" xMin="50" yMin="-27" xMax="717" yMax="1374">
      <contour>
        <pt x="324" y="-27" on="1"/>
        <pt x="252" y="-27" on="0"/>
        <pt x="110" y="10" on="0"/>
        <pt x="50" y="42" on="1"/>
        <pt x="50" y="213" on="1"/>
        <pt x="83" y="186" on="0"/>
        <pt x="144" y="142" on="0"/>
        <pt x="205" y="111" on="0"/>
        <pt x="269" y="94" on="0"/>
        <pt x="305" y="94" on="1"/>
        <pt x="354" y="94" on="0"/>
        <pt x="446" y="130" on="0"/>
        <pt x="517" y="209" on="0"/>
        <pt x="560" y="335" on="0"/>
        <pt x="560" y="426" on="1"/>
        <pt x="560" y="511" on="0"/>
        <pt x="517" y="631" on="0"/>
        <pt x="445" y="707" on="0"/>
        <pt x="352" y="743" on="0"/>
        <pt x="301" y="743" on="1"/>
        <pt x="244" y="743" on="0"/>
        <pt x="156" y="710" on="0"/>
        <pt x="123" y="692" on="1"/>
        <pt x="80" y="719" on="1"/>
        <pt x="81" y="743" on="0"/>
        <pt x="85" y="815" on="0"/>
        <pt x="88" y="902" on="0"/>
        <pt x="90" y="1002" on="0"/>
        <pt x="90" y="1054" on="1"/>
        <pt x="90" y="1131" on="0"/>
        <pt x="85" y="1294" on="0"/>
        <pt x="77" y="1374" on="1"/>
        <pt x="632" y="1374" on="1"/>
        <pt x="632" y="1251" on="1"/>
        <pt x="230" y="1251" on="1"/>
        <pt x="228" y="1199" on="0"/>
        <pt x="225" y="1099" on="0"/>
        <pt x="225" y="1054" on="1"/>
        <pt x="225" y="1009" on="0"/>
        <pt x="226" y="933" on="0"/>
        <pt x="227" y="905" on="1"/>
        <pt x="228" y="872" on="0"/>
        <pt x="230" y="846" on="1"/>
        <pt x="249" y="851" on="0"/>
        <pt x="296" y="864" on="0"/>
        <pt x="338" y="864" on="1"/>
        <pt x="416" y="864" on="0"/>
        <pt x="554" y="807" on="0"/>
        <pt x="657" y="696" on="0"/>
        <pt x="717" y="535" on="0"/>
        <pt x="717" y="432" on="1"/>
        <pt x="717" y="321" on="0"/>
        <pt x="655" y="149" on="0"/>
        <pt x="548" y="33" on="0"/>
        <pt x="405" y="-27" on="0"/>
      </contour>
    </TTGlyph>
    <TTGlyph name="fl" xMin="101" yMin="0" xMax="1418" yMax="1399">
      <component glyphName="f" x="0" y="0" flags="0x4"/>
      <component glyphName="l" x="732" y="0" flags="0x4"/>
    </TTGlyph>
    <TTGlyph name="florin" xMin="20" yMin="-70" xMax="806" yMax="1399">
      <contour>
        <pt x="379" y="940" on="1"/>
        <pt x="399" y="1059" on="1"/>
        <pt x="411" y="1135" on="0"/>
        <pt x="451" y="1260" on="0"/>
        <pt x="515" y="1350" on="0"/>
        <pt x="605" y="1399" on="0"/>
        <pt x="665" y="1399" on="1"/>
        <pt x="705" y="1399" on="0"/>
        <pt x="775" y="1387" on="0"/>
        <pt x="806" y="1376" on="1"/>
        <pt x="806" y="1218" on="1"/>
        <pt x="783" y="1240" on="0"/>
        <pt x="722" y="1279" on="0"/>
        <pt x="687" y="1279" on="1"/>
        <pt x="630" y="1279" on="0"/>
        <pt x="567" y="1175" on="0"/>
        <pt x="553" y="1075" on="1"/>
        <pt x="533" y="940" on="1"/>
        <pt x="689" y="940" on="1"/>
        <pt x="689" y="825" on="1"/>
        <pt x="519" y="825" on="1"/>
        <pt x="450" y="340" on="1"/>
        <pt x="436" y="244" on="0"/>
        <pt x="398" y="92" on="0"/>
        <pt x="334" y="-14" on="0"/>
        <pt x="238" y="-70" on="0"/>
        <pt x="168" y="-70" on="1"/>
        <pt x="136" y="-70" on="0"/>
        <pt x="61" y="-58" on="0"/>
        <pt x="20" y="-41" on="1"/>
        <pt x="20" y="117" on="1"/>
        <pt x="58" y="84" on="0"/>
        <pt x="116" y="50" on="0"/>
        <pt x="144" y="50" on="1"/>
        <pt x="178" y="50" on="0"/>
        <pt x="225" y="90" on="0"/>
        <pt x="259" y="167" on="0"/>
        <pt x="283" y="280" on="0"/>
        <pt x="293" y="354" on="1"/>
        <pt x="361" y="825" on="1"/>
        <pt x="210" y="825" on="1"/>
        <pt x="210" y="940" on="1"/>
      </contour>
    </TTGlyph>
    <TTGlyph name="four" xMin="40" yMin="0" xMax="810" yMax="1374">
      <contour>
        <pt x="682" y="1374" on="1"/>
        <pt x="676" y="1289" on="0"/>
        <pt x="669" y="1111" on="0"/>
        <pt x="665" y="935" on="0"/>
        <pt x="663" y="765" on="0"/>
        <pt x="663" y="688" on="1"/>
        <pt x="663" y="640" on="0"/>
        <pt x="663" y="539" on="0"/>
        <pt x="664" y="485" on="1"/>
        <pt x="810" y="485" on="1"/>
        <pt x="810" y="362" on="1"/>
        <pt x="666" y="362" on="1"/>
        <pt x="668" y="271" on="0"/>
        <pt x="675" y="88" on="0"/>
        <pt x="680" y="0" on="1"/>
        <pt x="493" y="0" on="1"/>
        <pt x="498" y="88" on="0"/>
        <pt x="506" y="271" on="0"/>
        <pt x="508" y="362" on="1"/>
        <pt x="40" y="362" on="1"/>
        <pt x="40" y="481" on="1"/>
        <pt x="77" y="563" on="0"/>
        <pt x="156" y="726" on="0"/>
        <pt x="234" y="882" on="0"/>
        <pt x="308" y="1028" on="0"/>
        <pt x="341" y="1091" on="1"/>
        <pt x="418" y="1240" on="0"/>
        <pt x="493" y="1374" on="1"/>
      </contour>
      <contour>
        <pt x="504" y="1152" on="1"/>
        <pt x="457" y="1064" on="0"/>
        <pt x="366" y="880" on="0"/>
        <pt x="282" y="706" on="0"/>
        <pt x="207" y="548" on="0"/>
        <pt x="177" y="485" on="1"/>
        <pt x="510" y="485" on="1"/>
        <pt x="511" y="539" on="0"/>
        <pt x="512" y="640" on="0"/>
        <pt x="512" y="688" on="1"/>
        <pt x="512" y="794" on="0"/>
        <pt x="509" y="1031" on="0"/>
      </contour>
    </TTGlyph>
    <TTGlyph name="fraction" xMin="-230" yMin="0" xMax="460" yMax="1374">
      <contour>
        <pt x="-121" y="0" on="1"/>
        <pt x="-230" y="0" on="1"/>
        <pt x="351" y="1374" on="1"/>
        <pt x="460" y="1374" on="1"/>
      </contour>
    </TTGlyph>
    <TTGlyph name="g" xMin="68" yMin="-23" xMax="858" yMax="1395">
      <contour>
        <pt x="494" y="676" on="1"/>
        <pt x="858" y="676" on="1"/>
        <pt x="854" y="594" on="0"/>
        <pt x="851" y="436" on="0"/>
        <pt x="851" y="364" on="1"/>
        <pt x="851" y="292" on="0"/>
        <pt x="852" y="173" on="0"/>
        <pt x="854" y="130" on="1"/>
        <pt x="856" y="79" on="0"/>
        <pt x="858" y="39" on="1"/>
        <pt x="807" y="13" on="0"/>
        <pt x="661" y="-23" on="0"/>
        <pt x="557" y="-23" on="1"/>
        <pt x="453" y="-23" on="0"/>
        <pt x="275" y="63" on="0"/>
        <pt x="143" y="238" on="0"/>
        <pt x="68" y="505" on="0"/>
        <pt x="68" y="686" on="1"/>
        <pt x="68" y="867" on="0"/>
        <pt x="147" y="1134" on="0"/>
        <pt x="283" y="1309" on="0"/>
        <pt x="464" y="1395" on="0"/>
        <pt x="566" y="1395" on="1"/>
        <pt x="608" y="1395" on="0"/>
        <pt x="676" y="1388" on="0"/>
        <pt x="735" y="1376" on="0"/>
        <pt x="787" y="1358" on="0"/>
        <pt x="812" y="1348" on="1"/>
        <pt x="812" y="1146" on="1"/>
        <pt x="747" y="1219" on="0"/>
        <pt x="632" y="1278" on="0"/>
        <pt x="565" y="1278" on="1"/>
        <pt x="488" y="1278" on="0"/>
        <pt x="368" y="1193" on="0"/>
        <pt x="285" y="1037" on="0"/>
        <pt x="242" y="820" on="0"/>
        <pt x="242" y="688" on="1"/>
        <pt x="242" y="560" on="0"/>
        <pt x="282" y="343" on="0"/>
        <pt x="362" y="184" on="0"/>
        <pt x="483" y="94" on="0"/>
        <pt x="564" y="94" on="1"/>
        <pt x="599" y="94" on="0"/>
        <pt x="652" y="105" on="0"/>
        <pt x="678" y="119" on="1"/>
        <pt x="679" y="141" on="0"/>
        <pt x="680" y="170" on="1"/>
        <pt x="681" y="195" on="0"/>
        <pt x="683" y="266" on="0"/>
        <pt x="683" y="313" on="1"/>
        <pt x="683" y="364" on="0"/>
        <pt x="680" y="488" on="0"/>
        <pt x="676" y="560" on="1"/>
        <pt x="494" y="560" on="1"/>
      </contour>
    </TTGlyph>
    <TTGlyph name="gbreve" xMin="68" yMin="-23" xMax="858" yMax="1733">
      <component glyphName="g" x="0" y="0" flags="0x204"/>
      <component glyphName="breve" x="295" y="362" flags="0x4"/>
    </TTGlyph>
    <TTGlyph name="gcircumflex" xMin="68" yMin="-23" xMax="858" yMax="1777">
      <component glyphName="g" x="0" y="0" flags="0x204"/>
      <component glyphName="circumflex" x="295" y="362" flags="0x4"/>
    </TTGlyph>
    <TTGlyph name="gcommaaccent" xMin="68" yMin="-397" xMax="858" yMax="1395">
      <component glyphName="g" x="0" y="0" flags="0x204"/>
      <component glyphName="commaaccent" x="282" y="0" flags="0x4"/>
    </TTGlyph>
    <TTGlyph name="gdotaccent" xMin="68" yMin="-23" xMax="858" yMax="1692">
      <component glyphName="g" x="0" y="0" flags="0x204"/>
      <component glyphName="dotaccent" x="295" y="362" flags="0x4"/>
    </TTGlyph>
    <TTGlyph name="germandbls" xMin="101" yMin="-20" xMax="897" yMax="1403">
      <contour>
        <pt x="493" y="1290" on="1"/>
        <pt x="448" y="1290" on="0"/>
        <pt x="367" y="1260" on="0"/>
        <pt x="306" y="1190" on="0"/>
        <pt x="271" y="1077" on="0"/>
        <pt x="271" y="995" on="1"/>
        <pt x="271" y="637" on="1"/>
        <pt x="271" y="485" on="0"/>
        <pt x="278" y="164" on="0"/>
        <pt x="289" y="0" on="1"/>
        <pt x="101" y="0" on="1"/>
        <pt x="110" y="165" on="0"/>
        <pt x="119" y="487" on="0"/>
        <pt x="119" y="637" on="1"/>
        <pt x="119" y="990" on="1"/>
        <pt x="119" y="1094" on="0"/>
        <pt x="172" y="1249" on="0"/>
        <pt x="270" y="1352" on="0"/>
        <pt x="411" y="1403" on="0"/>
        <pt x="498" y="1403" on="1"/>
        <pt x="557" y="1403" on="0"/>
        <pt x="678" y="1366" on="0"/>
        <pt x="775" y="1285" on="0"/>
        <pt x="837" y="1156" on="0"/>
        <pt x="837" y="1063" on="1"/>
        <pt x="837" y="1000" on="0"/>
        <pt x="802" y="895" on="0"/>
        <pt x="747" y="814" on="0"/>
        <pt x="677" y="758" on="0"/>
        <pt x="643" y="744" on="1"/>
        <pt x="690" y="726" on="0"/>
        <pt x="781" y="667" on="0"/>
        <pt x="853" y="578" on="0"/>
        <pt x="897" y="455" on="0"/>
        <pt x="897" y="373" on="1"/>
        <pt x="897" y="280" on="0"/>
        <pt x="848" y="133" on="0"/>
        <pt x="757" y="33" on="0"/>
        <pt x="629" y="-20" on="0"/>
        <pt x="550" y="-20" on="1"/>
        <pt x="490" y="-20" on="0"/>
        <pt x="401" y="-5" on="0"/>
        <pt x="365" y="4" on="1"/>
        <pt x="365" y="167" on="1"/>
        <pt x="378" y="157" on="0"/>
        <pt x="413" y="133" on="0"/>
        <pt x="456" y="111" on="0"/>
        <pt x="508" y="96" on="0"/>
        <pt x="538" y="96" on="1"/>
        <pt x="579" y="96" on="0"/>
        <pt x="648" y="125" on="0"/>
        <pt x="697" y="190" on="0"/>
        <pt x="724" y="297" on="0"/>
        <pt x="724" y="375" on="1"/>
        <pt x="724" y="526" on="0"/>
        <pt x="566" y="679" on="0"/>
        <pt x="426" y="679" on="1"/>
        <pt x="426" y="787" on="1"/>
        <pt x="500" y="787" on="0"/>
        <pt x="594" y="838" on="0"/>
        <pt x="647" y="915" on="0"/>
        <pt x="666" y="1006" on="0"/>
        <pt x="666" y="1046" on="1"/>
        <pt x="666" y="1116" on="0"/>
        <pt x="636" y="1210" on="0"/>
        <pt x="587" y="1266" on="0"/>
        <pt x="525" y="1290" on="0"/>
      </contour>
    </TTGlyph>
    <TTGlyph name="grave" xMin="39" yMin="1139" xMax="348" yMax="1415">
      <contour>
        <pt x="242" y="1139" on="1"/>
        <pt x="39" y="1415" on="1"/>
        <pt x="217" y="1415" on="1"/>
        <pt x="348" y="1139" on="1"/>
      </contour>
    </TTGlyph>
    <TTGlyph name="greater" xMin="150" yMin="264" xMax="974" yMax="1106">
      <contour>
        <pt x="150" y="264" on="1"/>
        <pt x="150" y="395" on="1"/>
        <pt x="802" y="685" on="1"/>
        <pt x="150" y="975" on="1"/>
        <pt x="150" y="1106" on="1"/>
        <pt x="974" y="736" on="1"/>
        <pt x="974" y="634" on="1"/>
      </contour>
    </TTGlyph>
    <TTGlyph name="greaterequal" xMin="150" yMin="156" xMax="974" yMax="1106">
      <contour>
        <pt x="974" y="278" on="1"/>
        <pt x="974" y="156" on="1"/>
        <pt x="150" y="156" on="1"/>
        <pt x="150" y="278" on="1"/>
      </contour>
      <contour>
        <pt x="150" y="364" on="1"/>
        <pt x="150" y="495" on="1"/>
        <pt x="802" y="735" on="1"/>
        <pt x="150" y="975" on="1"/>
        <pt x="150" y="1106" on="1"/>
        <pt x="974" y="786" on="1"/>
        <pt x="974" y="684" on="1"/>
      </contour>
    </TTGlyph>
    <TTGlyph name="guillemotleft" xMin="60" yMin="300" xMax="714" yMax="1068">
      <contour>
        <pt x="288" y="300" on="1"/>
        <pt x="60" y="685" on="1"/>
        <pt x="288" y="1068" on="1"/>
        <pt x="404" y="993" on="1"/>
        <pt x="205" y="685" on="1"/>
        <pt x="404" y="375" on="1"/>
      </contour>
      <contour>
        <pt x="598" y="300" on="1"/>
        <pt x="370" y="685" on="1"/>
        <pt x="598" y="1068" on="1"/>
        <pt x="714" y="993" on="1"/>
        <pt x="515" y="685" on="1"/>
        <pt x="714" y="375" on="1"/>
      </contour>
    </TTGlyph>
    <TTGlyph name="guillemotright" xMin="46" yMin="300" xMax="700" yMax="1068">
      <contour>
        <pt x="356" y="375" on="1"/>
        <pt x="555" y="685" on="1"/>
        <pt x="356" y="993" on="1"/>
        <pt x="472" y="1068" on="1"/>
        <pt x="700" y="685" on="1"/>
        <pt x="472" y="300" on="1"/>
      </contour>
      <contour>
        <pt x="46" y="375" on="1"/>
        <pt x="245" y="685" on="1"/>
        <pt x="46" y="993" on="1"/>
        <pt x="162" y="1068" on="1"/>
        <pt x="390" y="685" on="1"/>
        <pt x="162" y="300" on="1"/>
      </contour>
    </TTGlyph>
    <TTGlyph name="guilsinglleft" xMin="60" yMin="300" xMax="404" yMax="1068">
      <contour>
        <pt x="288" y="300" on="1"/>
        <pt x="60" y="685" on="1"/>
        <pt x="288" y="1068" on="1"/>
        <pt x="404" y="993" on="1"/>
        <pt x="205" y="685" on="1"/>
        <pt x="404" y="375" on="1"/>
      </contour>
    </TTGlyph>
    <TTGlyph name="guilsinglright" xMin="46" yMin="300" xMax="390" yMax="1068">
      <contour>
        <pt x="46" y="375" on="1"/>
        <pt x="245" y="685" on="1"/>
        <pt x="46" y="993" on="1"/>
        <pt x="162" y="1068" on="1"/>
        <pt x="390" y="685" on="1"/>
        <pt x="162" y="300" on="1"/>
      </contour>
    </TTGlyph>
    <TTGlyph name="h" xMin="100" yMin="0" xMax="852" yMax="1374">
      <contour>
        <pt x="852" y="1374" on="1"/>
        <pt x="847" y="1289" on="0"/>
        <pt x="840" y="1111" on="0"/>
        <pt x="836" y="935" on="0"/>
        <pt x="834" y="765" on="0"/>
        <pt x="834" y="688" on="1"/>
        <pt x="834" y="611" on="0"/>
        <pt x="836" y="441" on="0"/>
        <pt x="839" y="264" on="0"/>
        <pt x="845" y="85" on="0"/>
        <pt x="850" y="0" on="1"/>
        <pt x="664" y="0" on="1"/>
        <pt x="669" y="85" on="0"/>
        <pt x="676" y="264" on="0"/>
        <pt x="680" y="441" on="0"/>
        <pt x="682" y="611" on="0"/>
        <pt x="682" y="688" on="1"/>
        <pt x="270" y="688" on="1"/>
        <pt x="270" y="611" on="0"/>
        <pt x="272" y="441" on="0"/>
        <pt x="276" y="264" on="0"/>
        <pt x="282" y="85" on="0"/>
        <pt x="287" y="0" on="1"/>
        <pt x="100" y="0" on="1"/>
        <pt x="106" y="85" on="0"/>
        <pt x="113" y="264" on="0"/>
        <pt x="117" y="441" on="0"/>
        <pt x="119" y="611" on="0"/>
        <pt x="119" y="688" on="1"/>
        <pt x="119" y="765" on="0"/>
        <pt x="117" y="935" on="0"/>
        <pt x="113" y="1111" on="0"/>
        <pt x="106" y="1289" on="0"/>
        <pt x="100" y="1374" on="1"/>
        <pt x="289" y="1374" on="1"/>
        <pt x="279" y="1234" on="0"/>
        <pt x="272" y="941" on="0"/>
        <pt x="270" y="805" on="1"/>
        <pt x="681" y="805" on="1"/>
        <pt x="680" y="941" on="0"/>
        <pt x="672" y="1234" on="0"/>
        <pt x="664" y="1374" on="1"/>
      </contour>
    </TTGlyph>
    <TTGlyph name="hbar" xMin="12" yMin="0" xMax="941" yMax="1374">
      <component glyphName="Hbar" x="0" y="0" flags="0x204"/>
    </TTGlyph>
    <TTGlyph name="hcircumflex" xMin="100" yMin="0" xMax="852" yMax="1777">
      <component glyphName="h" x="0" y="0" flags="0x204"/>
      <component glyphName="circumflex" x="208" y="362" flags="0x4"/>
    </TTGlyph>
    <TTGlyph name="hungarumlaut" xMin="145" yMin="1139" xMax="545" yMax="1415">
      <contour>
        <pt x="401" y="1139" on="1"/>
        <pt x="299" y="1139" on="1"/>
        <pt x="414" y="1415" on="1"/>
        <pt x="545" y="1415" on="1"/>
      </contour>
      <contour>
        <pt x="240" y="1139" on="1"/>
        <pt x="145" y="1139" on="1"/>
        <pt x="219" y="1415" on="1"/>
        <pt x="348" y="1415" on="1"/>
      </contour>
    </TTGlyph>
    <TTGlyph name="hyphen" xMin="120" yMin="616" xMax="490" yMax="757">
      <contour>
        <pt x="120" y="616" on="1"/>
        <pt x="120" y="757" on="1"/>
        <pt x="490" y="757" on="1"/>
        <pt x="490" y="616" on="1"/>
      </contour>
    </TTGlyph>
    <TTGlyph name="i" xMin="106" yMin="0" xMax="295" yMax="1374">
      <contour>
        <pt x="295" y="1374" on="1"/>
        <pt x="289" y="1289" on="0"/>
        <pt x="282" y="1111" on="0"/>
        <pt x="278" y="935" on="0"/>
        <pt x="276" y="765" on="0"/>
        <pt x="276" y="688" on="1"/>
        <pt x="276" y="611" on="0"/>
        <pt x="278" y="441" on="0"/>
        <pt x="282" y="264" on="0"/>
        <pt x="288" y="85" on="0"/>
        <pt x="293" y="0" on="1"/>
        <pt x="106" y="0" on="1"/>
        <pt x="112" y="85" on="0"/>
        <pt x="119" y="264" on="0"/>
        <pt x="123" y="441" on="0"/>
        <pt x="125" y="611" on="0"/>
        <pt x="125" y="688" on="1"/>
        <pt x="125" y="765" on="0"/>
        <pt x="123" y="935" on="0"/>
        <pt x="119" y="1111" on="0"/>
        <pt x="112" y="1289" on="0"/>
        <pt x="106" y="1374" on="1"/>
      </contour>
    </TTGlyph>
    <TTGlyph name="iacute" xMin="106" yMin="0" xMax="455" yMax="1777">
      <component glyphName="dotlessi" x="0" y="0" flags="0x204"/>
      <component glyphName="acute" x="-88" y="362" flags="0x4"/>
    </TTGlyph>
    <TTGlyph name="ibreve" xMin="4" yMin="0" xMax="401" yMax="1733">
      <component glyphName="dotlessi" x="0" y="0" flags="0x204"/>
      <component glyphName="breve" x="-67" y="362" flags="0x4"/>
    </TTGlyph>
    <TTGlyph name="icircumflex" xMin="5" yMin="0" xMax="402" yMax="1777">
      <component glyphName="dotlessi" x="0" y="0" flags="0x204"/>
      <component glyphName="circumflex" x="-67" y="362" flags="0x4"/>
    </TTGlyph>
    <TTGlyph name="idieresis" xMin="3" yMin="0" xMax="402" yMax="1683">
      <component glyphName="dotlessi" x="0" y="0" flags="0x204"/>
      <component glyphName="dieresis" x="-68" y="362" flags="0x4"/>
    </TTGlyph>
    <TTGlyph name="igrave" xMin="-53" yMin="0" xMax="295" yMax="1777">
      <component glyphName="dotlessi" x="0" y="0" flags="0x204"/>
      <component glyphName="grave" x="-92" y="362" flags="0x4"/>
    </TTGlyph>
    <TTGlyph name="ij" xMin="106" yMin="-26" xMax="880" yMax="1374">
      <component glyphName="i" x="0" y="0" flags="0x4"/>
      <component glyphName="j" x="401" y="0" flags="0x4"/>
    </TTGlyph>
    <TTGlyph name="imacron" xMin="33" yMin="0" xMax="374" yMax="1649">
      <component glyphName="dotlessi" x="0" y="0" flags="0x204"/>
      <component glyphName="macron" x="-67" y="363" flags="0x4"/>
    </TTGlyph>
    <TTGlyph name="iogonek" xMin="65" yMin="-340" xMax="325" yMax="1374">
      <contour>
        <pt x="295" y="1374" on="1"/>
        <pt x="289" y="1289" on="0"/>
        <pt x="282" y="1111" on="0"/>
        <pt x="278" y="935" on="0"/>
        <pt x="276" y="765" on="0"/>
        <pt x="276" y="688" on="1"/>
        <pt x="276" y="611" on="0"/>
        <pt x="278" y="441" on="0"/>
        <pt x="282" y="264" on="0"/>
        <pt x="288" y="85" on="0"/>
        <pt x="293" y="0" on="1"/>
        <pt x="246" y="0" on="1"/>
        <pt x="231" y="-20" on="0"/>
        <pt x="202" y="-62" on="0"/>
        <pt x="179" y="-107" on="0"/>
        <pt x="164" y="-153" on="0"/>
        <pt x="164" y="-176" on="1"/>
        <pt x="164" y="-213" on="0"/>
        <pt x="206" y="-251" on="0"/>
        <pt x="238" y="-251" on="1"/>
        <pt x="264" y="-251" on="0"/>
        <pt x="311" y="-230" on="0"/>
        <pt x="325" y="-212" on="1"/>
        <pt x="325" y="-322" on="1"/>
        <pt x="305" y="-330" on="0"/>
        <pt x="257" y="-340" on="0"/>
        <pt x="223" y="-340" on="1"/>
        <pt x="194" y="-340" on="0"/>
        <pt x="137" y="-324" on="0"/>
        <pt x="92" y="-289" on="0"/>
        <pt x="65" y="-233" on="0"/>
        <pt x="65" y="-193" on="1"/>
        <pt x="65" y="-144" on="0"/>
        <pt x="121" y="-44" on="0"/>
        <pt x="161" y="0" on="1"/>
        <pt x="106" y="0" on="1"/>
        <pt x="112" y="85" on="0"/>
        <pt x="119" y="264" on="0"/>
        <pt x="123" y="441" on="0"/>
        <pt x="125" y="611" on="0"/>
        <pt x="125" y="688" on="1"/>
        <pt x="125" y="765" on="0"/>
        <pt x="123" y="935" on="0"/>
        <pt x="119" y="1111" on="0"/>
        <pt x="112" y="1289" on="0"/>
        <pt x="106" y="1374" on="1"/>
      </contour>
    </TTGlyph>
    <TTGlyph name="itilde" xMin="3" yMin="0" xMax="402" yMax="1732">
      <component glyphName="dotlessi" x="0" y="0" flags="0x204"/>
      <component glyphName="tilde" x="-68" y="362" flags="0x4"/>
    </TTGlyph>
    <TTGlyph name="j" xMin="20" yMin="-26" xMax="479" yMax="1374">
      <contour>
        <pt x="20" y="121" on="1"/>
        <pt x="30" y="118" on="0"/>
        <pt x="86" y="102" on="0"/>
        <pt x="129" y="102" on="1"/>
        <pt x="160" y="102" on="0"/>
        <pt x="216" y="120" on="0"/>
        <pt x="260" y="168" on="0"/>
        <pt x="292" y="252" on="0"/>
        <pt x="300" y="318" on="1"/>
        <pt x="308" y="382" on="0"/>
        <pt x="309" y="590" on="0"/>
        <pt x="309" y="730" on="1"/>
        <pt x="309" y="882" on="0"/>
        <pt x="302" y="1210" on="0"/>
        <pt x="291" y="1374" on="1"/>
        <pt x="479" y="1374" on="1"/>
        <pt x="474" y="1292" on="0"/>
        <pt x="468" y="1134" on="0"/>
        <pt x="463" y="990" on="0"/>
        <pt x="461" y="865" on="0"/>
        <pt x="461" y="815" on="1"/>
        <pt x="461" y="759" on="0"/>
        <pt x="462" y="639" on="0"/>
        <pt x="464" y="531" on="0"/>
        <pt x="465" y="446" on="0"/>
        <pt x="465" y="425" on="1"/>
        <pt x="465" y="318" on="0"/>
        <pt x="423" y="150" on="0"/>
        <pt x="337" y="34" on="0"/>
        <pt x="204" y="-26" on="0"/>
        <pt x="113" y="-26" on="1"/>
        <pt x="84" y="-26" on="0"/>
        <pt x="29" y="-18" on="0"/>
        <pt x="20" y="-16" on="1"/>
      </contour>
    </TTGlyph>
    <TTGlyph name="jcircumflex" xMin="20" yMin="-26" xMax="586" yMax="1777">
      <component glyphName="dotlessj" x="0" y="0" flags="0x204"/>
      <component glyphName="circumflex" x="117" y="362" flags="0x4"/>
    </TTGlyph>
    <TTGlyph name="k" xMin="100" yMin="0" xMax="854" yMax="1374">
      <contour>
        <pt x="289" y="1374" on="1"/>
        <pt x="280" y="1235" on="0"/>
        <pt x="272" y="945" on="0"/>
        <pt x="270" y="810" on="1"/>
        <pt x="306" y="863" on="0"/>
        <pt x="384" y="991" on="0"/>
        <pt x="467" y="1135" on="0"/>
        <pt x="551" y="1292" on="0"/>
        <pt x="592" y="1374" on="1"/>
        <pt x="800" y="1374" on="1"/>
        <pt x="756" y="1314" on="0"/>
        <pt x="654" y="1168" on="0"/>
        <pt x="550" y="1014" on="0"/>
        <pt x="448" y="858" on="0"/>
        <pt x="403" y="789" on="1"/>
        <pt x="445" y="691" on="0"/>
        <pt x="541" y="492" on="0"/>
        <pt x="652" y="294" on="0"/>
        <pt x="780" y="97" on="0"/>
        <pt x="854" y="0" on="1"/>
        <pt x="643" y="0" on="1"/>
        <pt x="618" y="38" on="0"/>
        <pt x="560" y="139" on="0"/>
        <pt x="499" y="254" on="0"/>
        <pt x="437" y="378" on="0"/>
        <pt x="378" y="499" on="0"/>
        <pt x="326" y="612" on="0"/>
        <pt x="305" y="659" on="1"/>
        <pt x="270" y="600" on="1"/>
        <pt x="270" y="531" on="0"/>
        <pt x="273" y="380" on="0"/>
        <pt x="277" y="224" on="0"/>
        <pt x="283" y="70" on="0"/>
        <pt x="287" y="0" on="1"/>
        <pt x="100" y="0" on="1"/>
        <pt x="106" y="85" on="0"/>
        <pt x="113" y="264" on="0"/>
        <pt x="117" y="441" on="0"/>
        <pt x="119" y="611" on="0"/>
        <pt x="119" y="688" on="1"/>
        <pt x="119" y="765" on="0"/>
        <pt x="117" y="935" on="0"/>
        <pt x="113" y="1111" on="0"/>
        <pt x="106" y="1289" on="0"/>
        <pt x="100" y="1374" on="1"/>
      </contour>
    </TTGlyph>
    <TTGlyph name="kcommaaccent" xMin="100" yMin="-397" xMax="854" yMax="1374">
      <component glyphName="k" x="0" y="0" flags="0x204"/>
      <component glyphName="commaaccent" x="176" y="0" flags="0x4"/>
    </TTGlyph>
    <TTGlyph name="kgreenlandic" xMin="100" yMin="0" xMax="854" yMax="1374">
      <component glyphName="K" x="0" y="0" flags="0x204"/>
    </TTGlyph>
    <TTGlyph name="l" xMin="100" yMin="0" xMax="686" yMax="1374">
      <contour>
        <pt x="289" y="1374" on="1"/>
        <pt x="283" y="1289" on="0"/>
        <pt x="276" y="1111" on="0"/>
        <pt x="272" y="935" on="0"/>
        <pt x="270" y="765" on="0"/>
        <pt x="270" y="688" on="1"/>
        <pt x="270" y="559" on="0"/>
        <pt x="274" y="264" on="0"/>
        <pt x="281" y="117" on="1"/>
        <pt x="686" y="117" on="1"/>
        <pt x="686" y="0" on="1"/>
        <pt x="100" y="0" on="1"/>
        <pt x="106" y="85" on="0"/>
        <pt x="113" y="264" on="0"/>
        <pt x="117" y="441" on="0"/>
        <pt x="119" y="611" on="0"/>
        <pt x="119" y="688" on="1"/>
        <pt x="119" y="765" on="0"/>
        <pt x="117" y="935" on="0"/>
        <pt x="113" y="1111" on="0"/>
        <pt x="106" y="1289" on="0"/>
        <pt x="100" y="1374" on="1"/>
      </contour>
    </TTGlyph>
    <TTGlyph name="lacute" xMin="100" yMin="0" xMax="686" yMax="1777">
      <component glyphName="l" x="0" y="0" flags="0x204"/>
      <component glyphName="acute" x="-96" y="362" flags="0x4"/>
    </TTGlyph>
    <TTGlyph name="lcaron" xMin="100" yMin="0" xMax="686" yMax="1399">
      <component glyphName="l" x="0" y="0" flags="0x204"/>
      <component glyphName="quoteright" x="405" y="0" flags="0x4"/>
    </TTGlyph>
    <TTGlyph name="lcommaaccent" xMin="100" yMin="-397" xMax="686" yMax="1374">
      <component glyphName="l" x="0" y="0" flags="0x204"/>
      <component glyphName="commaaccent" x="107" y="0" flags="0x4"/>
    </TTGlyph>
    <TTGlyph name="ldotaccent" xMin="100" yMin="0" xMax="686" yMax="1374">
      <component glyphName="L" x="0" y="0" flags="0x204"/>
      <component glyphName="periodcentered" x="388" y="0" flags="0x4"/>
    </TTGlyph>
    <TTGlyph name="less" xMin="150" yMin="264" xMax="974" yMax="1106">
      <contour>
        <pt x="150" y="634" on="1"/>
        <pt x="150" y="736" on="1"/>
        <pt x="974" y="1106" on="1"/>
        <pt x="974" y="975" on="1"/>
        <pt x="322" y="685" on="1"/>
        <pt x="974" y="395" on="1"/>
        <pt x="974" y="264" on="1"/>
      </contour>
    </TTGlyph>
    <TTGlyph name="lessequal" xMin="150" yMin="156" xMax="974" yMax="1106">
      <contour>
        <pt x="974" y="278" on="1"/>
        <pt x="974" y="156" on="1"/>
        <pt x="150" y="156" on="1"/>
        <pt x="150" y="278" on="1"/>
      </contour>
      <contour>
        <pt x="150" y="684" on="1"/>
        <pt x="150" y="786" on="1"/>
        <pt x="974" y="1106" on="1"/>
        <pt x="974" y="975" on="1"/>
        <pt x="322" y="735" on="1"/>
        <pt x="974" y="495" on="1"/>
        <pt x="974" y="364" on="1"/>
      </contour>
    </TTGlyph>
</ttFont>
